<svg width="689" height="900" viewBox="0 0 689 900" fill="none" xmlns="http://www.w3.org/2000/svg">
<path opacity="0.2" d="M157.88 363.197C135.328 381.578 113.48 402.146 99.7521 428.095C79.564 466.245 79.8753 514.235 100.593 549.61C118.134 579.603 147.714 599.133 173.021 622.301C204.2 650.833 229.426 685.605 253.301 720.965C266.13 739.957 279.066 759.653 297.803 772.373C323.82 790.03 358.894 791.776 389.526 780.44C420.157 769.103 446.377 745.701 465.206 717.888C475.226 703.088 483.515 686.362 484.71 668.769C485.975 650.154 479.231 632.16 480.632 613.545C481.929 596.295 490.137 579.979 499.732 565.311C512.258 546.159 527.421 528.868 544.773 513.949C564.441 497.059 586.59 483.584 606.322 466.831C626.053 450.078 643.913 428.867 650.09 403.632C655.9 379.91 650.794 355.587 644.596 332.734C634.505 295.392 621.391 258.935 605.384 223.722C594.637 200.124 582.364 176.85 564.39 158.785C530.029 124.24 475.317 112.887 428.067 130.49C388.92 145.075 357.308 176.73 330.085 209.864C305.26 240.079 282.614 278.513 250.432 300.939C219.726 322.314 187.337 339.198 157.88 363.197Z" fill="#1B51E5"/>
<path opacity="0.2" d="M906.091 584.228C942.345 561.413 977.963 535.275 1002.68 499.818C1039.03 447.689 1047.19 377.503 1023.26 322.092C1003.01 275.116 963.292 241.271 930.47 202.875C890.029 155.587 859.408 100.249 830.866 44.2948C815.529 14.2394 800.161 -16.8626 775.064 -38.8119C740.215 -69.2815 689.274 -78.1244 642.478 -67.0524C595.683 -55.9804 553.167 -26.4849 520.661 10.7811C503.363 30.612 488.248 53.5672 483.344 79.0624C478.154 106.038 484.779 133.544 479.391 160.495C474.4 185.47 459.476 207.841 442.824 227.555C421.082 253.295 395.821 275.843 367.787 294.533C336.015 315.686 301.23 331.406 269.39 352.349C237.549 373.291 207.644 401.084 194.089 436.852C181.341 470.476 184.437 506.937 189.392 541.443C197.436 597.822 210.056 653.451 227.126 707.78C238.596 744.192 252.352 780.405 275.374 810.028C319.386 866.673 397.298 893.076 469.504 875.829C529.326 861.536 581.201 820.948 626.929 777.411C668.628 737.71 708.619 685.607 759.671 658.608C808.379 632.879 858.738 614.015 906.091 584.228Z" fill="#1B51E5"/>
<path d="M385.4 595.78V620H392.4L391.045 594L385.4 595.78Z" fill="#AAABB0"/>
<path d="M285.4 591.78V616H292.4L291.046 590L285.4 591.78Z" fill="#AAABB0"/>
<rect x="393.4" y="553" width="9" height="42" rx="4.5" fill="#AAABB0"/>
<rect x="282.4" y="544" width="9" height="52" rx="4.5" fill="#AAABB0"/>
<path d="M414.4 300.63C414.4 300.63 423.127 296.962 424.436 300.63C425.745 304.299 426.4 336 426.4 336H418.105L414.4 300.63Z" fill="#AAABB0"/>
<path d="M318.4 300.63C318.4 300.63 309.672 296.962 308.363 300.63C307.054 304.299 306.4 336 306.4 336H314.69L318.4 300.63Z" fill="#AAABB0"/>
<path d="M319.733 268.672L318.4 296H324.4V268L319.733 268.672Z" fill="#AAABB0"/>
<path d="M314.4 337L316.144 298.421C316.144 298.421 315.491 289.872 336.173 292.503C356.856 295.133 417.4 300.393 417.4 300.393V337H314.4Z" fill="#33323D"/>
<path d="M397.4 537.732L394.113 595.883C394.113 595.883 345.904 622.26 287.4 597.18L292.659 536L397.4 537.732Z" fill="#33323D"/>
<path d="M351.4 307.171L352.491 345H420.4L416.457 295L351.4 307.171Z" fill="#444053"/>
<rect x="295.4" y="513" width="63" height="80" fill="#4C4981"/>
<path d="M335.425 545.445C335.425 545.445 344.648 538.227 346.183 540.412C347.718 542.597 340.702 552.007 337.842 550.912C334.983 549.816 335.425 545.445 335.425 545.445Z" fill="#FFB9B9"/>
<rect x="171.4" y="334" width="417" height="208" fill="#504F60"/>
<path d="M314.847 266.523C314.847 266.523 311.591 236.097 314.847 232.407C318.103 228.717 372.807 193.721 423.388 234.793C423.388 234.793 428.161 235.015 427.295 245.876C426.784 252.75 426.819 259.654 427.399 266.523C427.399 266.523 318.54 274.346 314.847 266.523Z" fill="#33323D"/>
<path opacity="0.1" d="M314.847 266.523C314.847 266.523 311.591 236.097 314.847 232.407C318.103 228.717 372.807 193.721 423.388 234.793C423.388 234.793 428.161 235.015 427.295 245.876C426.784 252.75 426.819 259.654 427.399 266.523C427.399 266.523 318.54 274.346 314.847 266.523Z" fill="black"/>
<path d="M314.847 271.523C314.847 271.523 311.591 241.097 314.847 237.407C318.103 233.717 372.807 198.721 423.388 239.793C423.388 239.793 428.161 240.015 427.295 250.876C426.784 257.75 426.819 264.654 427.399 271.523C427.399 271.523 318.54 279.346 314.847 271.523Z" fill="#33323D"/>
<path d="M429.764 257C429.764 257 433.285 270.089 432.188 272.268C431.092 274.447 431.29 280.559 431.29 280.559C431.29 280.559 431.528 284.486 429.764 284.918C428 285.35 426.46 285.572 427.887 286.881C429.314 288.19 427.887 290.153 427.887 290.153C427.887 290.153 427.114 293.21 427.887 295.173C428.66 297.136 423.369 297.954 423.818 300.408C424.267 302.862 425.747 309.786 423.818 310.009C421.889 310.231 424.478 318.732 422.741 318.732C421.003 318.732 419.768 334 419.768 334C419.768 334 407.546 323.752 399.4 326.585C399.4 326.585 400.061 318.078 402.703 315.022C405.346 311.965 404.546 304.119 404.546 304.119L417.654 265.069L429.764 257Z" fill="#4C4981"/>
<path d="M364.853 436.615C362.084 439.703 359.097 423.213 359.097 423.213C359.097 423.213 351.212 434.172 346.096 426.868C342.553 421.807 345.347 407.471 347.375 399.148C348.283 395.448 349.05 392.934 349.05 392.934L360.562 391C360.562 391 360.6 393.527 360.856 396.595C361.201 400.741 361.949 405.885 363.542 407.116C366.349 409.25 367.628 433.501 364.853 436.615Z" fill="#AE6E79"/>
<path opacity="0.1" d="M358.196 242.063C358.196 242.063 337.713 241.848 332.706 252.673C327.7 263.498 327.478 267.189 325.517 268.917C323.556 270.646 346.863 279.749 346.863 279.749L347.955 317C347.955 317 352.53 312.393 359.935 314.479C367.34 316.565 376.712 314.479 376.712 314.479C376.712 314.479 376.274 313.693 382.379 314.479C388.483 315.265 407.868 305.09 407.868 305.09C407.868 305.09 408.189 288.794 407.757 285.324C407.326 281.854 421.587 256.358 421.587 256.358C421.587 256.358 432.698 245.747 421.156 242.063C421.156 242.063 417.071 235.942 406.561 236C396.052 236.059 358.196 242.063 358.196 242.063Z" fill="black"/>
<path d="M359.161 241.063C359.161 241.063 338.7 240.848 333.699 251.673C328.698 262.498 328.476 266.189 326.517 267.917C324.558 269.646 347.84 278.749 347.84 278.749L348.93 316C348.93 316 353.501 311.393 360.898 313.479C368.295 315.565 377.657 313.479 377.657 313.479C377.657 313.479 377.22 312.693 383.318 313.479C389.416 314.265 408.78 304.09 408.78 304.09C408.78 304.09 416.393 291.744 415.962 288.281C415.531 284.818 431.194 258.606 431.194 258.606C431.194 258.606 433.59 244.747 422.053 241.063C422.053 241.063 417.973 234.942 407.474 235C396.976 235.059 359.161 241.063 359.161 241.063Z" fill="#4C4981"/>
<path opacity="0.1" d="M360.4 396.468C356.163 395.114 349.515 398.101 347.4 399C348.276 395.367 349.016 392.899 349.016 392.899L360.116 391C360.116 391 360.135 393.481 360.4 396.468Z" fill="black"/>
<path d="M333.285 268H326.98C326.98 268 325.675 281.298 326.98 285.221C328.286 289.144 328.938 288.575 328.501 291.478C328.064 294.38 331.549 298.826 331.549 298.826C331.549 298.826 331.98 309.784 334.16 313.863C336.34 317.943 331.765 336.236 331.765 336.236C333.012 339.394 334.859 342.28 337.202 344.735C340.902 348.436 342.861 362.165 341.771 367.396C340.681 372.626 344.819 374.587 344.819 374.587C344.819 374.587 346.561 399 347.214 399C347.867 399 360.484 392.462 364.4 398.124L361.352 375.679L361.574 332.313C361.574 332.313 357.436 326.861 359.616 322.068C361.796 317.276 357.873 305.939 357.873 305.939L352.214 280.664L333.285 268Z" fill="#4C4981"/>
<path d="M293.008 611.872C293.008 611.872 283.871 609.91 283.655 611.872C283.44 613.833 272.775 633.886 286.051 639.771C299.327 645.655 334.782 658.293 392.442 641.948C392.442 641.948 396.136 643.255 395.268 635.194C394.4 627.132 394.4 618.194 394.4 618.194C394.4 618.194 385.693 615.795 379.166 616.671C372.639 617.547 315.853 629.094 293.008 611.872Z" fill="#33323D"/>
<path opacity="0.1" d="M293.008 611.872C293.008 611.872 283.871 609.91 283.655 611.872C283.44 613.833 272.775 633.886 286.051 639.771C299.327 645.655 334.782 658.293 392.442 641.948C392.442 641.948 396.136 643.255 395.268 635.194C394.4 627.132 394.4 618.194 394.4 618.194C394.4 618.194 385.693 615.795 379.166 616.671C372.639 617.547 315.853 629.094 293.008 611.872Z" fill="black"/>
<path d="M293.008 608.872C293.008 608.872 283.871 606.91 283.655 608.872C283.44 610.833 272.775 630.886 286.051 636.771C299.327 642.655 334.782 655.293 392.442 638.948C392.442 638.948 396.136 640.255 395.268 632.194C394.4 624.132 394.4 615.194 394.4 615.194C394.4 615.194 385.693 612.795 379.166 613.671C372.639 614.547 315.853 626.094 293.008 608.872Z" fill="#33323D"/>
<path d="M346.449 276.298C345.888 279.47 344.616 282.519 344.42 285.73C344.224 288.942 345.471 292.594 348.453 293.853C349.285 294.1 350.091 294.426 350.861 294.826C352.01 295.598 352.48 297.051 352.721 298.414C353.041 300.173 353.118 301.967 352.949 303.746C352.786 305.537 352.401 307.464 353.289 309.027C354.848 311.797 358.914 311.389 362.008 310.61L360.944 318.804C360.859 319.453 360.807 320.186 361.283 320.627C361.738 320.945 362.303 321.067 362.849 320.964C365.538 320.796 368.305 320.426 370.609 319.018C372.913 317.61 374.629 314.989 374.192 312.349C373.683 309.287 370.498 306.854 370.929 303.779C371.262 301.398 373.604 299.886 375.145 298.057C377.931 294.709 378.081 289.623 375.895 285.834C373.709 282.045 369.486 279.697 365.14 279.269C362.732 279.029 360.226 279.321 357.961 278.49C356.364 277.908 355.133 276.617 354.633 275" fill="#444053"/>
<path d="M271.4 565.902L273.655 560.805C273.655 560.805 285.829 549.035 288.627 548.21C291.425 547.385 302.843 543.791 304.568 543.791C306.293 543.791 337.743 542 337.743 542L341.4 550.947L301.932 559.94L288.627 570L271.4 565.902Z" fill="#767D9F"/>
<path d="M367.4 432.463L365.308 448.514L364.501 454.692L355.103 456C355.103 456 354.087 453.829 352.65 450.495C348.289 440.374 340.078 419.504 344.839 415.902C351.168 411.103 352.709 427.017 352.709 427.017L359.923 423.525L367.4 432.463Z" fill="#FFB9B9"/>
<rect x="318.4" y="462" width="47" height="71" fill="white"/>
<rect opacity="0.1" x="318.4" y="462" width="47" height="71" fill="black"/>
<path d="M339.555 459.09L386.264 465.993L375.832 536.529L329.123 529.626L339.555 459.09Z" fill="white"/>
<path d="M343.952 465.817L367.994 469.37L362.625 505.674L338.583 502.12L343.952 465.817Z" fill="#1B51E5"/>
<path d="M336.005 512.452L365.133 516.756L363.967 524.64L334.839 520.336L336.005 512.452Z" fill="#1B51E5"/>
<path opacity="0.1" d="M377.4 282C392.312 282 404.4 269.912 404.4 255C404.4 240.088 392.312 228 377.4 228C362.488 228 350.4 240.088 350.4 255C350.4 269.912 362.488 282 377.4 282Z" fill="black"/>
<path d="M377.4 281C392.312 281 404.4 268.912 404.4 254C404.4 239.088 392.312 227 377.4 227C362.488 227 350.4 239.088 350.4 254C350.4 268.912 362.488 281 377.4 281Z" fill="#AE6E79"/>
<path d="M355.065 274.753C354.878 274.045 354.946 273.295 355.256 272.632C356.304 270.459 359.287 270.269 361.704 270.38C367.388 270.643 373.625 270.676 378.071 267.097C379.915 265.627 381.977 261.931 384.657 262.633C387.041 263.257 388.036 266.48 390.519 267.196C392.317 267.715 394.181 266.887 396.012 266.539C398.646 266.021 401.347 266.454 404.021 266.474C406.695 266.493 409.599 265.988 411.423 264.038C413.887 261.412 413.485 257.309 413.268 253.711C412.997 249.063 413.314 244.401 414.209 239.832C415.105 235.289 416.482 230.207 413.966 226.314C411.568 222.605 406.602 221.587 403.21 218.744C400.036 216.118 398.356 211.91 395.004 209.474C390.782 206.408 385.046 206.848 379.856 207.38L368.593 208.575C365.689 208.883 362.666 209.231 360.275 210.958C355.961 214.07 355.368 220.536 351.285 223.944C349.467 225.454 347.142 226.202 345.068 227.332C342.993 228.461 340.991 230.247 340.754 232.584C340.556 234.553 341.623 236.372 342.143 238.269C343.375 242.799 341.452 247.461 340.22 252.024C338.989 256.586 338.751 262.128 342.328 265.154C343.052 265.771 343.895 266.244 344.6 266.887C347.017 269.087 347.346 272.796 346.787 276" fill="#444053"/>
<path d="M379.9 288C380.176 288 380.4 287.105 380.4 286C380.4 284.895 380.176 284 379.9 284C379.624 284 379.4 284.895 379.4 286C379.4 287.105 379.624 288 379.9 288Z" fill="#444053"/>
<path d="M379.9 296C380.176 296 380.4 295.105 380.4 294C380.4 292.895 380.176 292 379.9 292C379.624 292 379.4 292.895 379.4 294C379.4 295.105 379.624 296 379.9 296Z" fill="#444053"/>
<path d="M365.93 437.554C366.648 436.737 367.125 434.638 367.4 431.869L359.4 422C359.4 422 362.789 441.133 365.93 437.554Z" fill="#AE6E79"/>
<path opacity="0.1" d="M374.476 597.336C374.476 597.336 361.668 616.943 321.651 614.842C283.953 612.897 265.552 594.529 266.43 588.045C267.307 581.562 264.027 565.78 272.101 561.242C276.783 558.616 282.945 560.172 287.293 561.948C290.359 563.181 293.867 562.558 296.31 560.347C300.284 556.8 307.697 552.806 319.399 555.951C320.904 556.348 322.493 556.319 323.982 555.866C328.854 554.395 340.451 551.84 348.866 557.513C351.58 559.366 355.132 559.5 357.981 557.857L358.099 557.786C362.028 555.406 380.363 577.885 380.363 577.885C380.363 577.885 381.24 595.177 374.476 597.336Z" fill="black"/>
<path d="M374.476 598.336C374.476 598.336 361.668 617.943 321.651 615.842C283.953 613.897 265.552 595.529 266.43 589.045C267.307 582.562 264.027 566.78 272.101 562.242C276.783 559.616 282.945 561.172 287.293 562.948C290.359 564.181 293.867 563.558 296.31 561.347C300.284 557.8 307.697 553.806 319.399 556.951C320.904 557.348 322.493 557.319 323.982 556.866C328.854 555.395 340.451 552.84 348.866 558.513C351.58 560.366 355.132 560.5 357.981 558.857L358.099 558.786C362.028 556.406 380.363 578.885 380.363 578.885C380.363 578.885 381.24 596.177 374.476 598.336Z" fill="#767D9F"/>
<path opacity="0.1" d="M321.4 605C335.759 605 347.4 593.359 347.4 579C347.4 564.641 335.759 553 321.4 553C307.041 553 295.4 564.641 295.4 579C295.4 593.359 307.041 605 321.4 605Z" fill="black"/>
<path d="M321.4 606C335.759 606 347.4 594.359 347.4 580C347.4 565.641 335.759 554 321.4 554C307.041 554 295.4 565.641 295.4 580C295.4 594.359 307.041 606 321.4 606Z" fill="#FFB9B9"/>
<path d="M314.079 557.616C311.321 558.354 308.603 559.764 307.257 562.081C306.445 563.478 306.162 565.155 304.987 566.317C303.325 567.969 300.521 568.001 298.271 568.928C296.021 569.855 294.537 573.119 296.74 574.15C294.444 574.268 292.742 576.363 292.459 578.445C292.175 580.527 292.973 582.603 293.745 584.588C296.265 591.011 298.977 597.714 304.532 602.283C313.584 609.738 327.227 609.392 339.387 608.602C340.38 608.635 341.365 608.41 342.243 607.949C343.563 607.088 343.728 605.436 343.945 603.987C344.863 597.799 348.254 592.179 350.47 586.272C352.687 580.364 353.598 573.426 349.863 568.197C344.368 560.443 323.328 555.136 314.079 557.616Z" fill="#B96B6B"/>
<path opacity="0.1" d="M364.4 448.367L363.635 454.667L354.725 456C354.725 456 353.762 453.787 352.4 450.387L364.257 448L364.4 448.367Z" fill="black"/>
<path d="M374.048 585L379.389 578.688L378.32 543.875C378.845 541.363 379.203 538.818 379.389 536.257C379.6 532.556 376.719 524.292 376.719 524.292C377.166 522.637 377.773 521.032 378.531 519.5C379.812 516.889 376.725 511.014 376.725 511.014C376.725 511.014 372.127 495.785 374.048 488.167C375.969 480.549 373.581 476.201 373.581 476.201C373.581 476.201 371.705 467.715 371.916 464.236C372.127 460.757 367.645 457.486 367.645 457.486L364.232 449L350.574 451.611V480.986C350.574 480.986 351.425 509.056 350.574 514.5C349.722 519.944 352.277 525.16 352.277 525.16C352.277 525.16 350.785 533.209 352.066 536.257C353.346 539.305 355.908 546.701 355.908 546.701C355.432 549.345 355.579 552.065 356.337 554.639C357.617 558.451 356.337 560.625 356.337 560.625L374.048 585Z" fill="#767D9F"/>
<g opacity="0.1">
<path d="M413.821 238.406C413.082 242.169 412.751 245.998 412.832 249.829C412.888 246.643 413.228 243.469 413.847 240.341C414.424 237.486 415.158 234.414 415 231.566C414.759 233.868 414.365 236.153 413.821 238.406Z" fill="black"/>
<path d="M344.576 264.943C343.875 264.3 343.036 263.85 342.316 263.239C340.402 261.639 339.597 259.318 339.439 256.811C339.249 260.025 339.918 263.136 342.316 265.168C343.036 265.779 343.875 266.241 344.576 266.871C346.041 268.294 346.891 270.217 346.948 272.239C347.138 269.539 346.581 266.73 344.576 264.943Z" fill="black"/>
<path d="M342.486 240.939C342.6 239.581 342.481 238.214 342.132 236.895C341.752 235.519 341.071 234.176 340.822 232.794C340.822 232.941 340.769 233.096 340.75 233.256C340.56 235.185 341.621 236.966 342.132 238.824C342.32 239.516 342.439 240.224 342.486 240.939Z" fill="black"/>
<path d="M411.05 262.108C409.235 264.036 406.345 264.512 403.685 264.493C401.025 264.474 398.333 264.049 395.719 264.564C393.897 264.924 392.043 265.727 390.254 265.206C387.784 264.506 386.795 261.349 384.43 260.739C381.737 260.044 379.686 263.664 377.878 265.104C373.456 268.575 367.251 268.543 361.597 268.318C359.193 268.209 356.225 268.395 355.19 270.529C354.874 271.177 354.806 271.914 355 272.606L346.993 273.84C346.963 274.487 346.891 275.131 346.777 275.769L355 274.483C354.806 273.791 354.874 273.054 355.19 272.406C356.225 270.272 359.193 270.086 361.597 270.195C367.251 270.452 373.456 270.484 377.878 266.981C379.713 265.541 381.763 261.921 384.43 262.616C386.795 263.22 387.784 266.383 390.254 267.084C392.043 267.585 393.897 266.781 395.719 266.441C398.339 265.926 401.025 266.351 403.685 266.37C406.345 266.389 409.235 265.894 411.05 263.985C412.864 262.076 413.126 259.228 413.015 256.451C412.936 258.604 412.484 260.597 411.05 262.108Z" fill="black"/>
</g>
<g opacity="0.1">
<path d="M350.088 292.221C349.326 291.811 348.526 291.479 347.7 291.23C346.296 290.579 345.181 289.415 344.575 287.968C345.06 290.246 346.289 292.32 348.347 293.211C349.173 293.461 349.973 293.792 350.735 294.202C351.222 294.553 351.616 295.023 351.88 295.569C351.621 294.275 351.149 292.954 350.088 292.221Z" fill="black"/>
<path d="M361.139 308.288C358.156 309.06 354.261 309.463 352.624 306.881C352.675 307.503 352.851 308.108 353.142 308.658C354.539 311.2 357.956 311.114 360.861 310.487L361.139 308.288Z" fill="black"/>
<path d="M373.226 310.097C373.641 312.778 371.932 315.453 369.668 316.859C367.403 318.266 364.64 318.656 361.974 318.841C361.55 318.897 361.12 318.847 360.719 318.695C360.47 319.266 360.576 319.932 360.989 320.393C361.401 320.854 362.042 321.022 362.621 320.822C365.287 320.65 368.031 320.274 370.315 318.841C372.599 317.408 374.307 314.74 373.867 312.052C373.743 311.373 373.527 310.716 373.226 310.097V310.097Z" fill="black"/>
<path d="M376.099 286.192C376.9 289.445 376.183 292.894 374.158 295.536C372.631 297.425 370.308 298.937 369.978 301.36C369.868 302.475 370.094 303.597 370.625 304.576C370.567 304.167 370.567 303.751 370.625 303.342C370.955 300.918 373.278 299.379 374.805 297.517C377.316 294.42 377.665 289.857 376.099 286.192Z" fill="black"/>
</g>
<g opacity="0.1">
<path d="M298.843 569.686C301.061 568.772 303.833 568.739 305.483 567.092C306.643 565.937 306.924 564.27 307.726 562.889C309.03 560.579 311.737 559.185 314.463 558.452C323.593 555.987 344.411 561.254 349.837 568.889C351.427 571.198 352.294 573.925 352.328 576.724C352.537 573.493 351.663 570.283 349.843 567.598C344.417 559.963 323.62 554.696 314.47 557.161C311.743 557.894 309.057 559.289 307.733 561.598C306.93 562.979 306.65 564.646 305.489 565.801C303.839 567.442 301.067 567.475 298.85 568.396C297.161 569.09 295.909 571.139 296.365 572.515C296.733 571.256 297.64 570.221 298.843 569.686Z" fill="black"/>
<path d="M293.104 579.111C293.378 577.036 295.061 574.96 297.337 574.843C296.853 574.643 296.486 574.235 296.339 573.734C294.575 574.386 293.319 575.957 293.078 577.814C293.016 578.342 293.016 578.875 293.078 579.403C293.104 579.306 293.104 579.209 293.104 579.111Z" fill="black"/>
</g>
<rect x="371.4" y="344" width="60" height="77" fill="white"/>
<rect opacity="0.1" x="371.4" y="344" width="60" height="77" fill="black"/>
<path d="M394.869 357.758L453.381 347.697L466.506 423.97L407.994 434.031L394.869 357.758Z" fill="white"/>
<path d="M409.05 409.753L422.797 407.39L425.881 425.309L412.134 427.673L409.05 409.753Z" fill="#1B51E5"/>
<path d="M428.073 406.479L441.82 404.115L444.904 422.035L431.157 424.398L428.073 406.479Z" fill="#1B51E5"/>
<path d="M407.053 386.137L455.263 377.862L458.356 395.862L410.145 404.138L407.053 386.137Z" fill="#1B51E5"/>
<path d="M403.034 364.653L451.245 356.378L451.935 360.394L403.724 368.669L403.034 364.653Z" fill="#1B51E5"/>
<path d="M404.615 372.04L452.826 363.765L453.516 367.781L405.305 376.056L404.615 372.04Z" fill="#1B51E5"/>
<path d="M404.452 322C404.452 322 377.765 349.86 391.163 356.938C404.56 364.016 413.282 333.39 413.282 333.39L415.4 326.424L404.452 322Z" fill="#AE6E79"/>
<path opacity="0.1" d="M402.754 319.992L399.4 327.539C399.4 327.539 415.942 329.905 419.4 335L417.35 321.683L414.917 316L402.754 319.992Z" fill="black"/>
<path d="M402.754 318.992L399.4 326.539C399.4 326.539 415.942 328.905 419.4 334L417.35 320.683L414.917 315L402.754 318.992Z" fill="#4C4981"/>
<path d="M503.727 456.14L503.4 456.52L503.852 456.86L504.34 456.79L504.4 456.22L503.727 456.14Z" fill="#464A5F"/>
<path opacity="0.1" d="M503.727 456.14L503.4 456.52L503.852 456.86L504.34 456.79L504.4 456.22L503.727 456.14Z" fill="black"/>
<path d="M504.4 456.66L503.84 457L503.4 456.491L503.67 456.075L503.92 456L504.4 456.66Z" fill="#9C9CA1"/>
<path opacity="0.1" d="M504.4 456.66L503.84 457L503.4 456.491L503.67 456.075L503.92 456L504.4 456.66Z" fill="black"/>
<path d="M567.4 410.99L540.707 372.379C540.229 371.683 539.495 371.206 538.666 371.053C537.836 370.9 536.98 371.083 536.286 371.563L476.784 412.466C475.335 413.462 474.964 415.446 475.956 416.899L502.577 456L567.4 410.99Z" fill="#9C9CA1"/>
<path opacity="0.1" d="M567.4 410.99L540.707 372.379C540.229 371.683 539.495 371.206 538.666 371.053C537.836 370.9 536.98 371.083 536.286 371.563L476.784 412.466C475.335 413.462 474.964 415.446 475.956 416.899L502.577 456L567.4 410.99Z" fill="black"/>
<path d="M568.4 410.969L541.707 372.379C541.229 371.683 540.493 371.206 539.663 371.053C538.832 370.9 537.975 371.083 537.28 371.563L477.786 412.47C476.338 413.466 475.965 415.446 476.951 416.901L503.572 456L568.4 410.969Z" fill="#9C9CA1"/>
<path d="M590.887 418.191L568.851 411L504.4 456.39L526.787 463.831C527.803 464.167 528.915 463.996 529.788 463.371L591.069 419.409C591.304 419.275 591.433 419.007 591.393 418.736C591.352 418.465 591.151 418.248 590.887 418.191Z" fill="#464A5F"/>
<path opacity="0.1" d="M590.887 418.191L568.851 411L504.4 456.39L526.787 463.831C527.803 464.167 528.915 463.996 529.788 463.371L591.069 419.409C591.304 419.275 591.433 419.007 591.393 418.736C591.352 418.465 591.151 418.248 590.887 418.191Z" fill="black"/>
<path d="M590.903 418.199L568.863 411L504.4 456.398L526.791 463.827C527.805 464.168 528.92 463.999 529.792 463.372L591.085 419.404C591.311 419.266 591.432 419.004 591.392 418.739C591.353 418.475 591.159 418.261 590.903 418.199Z" fill="#464A5F"/>
<g opacity="0.1">
<path d="M557.847 409.688L556.216 407.346C556.012 407.064 555.623 406.992 555.332 407.183L552.907 408.803C552.625 409.003 552.548 409.389 552.732 409.681L554.233 411.991C554.429 412.278 554.815 412.362 555.111 412.18L557.665 410.573C557.954 410.375 558.035 409.984 557.847 409.688Z" fill="black"/>
<path d="M553.492 412.707L551.854 410.371C551.651 410.089 551.261 410.017 550.97 410.208L548.552 411.841C548.268 412.039 548.188 412.425 548.37 412.72L549.872 415.029C550.065 415.319 550.452 415.405 550.749 415.225L553.31 413.618C553.457 413.522 553.558 413.372 553.592 413.2C553.627 413.029 553.591 412.851 553.492 412.707Z" fill="black"/>
<path d="M548.916 415.875L547.278 413.54C547.075 413.257 546.685 413.186 546.394 413.377L543.97 415.01C543.683 415.21 543.606 415.6 543.794 415.895L545.296 418.204C545.491 418.492 545.878 418.575 546.173 418.393L548.728 416.786C548.875 416.692 548.978 416.542 549.014 416.37C549.049 416.199 549.014 416.02 548.916 415.875Z" fill="black"/>
<path d="M544.282 419.089L542.644 416.747C542.441 416.469 542.056 416.397 541.766 416.584L539.342 418.224C539.059 418.423 538.982 418.809 539.166 419.102L540.668 421.412C540.861 421.698 541.243 421.783 541.539 421.607L544.1 419.994C544.244 419.898 544.345 419.749 544.379 419.579C544.413 419.409 544.378 419.233 544.282 419.089Z" fill="black"/>
<path d="M539.654 422.297L538.016 419.961C537.812 419.679 537.423 419.607 537.132 419.798L534.714 421.431C534.429 421.629 534.349 422.015 534.532 422.31L536.033 424.619C536.227 424.909 536.613 424.995 536.911 424.814L539.472 423.201C539.616 423.106 539.717 422.956 539.751 422.787C539.785 422.617 539.75 422.441 539.654 422.297Z" fill="black"/>
<path d="M535.227 425.797L533.193 422.895C533.149 422.83 533.082 422.785 533.005 422.77C532.928 422.756 532.848 422.773 532.783 422.817L529.806 424.827C529.74 424.87 529.694 424.938 529.678 425.015C529.662 425.092 529.678 425.172 529.722 425.237L531.587 428.107C531.676 428.244 531.859 428.284 531.997 428.198L535.143 426.246C535.219 426.202 535.273 426.127 535.289 426.041C535.305 425.954 535.283 425.865 535.227 425.797Z" fill="black"/>
<path d="M530.599 429.004L528.552 426.103C528.507 426.037 528.438 425.992 528.36 425.977C528.282 425.963 528.201 425.98 528.136 426.025L525.159 428.035C525.026 428.128 524.992 428.31 525.081 428.445L526.946 431.314C526.987 431.383 527.054 431.432 527.131 431.449C527.209 431.466 527.29 431.45 527.356 431.405L530.495 429.453C530.577 429.415 530.636 429.342 530.657 429.254C530.677 429.167 530.656 429.074 530.599 429.004Z" fill="black"/>
<path d="M526.498 431.848L524.463 428.972C524.369 428.841 524.187 428.81 524.054 428.9L521.077 430.904C520.941 430.997 520.904 431.182 520.992 431.321L522.858 434.19C522.949 434.324 523.128 434.364 523.267 434.281L526.413 432.329C526.501 432.287 526.563 432.206 526.58 432.11C526.597 432.014 526.566 431.916 526.498 431.848Z" fill="black"/>
<path d="M521.909 435.022L519.874 432.121C519.78 431.99 519.598 431.959 519.465 432.049L516.488 434.053C516.421 434.097 516.375 434.165 516.359 434.244C516.343 434.322 516.359 434.403 516.403 434.469L518.269 437.339C518.36 437.473 518.539 437.513 518.678 437.43L521.824 435.478C521.901 435.433 521.955 435.357 521.971 435.27C521.987 435.182 521.965 435.092 521.909 435.022Z" fill="black"/>
<path d="M517.463 438.08L515.428 435.179C515.385 435.113 515.317 435.068 515.24 435.054C515.163 435.039 515.083 435.056 515.019 435.101L512.042 437.111C511.976 437.153 511.929 437.221 511.914 437.298C511.898 437.375 511.913 437.455 511.957 437.521L513.823 440.39C513.912 440.527 514.094 440.568 514.232 440.481L517.378 438.529C517.455 438.486 517.508 438.411 517.525 438.324C517.541 438.238 517.518 438.149 517.463 438.08Z" fill="black"/>
<path d="M513.017 441.19L511.002 438.282C510.907 438.151 510.726 438.12 510.593 438.21L507.616 440.214C507.549 440.258 507.503 440.327 507.487 440.405C507.471 440.483 507.487 440.564 507.531 440.631L509.397 443.5C509.487 443.634 509.667 443.674 509.806 443.591L512.952 441.639C513.025 441.592 513.075 441.516 513.087 441.43C513.1 441.343 513.074 441.256 513.017 441.19Z" fill="black"/>
<path d="M508.571 444.267L506.536 441.366C506.493 441.301 506.425 441.256 506.348 441.241C506.271 441.226 506.191 441.243 506.127 441.288L503.15 443.285C503.084 443.328 503.038 443.395 503.022 443.472C503.006 443.549 503.022 443.63 503.065 443.695L504.931 446.564C505.02 446.701 505.202 446.742 505.34 446.655L508.486 444.703C508.559 444.66 508.609 444.587 508.625 444.504C508.642 444.421 508.622 444.335 508.571 444.267Z" fill="black"/>
<path d="M554.922 405.453L553.284 403.11C553.081 402.828 552.691 402.756 552.4 402.948L550.002 404.587C549.717 404.785 549.637 405.171 549.82 405.466L551.321 407.775C551.517 408.063 551.903 408.146 552.199 407.964L554.76 406.357C555.054 406.152 555.127 405.747 554.922 405.453Z" fill="black"/>
<path d="M548.52 396.194L546.882 393.839C546.679 393.561 546.294 393.49 546.004 393.677L543.58 395.31C543.295 395.507 543.215 395.893 543.398 396.188L544.899 398.498C545.093 398.787 545.479 398.873 545.777 398.693L548.338 397.086C548.631 396.888 548.711 396.492 548.52 396.194Z" fill="black"/>
<path d="M550.561 408.471L548.923 406.136C548.72 405.857 548.335 405.786 548.046 405.973L545.621 407.606C545.338 407.806 545.261 408.191 545.446 408.484L546.941 410.794C547.134 411.084 547.52 411.17 547.818 410.989L550.379 409.382C550.525 409.287 550.627 409.136 550.661 408.965C550.695 408.794 550.659 408.616 550.561 408.471Z" fill="black"/>
<path d="M545.985 411.64L544.347 409.304C544.143 409.022 543.754 408.95 543.463 409.141L541.045 410.755C540.756 410.953 540.676 411.344 540.863 411.64L542.365 413.949C542.56 414.237 542.946 414.32 543.242 414.138L545.803 412.531C546.096 412.333 546.176 411.937 545.985 411.64Z" fill="black"/>
<path d="M541.35 414.854L539.719 412.512C539.515 412.229 539.126 412.158 538.835 412.349L536.41 414.008C536.128 414.207 536.051 414.593 536.235 414.886L537.736 417.196C537.932 417.483 538.318 417.566 538.614 417.385L541.168 415.778C541.318 415.682 541.423 415.529 541.457 415.355C541.491 415.18 541.453 414.999 541.35 414.854Z" fill="black"/>
<path d="M544.262 399.363L542.624 397.027C542.421 396.749 542.036 396.678 541.747 396.865L539.322 398.498C539.038 398.695 538.958 399.081 539.14 399.376L540.642 401.686C540.835 401.975 541.222 402.061 541.519 401.881L544.08 400.274C544.227 400.178 544.328 400.028 544.362 399.857C544.397 399.685 544.361 399.507 544.262 399.363Z" fill="black"/>
<path d="M539.686 402.538L538.048 400.196C537.845 399.913 537.455 399.842 537.164 400.033L534.746 401.647C534.462 401.844 534.382 402.23 534.564 402.525L536.066 404.835C536.261 405.122 536.648 405.205 536.943 405.023L539.504 403.416C539.789 403.219 539.869 402.832 539.686 402.538Z" fill="black"/>
<path d="M535.052 405.745L533.414 403.41C533.213 403.129 532.827 403.055 532.536 403.241L530.112 404.9C529.829 405.099 529.752 405.485 529.936 405.778L531.438 408.088C531.631 408.377 532.018 408.463 532.315 408.283L534.87 406.669C535.02 406.574 535.124 406.421 535.159 406.246C535.193 406.072 535.154 405.891 535.052 405.745Z" fill="black"/>
<path d="M536.722 418.061L535.084 415.726C534.883 415.445 534.498 415.371 534.207 415.556L531.802 417.196C531.519 417.395 531.442 417.781 531.626 418.074L533.102 420.384C533.295 420.67 533.677 420.755 533.973 420.579L536.534 418.966C536.679 418.871 536.781 418.723 536.816 418.553C536.852 418.383 536.818 418.206 536.722 418.061Z" fill="black"/>
<path d="M532.094 421.269L530.456 418.933C530.253 418.651 529.863 418.579 529.572 418.77L527.154 420.403C526.87 420.601 526.79 420.987 526.972 421.282L528.474 423.591C528.667 423.881 529.054 423.967 529.351 423.787L531.912 422.18C532.059 422.084 532.16 421.934 532.194 421.762C532.229 421.591 532.193 421.413 532.094 421.269Z" fill="black"/>
<path d="M527.668 424.769L525.634 421.867C525.59 421.802 525.522 421.757 525.445 421.742C525.368 421.728 525.288 421.745 525.224 421.789L522.247 423.8C522.181 423.842 522.135 423.91 522.119 423.987C522.103 424.064 522.119 424.144 522.163 424.209L524.028 427.079C524.069 427.146 524.136 427.194 524.214 427.211C524.291 427.228 524.371 427.213 524.438 427.17L527.584 425.218C527.66 425.174 527.713 425.099 527.73 425.013C527.746 424.927 527.723 424.837 527.668 424.769Z" fill="black"/>
<path d="M523.566 427.612L521.532 424.704C521.437 424.573 521.256 424.542 521.122 424.632L518.152 426.636C518.016 426.73 517.979 426.914 518.067 427.053L519.933 429.922C520.024 430.056 520.203 430.096 520.342 430.013L523.488 428.061C523.568 428.02 523.623 427.944 523.639 427.856C523.654 427.768 523.627 427.678 523.566 427.612Z" fill="black"/>
<path d="M518.977 430.787L516.943 427.885C516.848 427.755 516.667 427.723 516.533 427.814L513.556 429.818C513.49 429.86 513.444 429.928 513.428 430.005C513.412 430.082 513.428 430.162 513.472 430.227L515.337 433.103C515.428 433.237 515.608 433.277 515.747 433.194L518.893 431.242C518.97 431.198 519.023 431.122 519.039 431.034C519.056 430.947 519.033 430.856 518.977 430.787Z" fill="black"/>
<path d="M514.531 433.871L512.497 430.969C512.453 430.904 512.385 430.859 512.308 430.844C512.232 430.83 512.152 430.846 512.087 430.891L509.11 432.875C509.044 432.918 508.998 432.985 508.982 433.063C508.966 433.14 508.982 433.22 509.026 433.285L510.891 436.154C510.98 436.292 511.162 436.332 511.301 436.246L514.447 434.294C514.515 434.25 514.563 434.18 514.579 434.1C514.595 434.021 514.578 433.938 514.531 433.871Z" fill="black"/>
<path d="M542.936 407.235L541.298 404.9C541.095 404.621 540.71 404.55 540.421 404.737L537.996 406.376C537.714 406.576 537.637 406.962 537.821 407.255L539.322 409.564C539.517 409.848 539.899 409.931 540.193 409.753L542.754 408.146C542.901 408.051 543.002 407.9 543.037 407.729C543.071 407.558 543.035 407.38 542.936 407.235Z" fill="black"/>
<path d="M538.302 410.449L536.664 408.107C536.46 407.825 536.071 407.753 535.78 407.944L533.362 409.584C533.077 409.781 532.997 410.168 533.18 410.462L534.681 412.772C534.875 413.061 535.261 413.148 535.559 412.967L538.12 411.354C538.264 411.258 538.365 411.109 538.399 410.939C538.433 410.769 538.398 410.593 538.302 410.449Z" fill="black"/>
<path d="M533.68 413.657L532.042 411.321C531.839 411.039 531.449 410.967 531.158 411.158L528.734 412.791C528.451 412.991 528.374 413.377 528.558 413.67L530.06 415.979C530.253 416.269 530.64 416.355 530.937 416.174L533.492 414.561C533.637 414.467 533.739 414.318 533.774 414.148C533.81 413.978 533.776 413.801 533.68 413.657Z" fill="black"/>
<path d="M529.046 416.864L527.408 414.528C527.205 414.25 526.82 414.179 526.53 414.366L524.106 415.999C523.823 416.198 523.746 416.584 523.93 416.877L525.432 419.213C525.625 419.499 526.007 419.584 526.303 419.408L528.864 417.801C529.018 417.705 529.125 417.55 529.159 417.372C529.194 417.195 529.153 417.01 529.046 416.864Z" fill="black"/>
<path d="M524.652 420.364L522.617 417.463C522.574 417.397 522.506 417.352 522.429 417.338C522.352 417.323 522.272 417.34 522.208 417.385L519.231 419.395C519.096 419.486 519.059 419.668 519.146 419.805L521.012 422.681C521.055 422.747 521.122 422.793 521.199 422.809C521.276 422.825 521.356 422.809 521.421 422.765L524.567 420.813C524.644 420.77 524.697 420.695 524.714 420.608C524.73 420.522 524.707 420.433 524.652 420.364Z" fill="black"/>
<path d="M520.524 423.207L518.49 420.299C518.393 420.168 518.209 420.136 518.074 420.228L515.103 422.232C514.968 422.325 514.93 422.509 515.019 422.648L516.884 425.517C516.973 425.654 517.156 425.695 517.294 425.608L520.44 423.656C520.516 423.613 520.57 423.538 520.586 423.452C520.602 423.365 520.58 423.276 520.524 423.207Z" fill="black"/>
<path d="M515.935 426.369L513.901 423.461C513.804 423.33 513.62 423.298 513.485 423.39L510.508 425.394C510.375 425.489 510.338 425.67 510.423 425.81L512.295 428.679C512.384 428.816 512.566 428.857 512.705 428.77L515.844 426.818C515.924 426.778 515.98 426.703 515.998 426.616C516.016 426.528 515.993 426.438 515.935 426.369Z" fill="black"/>
<path d="M511.489 429.466L509.455 426.565C509.41 426.499 509.341 426.454 509.263 426.439C509.185 426.425 509.104 426.442 509.039 426.487L506.062 428.497C505.929 428.59 505.895 428.772 505.984 428.907L507.849 431.776C507.89 431.845 507.957 431.894 508.034 431.911C508.112 431.928 508.193 431.912 508.259 431.867L511.398 429.915C511.478 429.875 511.534 429.8 511.552 429.713C511.57 429.625 511.547 429.535 511.489 429.466Z" fill="black"/>
<path d="M510.085 436.948L508.051 434.047C507.956 433.916 507.775 433.884 507.641 433.975L504.664 435.979C504.598 436.021 504.552 436.089 504.536 436.166C504.52 436.243 504.536 436.323 504.58 436.389L506.445 439.264C506.536 439.399 506.716 439.439 506.855 439.355L510.001 437.404C510.078 437.359 510.131 437.283 510.147 437.195C510.164 437.108 510.141 437.018 510.085 436.948Z" fill="black"/>
<path d="M505.639 440.032L503.605 437.13C503.561 437.065 503.494 437.02 503.417 437.006C503.34 436.991 503.26 437.008 503.195 437.052L500.218 439.063C500.152 439.105 500.106 439.173 500.09 439.25C500.074 439.327 500.09 439.407 500.134 439.473L501.999 442.342C502.088 442.479 502.27 442.519 502.409 442.433L505.555 440.481C505.631 440.438 505.685 440.363 505.701 440.276C505.717 440.19 505.695 440.1 505.639 440.032Z" fill="black"/>
<path d="M512.62 421.594L510.67 418.861C510.543 418.685 510.298 418.642 510.118 418.764L507.31 420.657C507.222 420.715 507.16 420.807 507.139 420.911C507.119 421.014 507.14 421.122 507.199 421.21L508.954 423.91C509.009 424 509.098 424.064 509.201 424.088C509.304 424.111 509.412 424.091 509.5 424.034L512.471 422.167C512.57 422.114 512.642 422.022 512.671 421.913C512.699 421.804 512.681 421.689 512.62 421.594Z" fill="black"/>
<path d="M508.175 424.678L506.257 421.945C506.198 421.858 506.106 421.798 506.002 421.778C505.899 421.759 505.791 421.781 505.705 421.841L502.897 423.767C502.809 423.824 502.747 423.914 502.727 424.017C502.706 424.12 502.727 424.227 502.786 424.314L504.541 427.02C504.66 427.202 504.901 427.256 505.087 427.144L508.058 425.276C508.159 425.218 508.23 425.119 508.253 425.004C508.275 424.889 508.247 424.77 508.175 424.678Z" fill="black"/>
<path d="M503.728 427.762L501.811 425.023C501.683 424.846 501.439 424.803 501.258 424.925L498.45 426.818C498.362 426.877 498.301 426.968 498.28 427.072C498.259 427.176 498.281 427.284 498.34 427.371L500.095 430.071C500.15 430.161 500.239 430.225 500.342 430.249C500.445 430.272 500.553 430.253 500.641 430.195L503.611 428.328C503.705 428.27 503.77 428.177 503.792 428.07C503.814 427.963 503.791 427.851 503.728 427.762Z" fill="black"/>
<path d="M499.341 430.924L497.306 428.015C497.212 427.885 497.03 427.853 496.897 427.944L493.92 429.948C493.784 430.041 493.747 430.225 493.835 430.364L495.701 433.233C495.792 433.367 495.971 433.407 496.11 433.324L499.256 431.373C499.337 431.333 499.394 431.257 499.41 431.169C499.427 431.081 499.401 430.99 499.341 430.924Z" fill="black"/>
<path d="M551.952 400.898L550.19 398.394C549.985 398.113 549.596 398.045 549.306 398.237L542.429 403.058C542.153 403.259 542.079 403.64 542.26 403.93L543.918 406.494C544.014 406.637 544.164 406.736 544.333 406.769C544.503 406.802 544.678 406.766 544.821 406.669L551.802 401.783C552.08 401.575 552.146 401.186 551.952 400.898Z" fill="black"/>
<path d="M507.03 432.453L504.872 429.401C504.828 429.335 504.758 429.29 504.68 429.277C504.601 429.263 504.521 429.282 504.456 429.33L497.033 434.534C496.902 434.625 496.867 434.805 496.955 434.938L498.983 438.08C499.027 438.149 499.097 438.197 499.177 438.213C499.256 438.228 499.339 438.211 499.406 438.165L506.952 432.875C507.09 432.78 507.125 432.591 507.03 432.453Z" fill="black"/>
<path d="M530.645 409.115L528.656 406.201C528.563 406.068 528.382 406.033 528.246 406.123L511.762 417.261C511.628 417.352 511.59 417.534 511.678 417.671L513.712 420.794C513.756 420.862 513.826 420.91 513.906 420.926C513.985 420.942 514.068 420.925 514.135 420.878L530.567 409.532C530.633 409.487 530.678 409.418 530.692 409.34C530.707 409.262 530.69 409.181 530.645 409.115Z" fill="black"/>
</g>
<path d="M558.297 409.5L556.76 407.258C556.569 406.988 556.204 406.919 555.931 407.102L553.663 408.672C553.395 408.861 553.32 409.23 553.492 409.512L554.901 411.723C555.082 412 555.445 412.083 555.724 411.91L558.126 410.365C558.262 410.274 558.356 410.131 558.388 409.969C558.42 409.806 558.387 409.638 558.297 409.5Z" fill="#464A5F"/>
<path d="M553.294 412.495L551.759 410.256C551.568 409.989 551.207 409.92 550.936 410.1L548.663 411.666C548.395 411.855 548.32 412.225 548.492 412.508L549.9 414.722C550.081 415 550.443 415.083 550.722 414.91L553.124 413.369C553.261 413.277 553.356 413.133 553.388 412.969C553.42 412.804 553.386 412.634 553.294 412.495Z" fill="#464A5F"/>
<path d="M549.294 415.496L547.759 413.258C547.568 412.988 547.202 412.919 546.93 413.103L544.663 414.673C544.395 414.862 544.32 415.232 544.492 415.515L545.9 417.727C546.083 418.002 546.445 418.082 546.722 417.908L549.124 416.368C549.261 416.277 549.356 416.133 549.388 415.969C549.42 415.805 549.386 415.634 549.294 415.496Z" fill="#464A5F"/>
<path d="M544.281 419.483L542.751 417.254C542.561 416.989 542.202 416.921 541.931 417.099L539.667 418.659C539.532 418.752 539.44 418.896 539.41 419.059C539.381 419.222 539.416 419.39 539.509 419.526L540.911 421.725C541.092 422 541.453 422.082 541.731 421.91L544.117 420.375C544.26 420.283 544.358 420.134 544.39 419.965C544.421 419.796 544.381 419.621 544.281 419.483Z" fill="#464A5F"/>
<path d="M540.297 421.495L538.759 419.256C538.568 418.989 538.207 418.92 537.935 419.1L535.659 420.666C535.393 420.857 535.321 421.227 535.494 421.508L536.898 423.722C537.079 424 537.442 424.083 537.721 423.91L540.126 422.363C540.262 422.271 540.356 422.128 540.388 421.965C540.42 421.803 540.387 421.633 540.297 421.495Z" fill="#464A5F"/>
<path d="M536.34 425.767L534.531 423.119C534.492 423.059 534.432 423.018 534.364 423.005C534.295 422.991 534.224 423.007 534.167 423.047L531.519 424.882C531.461 424.921 531.419 424.983 531.405 425.053C531.391 425.124 531.405 425.197 531.444 425.256L533.103 427.875C533.182 428 533.344 428.038 533.468 427.958L536.265 426.177C536.333 426.137 536.381 426.069 536.395 425.99C536.41 425.911 536.39 425.83 536.34 425.767Z" fill="#464A5F"/>
<path d="M530.343 428.765L528.533 426.119C528.493 426.059 528.432 426.018 528.362 426.005C528.293 425.991 528.221 426.007 528.163 426.048L525.52 427.881C525.461 427.92 525.419 427.981 525.405 428.052C525.391 428.122 525.405 428.195 525.444 428.255L527.104 430.877C527.142 430.938 527.202 430.98 527.271 430.994C527.339 431.009 527.411 430.995 527.469 430.954L530.268 429.175C530.335 429.134 530.381 429.065 530.395 428.987C530.41 428.909 530.391 428.828 530.343 428.765Z" fill="#464A5F"/>
<path d="M527.352 431.781L525.538 429.113C525.453 428.993 525.292 428.964 525.173 429.047L522.518 430.862C522.397 430.948 522.364 431.117 522.443 431.244L524.106 433.877C524.187 434 524.347 434.037 524.471 433.96L527.277 432.169C527.338 432.129 527.381 432.065 527.395 431.992C527.409 431.919 527.394 431.843 527.352 431.781Z" fill="#464A5F"/>
<path d="M522.327 434.744L520.523 432.112C520.438 431.993 520.278 431.964 520.16 432.047L517.52 433.877C517.46 433.917 517.419 433.98 517.405 434.051C517.391 434.122 517.405 434.197 517.445 434.257L519.099 436.877C519.179 437 519.339 437.036 519.462 436.961L522.252 435.178C522.328 435.14 522.381 435.066 522.396 434.981C522.411 434.895 522.385 434.807 522.327 434.744Z" fill="#464A5F"/>
<path d="M517.34 437.766L515.531 435.119C515.492 435.059 515.432 435.018 515.364 435.005C515.295 434.991 515.224 435.007 515.167 435.047L512.519 436.882C512.461 436.92 512.419 436.982 512.405 437.052C512.391 437.123 512.405 437.196 512.444 437.255L514.103 439.873C514.14 439.935 514.2 439.978 514.268 439.994C514.337 440.009 514.409 439.996 514.468 439.956L517.265 438.175C517.333 438.136 517.381 438.067 517.395 437.989C517.41 437.91 517.39 437.828 517.34 437.766Z" fill="#464A5F"/>
<path d="M512.34 440.768L510.531 438.112C510.446 437.993 510.285 437.964 510.166 438.047L507.518 439.877C507.397 439.962 507.364 440.13 507.443 440.257L509.102 442.877C509.183 443 509.343 443.036 509.467 442.961L512.265 441.178C512.333 441.138 512.381 441.07 512.395 440.991C512.41 440.912 512.39 440.831 512.34 440.768Z" fill="#464A5F"/>
<path d="M508.34 444.766L506.531 442.119C506.492 442.059 506.432 442.018 506.364 442.005C506.295 441.991 506.224 442.007 506.167 442.047L503.519 443.882C503.461 443.92 503.419 443.982 503.405 444.052C503.391 444.123 503.405 444.196 503.444 444.255L505.103 446.873C505.14 446.935 505.2 446.978 505.268 446.994C505.337 447.009 505.409 446.996 505.468 446.956L508.265 445.175C508.333 445.136 508.381 445.067 508.395 444.989C508.41 444.91 508.39 444.828 508.34 444.766Z" fill="#464A5F"/>
<path d="M555.297 404.498L553.759 402.256C553.568 401.989 553.207 401.921 552.935 402.1L550.659 403.67C550.393 403.861 550.321 404.23 550.494 404.511L551.898 406.723C552.079 407 552.442 407.083 552.721 406.91L555.126 405.365C555.262 405.273 555.356 405.13 555.388 404.968C555.42 404.805 555.387 404.636 555.297 404.498Z" fill="#464A5F"/>
<path d="M549.294 395.497L547.757 393.256C547.566 392.989 547.205 392.92 546.934 393.1L544.658 394.667C544.393 394.858 544.321 395.228 544.494 395.509L545.903 397.725C546.084 397.999 546.442 398.081 546.72 397.912L549.123 396.371C549.261 396.279 549.356 396.135 549.388 395.97C549.42 395.806 549.386 395.635 549.294 395.497Z" fill="#464A5F"/>
<path d="M551.3 408.509L549.761 406.256C549.57 405.989 549.208 405.92 548.937 406.1L546.659 407.667C546.393 407.858 546.321 408.228 546.494 408.509L547.904 410.725C548.086 410.999 548.445 411.081 548.723 410.912L551.129 409.371C551.407 409.18 551.484 408.796 551.3 408.509Z" fill="#464A5F"/>
<path d="M546.286 411.494L544.769 409.256C544.578 408.989 544.216 408.921 543.943 409.1L541.662 410.665C541.392 410.857 541.319 411.231 541.497 411.513L542.904 413.727C543.087 414.002 543.451 414.082 543.729 413.908L546.139 412.368C546.273 412.272 546.364 412.126 546.391 411.962C546.419 411.798 546.381 411.63 546.286 411.494Z" fill="#464A5F"/>
<path d="M542.297 414.5L540.76 412.258C540.569 411.988 540.204 411.919 539.931 412.102L537.663 413.672C537.395 413.861 537.32 414.23 537.492 414.512L538.901 416.723C539.082 417 539.445 417.083 539.724 416.91L542.126 415.365C542.262 415.274 542.356 415.131 542.388 414.969C542.42 414.806 542.387 414.638 542.297 414.5Z" fill="#464A5F"/>
<path d="M544.3 398.509L542.761 396.256C542.57 395.989 542.208 395.92 541.937 396.1L539.659 397.667C539.393 397.858 539.321 398.228 539.494 398.509L540.904 400.725C541.086 400.999 541.445 401.081 541.723 400.912L544.129 399.371C544.407 399.18 544.484 398.796 544.3 398.509Z" fill="#464A5F"/>
<path d="M540.297 402.498L538.76 400.256C538.57 399.989 538.209 399.921 537.937 400.1L535.663 401.67C535.395 401.859 535.32 402.229 535.492 402.511L536.901 404.723C537.082 405 537.445 405.083 537.724 404.91L540.126 403.365C540.262 403.273 540.356 403.13 540.388 402.968C540.42 402.805 540.387 402.636 540.297 402.498Z" fill="#464A5F"/>
<path d="M536.296 405.494L534.76 403.258C534.569 402.988 534.203 402.919 533.931 403.102L531.663 404.665C531.395 404.854 531.32 405.224 531.492 405.506L532.9 407.723C533.081 408 533.444 408.083 533.723 407.91L536.119 406.365C536.257 406.275 536.354 406.132 536.387 405.968C536.421 405.803 536.388 405.633 536.296 405.494Z" fill="#464A5F"/>
<path d="M536.302 417.503L534.763 415.257C534.572 414.989 534.21 414.92 533.938 415.1L531.659 416.658C531.393 416.85 531.321 417.221 531.494 417.503L532.905 419.724C533.087 419.999 533.446 420.082 533.724 419.912L536.131 418.36C536.406 418.17 536.482 417.789 536.302 417.503Z" fill="#464A5F"/>
<path d="M532.28 420.48L530.748 418.254C530.559 417.989 530.199 417.921 529.928 418.099L527.662 419.686C527.395 419.874 527.321 420.243 527.492 420.523L528.895 422.724C529.076 423 529.437 423.082 529.716 422.91L532.11 421.379C532.255 421.288 532.357 421.139 532.389 420.968C532.421 420.797 532.382 420.62 532.28 420.48Z" fill="#464A5F"/>
<path d="M528.335 424.766L526.519 422.119C526.48 422.059 526.42 422.018 526.351 422.005C526.282 421.991 526.211 422.007 526.154 422.047L523.52 423.882C523.461 423.92 523.42 423.982 523.405 424.052C523.391 424.123 523.405 424.196 523.445 424.255L525.11 426.873C525.147 426.935 525.206 426.978 525.275 426.994C525.344 427.009 525.416 426.996 525.475 426.956L528.283 425.175C528.346 425.131 528.388 425.061 528.398 424.983C528.408 424.905 528.385 424.826 528.335 424.766Z" fill="#464A5F"/>
<path d="M523.339 427.767L521.531 425.113C521.445 424.993 521.282 424.964 521.161 425.048L518.516 426.877C518.398 426.963 518.365 427.129 518.441 427.257L520.104 429.875C520.183 430 520.345 430.038 520.468 429.958L523.258 428.177C523.329 428.14 523.379 428.072 523.395 427.992C523.411 427.912 523.39 427.83 523.339 427.767Z" fill="#464A5F"/>
<path d="M519.334 429.768L517.526 427.112C517.442 426.993 517.281 426.964 517.163 427.047L514.518 428.877C514.397 428.962 514.364 429.13 514.443 429.257L516.1 431.877C516.181 432 516.34 432.036 516.464 431.961L519.259 430.178C519.33 430.142 519.381 430.073 519.396 429.992C519.41 429.912 519.387 429.829 519.334 429.768Z" fill="#464A5F"/>
<path d="M514.331 433.767L512.536 431.119C512.497 431.059 512.436 431.018 512.368 431.005C512.299 430.991 512.228 431.007 512.171 431.047L509.518 432.882C509.397 432.965 509.364 433.132 509.442 433.256L511.105 435.875C511.184 436 511.346 436.038 511.47 435.958L514.273 434.177C514.341 434.136 514.386 434.066 514.397 433.986C514.408 433.907 514.384 433.826 514.331 433.767Z" fill="#464A5F"/>
<path d="M543.297 406.502L541.765 404.258C541.574 403.988 541.208 403.919 540.935 404.103L538.659 405.673C538.393 405.864 538.321 406.234 538.494 406.515L539.904 408.727C540.087 409.002 540.45 409.082 540.728 408.908L543.126 407.368C543.262 407.277 543.356 407.134 543.388 406.972C543.42 406.809 543.387 406.64 543.297 406.502Z" fill="#464A5F"/>
<path d="M538.297 410.499L536.759 408.26C536.57 407.991 536.208 407.92 535.935 408.098L533.659 409.669C533.393 409.861 533.321 410.231 533.494 410.511L534.904 412.725C535.085 412.999 535.443 413.081 535.721 412.912L538.126 411.366C538.262 411.274 538.356 411.131 538.388 410.969C538.42 410.806 538.387 410.637 538.297 410.499Z" fill="#464A5F"/>
<path d="M534.284 413.494L532.723 411.259C532.532 410.988 532.165 410.919 531.891 411.103L529.664 412.663C529.395 412.853 529.32 413.224 529.492 413.506L530.906 415.722C531.088 416 531.452 416.083 531.732 415.91L534.143 414.368C534.276 414.271 534.365 414.125 534.392 413.96C534.418 413.796 534.379 413.628 534.284 413.494Z" fill="#464A5F"/>
<path d="M529.294 416.497L527.757 414.256C527.566 413.989 527.205 413.92 526.934 414.1L524.658 415.667C524.393 415.858 524.321 416.228 524.494 416.509L525.903 418.725C526.084 418.999 526.442 419.081 526.72 418.912L529.123 417.371C529.261 417.279 529.356 417.135 529.388 416.97C529.42 416.806 529.386 416.635 529.294 416.497Z" fill="#464A5F"/>
<path d="M525.342 420.765L523.534 418.119C523.494 418.059 523.432 418.018 523.363 418.005C523.294 417.991 523.222 418.007 523.164 418.048L520.517 419.881C520.397 419.964 520.364 420.13 520.442 420.255L522.101 422.877C522.139 422.938 522.2 422.98 522.27 422.995C522.339 423.009 522.411 422.994 522.47 422.954L525.261 421.174C525.33 421.136 525.379 421.068 525.395 420.989C525.41 420.91 525.391 420.828 525.342 420.765Z" fill="#464A5F"/>
<path d="M520.334 422.768L518.52 420.119C518.482 420.059 518.421 420.018 518.352 420.005C518.284 419.991 518.213 420.007 518.155 420.047L515.518 421.877C515.397 421.962 515.364 422.131 515.443 422.257L517.106 424.877C517.187 425 517.347 425.036 517.471 424.961L520.277 423.178C520.342 423.136 520.386 423.066 520.397 422.987C520.408 422.908 520.385 422.828 520.334 422.768Z" fill="#464A5F"/>
<path d="M516.34 426.767L514.531 424.113C514.444 423.993 514.281 423.964 514.16 424.048L511.518 425.877C511.397 425.962 511.364 426.13 511.443 426.257L513.102 428.875C513.181 429 513.343 429.038 513.467 428.958L516.265 427.177C516.333 427.137 516.381 427.069 516.395 426.99C516.41 426.911 516.39 426.83 516.34 426.767Z" fill="#464A5F"/>
<path d="M512.343 428.765L510.533 426.119C510.493 426.059 510.432 426.018 510.362 426.005C510.293 425.991 510.221 426.007 510.163 426.048L507.52 427.881C507.461 427.92 507.419 427.981 507.405 428.052C507.391 428.122 507.405 428.195 507.444 428.255L509.104 430.877C509.142 430.938 509.202 430.98 509.271 430.994C509.339 431.009 509.411 430.995 509.469 430.954L512.268 429.175C512.335 429.134 512.381 429.065 512.395 428.987C512.41 428.909 512.391 428.828 512.343 428.765Z" fill="#464A5F"/>
<path d="M510.339 436.768L508.532 434.113C508.445 433.993 508.283 433.964 508.162 434.048L505.518 435.877C505.397 435.963 505.364 436.131 505.443 436.258L507.1 438.877C507.18 439 507.34 439.036 507.464 438.961L510.258 437.178C510.329 437.141 510.379 437.073 510.395 436.993C510.411 436.914 510.39 436.831 510.339 436.768Z" fill="#464A5F"/>
<path d="M505.339 439.766L503.532 437.119C503.492 437.059 503.431 437.018 503.361 437.005C503.292 436.991 503.22 437.007 503.162 437.048L500.517 438.882C500.397 438.965 500.364 439.131 500.442 439.256L502.099 441.873C502.137 441.934 502.198 441.978 502.267 441.994C502.337 442.009 502.409 441.996 502.469 441.956L505.258 440.175C505.329 440.138 505.379 440.07 505.395 439.991C505.411 439.911 505.39 439.828 505.339 439.766Z" fill="#464A5F"/>
<path d="M512.34 420.689L510.609 418.155C510.494 417.991 510.273 417.951 510.111 418.064L507.559 419.816C507.395 419.931 507.351 420.158 507.459 420.328L509.043 422.833C509.153 423.003 509.374 423.051 509.542 422.941L512.217 421.213C512.304 421.163 512.367 421.078 512.39 420.979C512.413 420.88 512.395 420.775 512.34 420.689Z" fill="#464A5F"/>
<path d="M508.335 424.689L506.6 422.161C506.546 422.08 506.463 422.024 506.369 422.006C506.275 421.988 506.178 422.009 506.1 422.065L503.559 423.822C503.396 423.934 503.351 424.159 503.459 424.327L505.047 426.831C505.157 427 505.377 427.05 505.547 426.945L508.235 425.218C508.318 425.162 508.374 425.074 508.393 424.975C508.412 424.875 508.391 424.772 508.335 424.689Z" fill="#464A5F"/>
<path d="M504.342 427.689L502.585 425.154C502.472 424.991 502.254 424.951 502.093 425.064L499.558 426.816C499.395 426.931 499.351 427.158 499.459 427.328L501.04 429.833C501.149 430.003 501.37 430.051 501.537 429.941L504.213 428.213C504.301 428.164 504.365 428.08 504.389 427.98C504.414 427.881 504.396 427.775 504.342 427.689Z" fill="#464A5F"/>
<path d="M499.34 430.767L497.531 428.113C497.445 427.993 497.282 427.964 497.161 428.048L494.514 429.877C494.395 429.964 494.365 430.131 494.444 430.257L496.103 432.875C496.182 433 496.344 433.038 496.468 432.958L499.265 431.177C499.333 431.137 499.381 431.069 499.395 430.99C499.41 430.911 499.39 430.83 499.34 430.767Z" fill="#464A5F"/>
<path d="M553.295 400.888L551.543 398.276C551.336 397.985 550.943 397.913 550.651 398.114L543.671 403.128C543.392 403.337 543.317 403.733 543.5 404.035L545.18 406.701C545.277 406.85 545.428 406.953 545.599 406.988C545.77 407.022 545.947 406.985 546.091 406.884L553.131 401.802C553.412 401.59 553.484 401.189 553.295 400.888Z" fill="#464A5F"/>
<path d="M507.346 432.199L505.226 429.13C505.182 429.063 505.114 429.018 505.037 429.004C504.959 428.991 504.88 429.01 504.817 429.058L497.525 434.294C497.395 434.387 497.361 434.57 497.449 434.706L499.447 437.861C499.49 437.93 499.559 437.978 499.637 437.994C499.715 438.01 499.797 437.993 499.862 437.946L507.276 432.625C507.408 432.526 507.44 432.337 507.346 432.199Z" fill="#464A5F"/>
<path d="M531.336 409.06L529.39 406.134C529.297 405.997 529.114 405.959 528.975 406.048L512.534 417.291C512.468 417.334 512.422 417.402 512.406 417.48C512.39 417.558 512.406 417.639 512.45 417.705L514.473 420.86C514.517 420.93 514.587 420.978 514.666 420.994C514.746 421.01 514.828 420.993 514.895 420.946L531.291 409.48C531.416 409.376 531.437 409.189 531.336 409.06Z" fill="#464A5F"/>
<path opacity="0.1" d="M532.106 398.62L523.138 385.716C522.622 384.97 521.594 384.776 520.836 385.281L496.134 401.703C495.767 401.949 495.514 402.33 495.43 402.761C495.346 403.192 495.439 403.639 495.689 404.002L504.83 417.275C505.078 417.639 505.463 417.89 505.899 417.971C506.335 418.053 506.786 417.959 507.151 417.709L531.68 400.906C532.043 400.659 532.293 400.28 532.372 399.851C532.452 399.422 532.356 398.979 532.106 398.62Z" fill="black"/>
<path d="M532.101 398.619L523.128 385.714C522.609 384.971 521.584 384.777 520.825 385.279L496.142 401.715C495.772 401.959 495.516 402.339 495.431 402.771C495.346 403.203 495.439 403.65 495.689 404.014L504.809 417.275C505.058 417.639 505.443 417.89 505.879 417.971C506.315 418.053 506.767 417.959 507.132 417.709L531.689 400.905C532.05 400.656 532.297 400.275 532.374 399.846C532.452 399.418 532.353 398.976 532.101 398.619Z" fill="#939498"/>
<path d="M585.909 419.253L567.249 413L507.4 454.768L525.923 460.832C526.936 461.164 528.045 460.999 528.918 460.386L586.079 420.453C586.306 420.318 586.431 420.059 586.393 419.796C586.356 419.534 586.165 419.319 585.909 419.253Z" fill="#1B51E5"/>
</svg>
