<svg width="540" height="380" viewBox="0 0 540 380" fill="none" xmlns="http://www.w3.org/2000/svg">
<path opacity="0.1" d="M467.699 379.833C484.814 379.833 498.688 376.209 498.688 371.738C498.688 367.267 484.814 363.643 467.699 363.643C450.584 363.643 436.71 367.267 436.71 371.738C436.71 376.209 450.584 379.833 467.699 379.833Z" fill="#5E81F4"/>
<path opacity="0.1" d="M518.74 336.401C506.941 346.174 490.152 350.219 473.914 352.773L471.181 353.19C454.222 355.715 437.073 357.06 419.867 357.878C410.66 358.323 401.454 358.637 392.247 358.918L385.032 359.131C375.664 359.408 366.278 359.681 356.874 359.949C347.668 360.21 338.461 360.455 329.255 360.684C317.464 360.971 305.673 361.21 293.882 361.4C284.675 361.545 275.469 361.645 266.262 361.7C254.468 361.768 242.677 361.745 230.89 361.632C221.677 361.539 212.47 361.378 203.27 361.148C191.473 360.845 179.682 360.402 167.897 359.818C159.899 359.428 151.905 358.958 143.917 358.41L140.278 358.154C105.986 355.686 71.0782 351.259 41.0696 337.267L40.2604 336.885C39.8582 336.696 39.4561 336.507 39.0539 336.309C33.5441 333.679 28.2663 330.589 23.2767 327.073C14.4045 320.754 7.07799 313.042 3.20639 303.893C-2.86026 289.543 0.347507 273.412 7.27666 259.381C14.2058 245.35 24.6092 232.684 33.6075 219.47C36.2434 215.6 38.7438 211.584 41.0696 207.467C55.6063 181.645 62.8165 151.764 47.5772 126.881C45.5657 123.708 43.3937 120.64 41.0696 117.688C37.3531 112.85 33.5735 108.012 31.0199 102.656C25.0647 90.1925 26.344 76.1761 28.5148 62.8613C31.4221 45.1581 36.7522 26.0906 53.4113 15.0304C70.6954 3.54442 95.2285 4.12501 116.68 8.25686C150.032 14.6385 180.816 27.9969 211.89 40.0441C242.965 52.0913 275.517 63.108 309.683 64.2934C317.023 64.5442 324.371 64.2774 331.673 63.4951C341.407 62.4963 351.009 60.4773 360.32 57.4715C373.766 53.0493 386.001 46.3967 395.072 37.1508C414.527 17.3866 451.087 15.8916 477.447 27.8275C502.6 39.2168 518.866 63.3209 517.665 87.396C516.298 114.195 496.199 136.228 477.781 158.828C475.547 161.566 473.342 164.314 471.196 167.082C469.997 168.627 468.821 170.175 467.668 171.727C465.648 174.465 463.695 177.218 461.853 180.005C452.443 194.292 445.79 211.453 452.269 226.878C455.903 235.514 462.837 242.104 471.196 247.856C489.924 260.74 515.775 269.411 527.404 287.448C537.425 302.993 533.713 323.976 518.74 336.401Z" fill="#5E81F4"/>
<g opacity="0.1">
<path d="M268.819 265.686C268.839 266.141 268.872 266.586 268.921 267.022C272.681 265.522 276.371 263.908 279.993 262.182C281.925 261.926 283.722 261.046 285.111 259.676C286.169 259.143 287.223 258.587 288.267 258.03C288.03 257.53 287.763 257.045 287.464 256.578C285.43 253.36 282.337 251.347 278.93 251.458C275.522 251.57 272.574 253.781 270.752 257.115C269.354 259.748 268.687 262.708 268.819 265.686Z" fill="#3F3D56"/>
<path d="M268.263 248.763C268.336 251.728 269.195 254.621 270.752 257.145C272.792 260.353 275.885 262.366 279.292 262.255C279.529 262.255 279.775 262.221 279.993 262.202C281.926 261.945 283.722 261.065 285.111 259.695C286.053 258.797 286.848 257.755 287.465 256.607C290.237 251.25 290.029 244.835 286.914 239.669C284.874 236.451 281.781 234.438 278.374 234.549C274.967 234.661 272.023 236.872 270.201 240.207C268.805 242.834 268.136 245.789 268.263 248.763Z" fill="#3F3D56"/>
<path d="M278.735 245.333C284.569 245.141 289.095 238.786 288.844 231.138C288.594 223.49 283.661 217.445 277.827 217.637C271.992 217.829 267.466 224.184 267.717 231.832C267.967 239.48 272.9 245.524 278.735 245.333Z" fill="#3F3D56"/>
<path d="M278.18 228.412C284.015 228.221 288.541 221.865 288.29 214.217C288.04 206.57 283.107 200.525 277.272 200.717C271.438 200.909 266.912 207.264 267.163 214.912C267.413 222.56 272.346 228.604 278.18 228.412Z" fill="#3F3D56"/>
<path d="M277.626 211.487C283.46 211.295 287.987 204.94 287.736 197.292C287.485 189.644 282.553 183.6 276.718 183.792C270.884 183.983 266.358 190.339 266.608 197.987C266.859 205.635 271.792 211.679 277.626 211.487Z" fill="#3F3D56"/>
<path d="M312.939 80.5401C314.321 78.6535 315.571 76.6726 316.679 74.6119L288.774 70.9629L318.796 70.1983C324.2 57.3309 324.075 42.8028 318.448 30.0313L278.862 52.2683L315.109 23.7158C305.051 7.69437 286.92 -1.38384 268.085 0.172247C249.251 1.72833 232.851 13.6596 225.552 31.115C218.253 48.5704 221.271 68.6435 233.38 83.1728C231.226 86.1101 229.393 89.2706 227.914 92.5999L264.552 110.157L225.715 98.5137C220.767 114.914 224.423 132.706 235.434 145.819C219.807 167.128 223.161 196.886 243.137 214.172C263.113 231.458 293.003 230.467 311.793 211.895C330.584 193.323 331.964 163.409 314.964 143.181C328.8 124.333 327.964 98.4526 312.939 80.5401Z" fill="#5E81F4"/>
<path opacity="0.1" d="M223.578 114.832C223.931 126.199 228.109 137.113 235.433 145.804C219.803 167.111 223.151 196.869 243.124 214.159C263.097 231.449 292.987 230.463 311.781 211.895C330.575 193.326 331.96 163.412 314.963 143.181C321.464 134.345 223.395 109.146 223.578 114.832Z" fill="black"/>
</g>
<g opacity="0.1">
<path d="M157.942 354.844C157.942 355.163 157.908 355.482 157.87 355.811C155.198 354.748 152.573 353.608 149.994 352.393C148.62 352.213 147.342 351.591 146.353 350.619C145.6 350.235 144.852 349.845 144.108 349.449C144.276 349.096 144.466 348.753 144.678 348.424C146.126 346.133 148.319 344.702 150.743 344.779C153.167 344.856 155.262 346.423 156.537 348.792C157.535 350.648 158.02 352.737 157.942 354.844Z" fill="#3F3D56"/>
<path d="M158.319 342.811C158.272 344.919 157.665 346.976 156.562 348.772C155.113 351.054 152.916 352.49 150.497 352.413L150.014 352.374C148.64 352.194 147.362 351.571 146.373 350.6C145.701 349.962 145.136 349.221 144.697 348.405C142.728 344.6 142.871 340.045 145.074 336.372C146.523 334.08 148.72 332.649 151.139 332.727C153.558 332.804 155.659 334.37 156.957 336.739C157.944 338.606 158.414 340.702 158.319 342.811Z" fill="#3F3D56"/>
<path d="M158.709 330.801C158.88 325.365 155.657 320.852 151.51 320.72C147.362 320.589 143.861 324.889 143.689 330.326C143.518 335.762 146.741 340.275 150.888 340.406C155.036 340.537 158.537 336.237 158.709 330.801Z" fill="#3F3D56"/>
<path d="M159.084 318.77C159.256 313.334 156.033 308.821 151.885 308.689C147.738 308.558 144.237 312.859 144.065 318.295C143.893 323.731 147.116 328.244 151.264 328.375C155.411 328.506 158.913 324.206 159.084 318.77Z" fill="#3F3D56"/>
<path d="M159.464 306.734C159.636 301.298 156.413 296.785 152.265 296.654C148.118 296.523 144.616 300.823 144.445 306.259C144.273 311.695 147.496 316.208 151.644 316.339C155.791 316.471 159.293 312.17 159.464 306.734Z" fill="#3F3D56"/>
<path d="M126.425 223.261C125.441 221.92 124.549 220.513 123.755 219.05L143.591 216.411L122.244 215.927C118.388 206.783 118.465 196.451 122.456 187.365L150.622 203.14L124.827 182.86C131.942 171.416 144.841 164.905 158.261 165.983C171.682 167.061 183.379 175.547 188.581 187.98C193.783 200.412 191.62 214.712 182.974 225.045C184.51 227.131 185.817 229.378 186.871 231.745L160.835 244.257L188.44 235.942C191.97 247.599 189.388 260.252 181.574 269.589C192.708 284.722 190.355 305.881 176.17 318.191C161.984 330.502 140.73 329.83 127.349 316.647C113.968 303.465 112.954 282.199 125.02 267.8C115.167 254.41 115.748 236.007 126.425 223.266V223.261Z" fill="#5E81F4"/>
<path opacity="0.1" d="M189.971 247.559C189.729 255.639 186.77 263.402 181.574 269.589C192.708 284.722 190.355 305.881 176.17 318.191C161.984 330.502 140.73 329.83 127.349 316.647C113.968 303.465 112.954 282.199 125.02 267.8C120.389 261.516 190.106 243.512 189.971 247.559Z" fill="black"/>
</g>
<g opacity="0.1">
<path d="M410.513 291.963C410.513 292.287 410.479 292.601 410.445 292.93C407.77 291.866 405.145 290.727 402.57 289.512C401.195 289.331 399.915 288.709 398.924 287.738C398.176 287.356 397.422 286.964 396.679 286.568C396.848 286.215 397.039 285.873 397.248 285.543C398.697 283.251 400.889 281.82 403.313 281.898C405.737 281.975 407.833 283.541 409.108 285.91C410.106 287.767 410.591 289.856 410.513 291.963Z" fill="#3F3D56"/>
<path d="M410.919 279.93C410.87 282.038 410.261 284.096 409.156 285.891C407.708 288.173 405.515 289.609 403.091 289.531L402.608 289.493C401.233 289.312 399.954 288.689 398.963 287.718C398.293 287.079 397.728 286.338 397.287 285.523C395.318 281.719 395.461 277.164 397.664 273.491C399.113 271.204 401.31 269.768 403.729 269.845C406.148 269.923 408.253 271.489 409.547 273.858C410.537 275.723 411.011 277.82 410.919 279.93Z" fill="#3F3D56"/>
<path d="M411.296 267.916C411.467 262.48 408.244 257.966 404.097 257.835C399.949 257.704 396.448 262.004 396.276 267.44C396.105 272.876 399.328 277.39 403.475 277.521C407.623 277.652 411.124 273.352 411.296 267.916Z" fill="#3F3D56"/>
<path d="M411.676 255.885C411.848 250.449 408.625 245.936 404.477 245.804C400.33 245.673 396.828 249.974 396.657 255.41C396.485 260.846 399.708 265.359 403.856 265.49C408.003 265.621 411.505 261.321 411.676 255.885Z" fill="#3F3D56"/>
<path d="M412.056 243.854C412.228 238.418 409.005 233.905 404.857 233.774C400.71 233.643 397.208 237.943 397.037 243.379C396.865 248.815 400.088 253.328 404.236 253.459C408.383 253.591 411.884 249.29 412.056 243.854Z" fill="#3F3D56"/>
<path d="M378.996 160.38C378.01 159.04 377.119 157.633 376.33 156.169L396.167 153.553L374.819 153.036C370.965 143.892 371.04 133.562 375.027 124.474L403.193 140.249L377.398 119.978C384.501 108.506 397.411 101.969 410.85 103.04C424.289 104.111 436.004 112.61 441.205 125.063C446.406 137.515 444.222 151.833 435.545 162.164C437.079 164.25 438.384 166.497 439.437 168.864L413.4 181.376L441.006 173.06C444.541 184.716 441.958 197.37 434.14 206.703C445.275 221.833 442.925 242.991 428.74 255.302C414.556 267.613 393.304 266.94 379.924 253.758C366.545 240.575 365.533 219.31 377.6 204.914C367.748 191.524 368.328 173.121 379.006 160.38H378.996Z" fill="#5E81F4"/>
<path opacity="0.1" d="M442.546 184.678C442.304 192.757 439.344 200.519 434.144 206.703C445.278 221.834 442.926 242.99 428.742 255.3C414.558 267.609 393.307 266.937 379.928 253.756C366.548 240.574 365.535 219.311 377.6 204.914C372.965 198.634 442.672 180.626 442.546 184.678Z" fill="black"/>
</g>
<path d="M93.4444 368.405C108.716 368.405 121.096 366.06 121.096 363.167C121.096 360.274 108.716 357.929 93.4444 357.929C78.1727 357.929 65.7925 360.274 65.7925 363.167C65.7925 366.06 78.1727 368.405 93.4444 368.405Z" fill="#5E81F4"/>
<path d="M92.9677 365.548C94.8108 365.548 96.305 363.629 96.305 361.262C96.305 358.895 94.8108 356.976 92.9677 356.976C91.1245 356.976 89.6304 358.895 89.6304 361.262C89.6304 363.629 91.1245 365.548 92.9677 365.548Z" fill="#3F3D56"/>
<path d="M92.9677 359.833C94.8108 359.833 96.305 357.915 96.305 355.548C96.305 353.181 94.8108 351.262 92.9677 351.262C91.1245 351.262 89.6304 353.181 89.6304 355.548C89.6304 357.915 91.1245 359.833 92.9677 359.833Z" fill="#3F3D56"/>
<path d="M92.9677 355.072C94.8108 355.072 96.305 353.153 96.305 350.786C96.305 348.419 94.8108 346.5 92.9677 346.5C91.1245 346.5 89.6304 348.419 89.6304 350.786C89.6304 353.153 91.1245 355.072 92.9677 355.072Z" fill="#3F3D56"/>
<path d="M92.9677 350.31C94.8108 350.31 96.305 348.391 96.305 346.024C96.305 343.657 94.8108 341.738 92.9677 341.738C91.1245 341.738 89.6304 343.657 89.6304 346.024C89.6304 348.391 91.1245 350.31 92.9677 350.31Z" fill="#3F3D56"/>
<path d="M92.9677 344.595C94.8108 344.595 96.305 342.677 96.305 340.31C96.305 337.943 94.8108 336.024 92.9677 336.024C91.1245 336.024 89.6304 337.943 89.6304 340.31C89.6304 342.677 91.1245 344.595 92.9677 344.595Z" fill="#3F3D56"/>
<path d="M92.9677 339.833C94.8108 339.833 96.305 337.915 96.305 335.548C96.305 333.181 94.8108 331.262 92.9677 331.262C91.1245 331.262 89.6304 333.181 89.6304 335.548C89.6304 337.915 91.1245 339.833 92.9677 339.833Z" fill="#3F3D56"/>
<path d="M92.9677 334.119C94.8108 334.119 96.305 332.2 96.305 329.833C96.305 327.466 94.8108 325.548 92.9677 325.548C91.1245 325.548 89.6304 327.466 89.6304 329.833C89.6304 332.2 91.1245 334.119 92.9677 334.119Z" fill="#3F3D56"/>
<path d="M105.433 295.128C105.867 294.571 106.263 293.985 106.618 293.373L98.2513 291.99L107.299 292.062C109.053 288.224 109.159 283.83 107.592 279.912L95.4496 286.242L106.647 277.954C103.785 272.992 98.4074 270.049 92.7074 270.328C87.0074 270.606 81.9385 274.058 79.5689 279.276C77.1993 284.493 77.9252 290.604 81.4505 295.114C80.7739 295.981 80.1917 296.919 79.7138 297.911L90.5753 303.581L78.9942 299.675C77.3414 304.583 78.2653 309.998 81.4505 314.072C76.5335 320.359 77.2488 329.387 83.0936 334.812C88.9384 340.237 97.9501 340.237 103.795 334.812C109.64 329.387 110.355 320.359 105.438 314.072C109.788 308.509 109.788 300.677 105.438 295.114L105.433 295.128Z" fill="#5E81F4"/>
<path opacity="0.1" d="M78.1882 304.82C78.1826 308.236 79.3321 311.554 81.4505 314.236C76.5335 320.481 77.2488 329.45 83.0936 334.839C88.9384 340.228 97.9501 340.228 103.795 334.839C109.64 329.45 110.355 320.481 105.438 314.236C107.477 311.645 78.1882 303.11 78.1882 304.82Z" fill="black"/>
<path d="M167.818 250.757V359.833C159.811 359.444 151.808 358.976 143.81 358.429L140.167 358.173V250.757C140.167 249.628 140.617 248.545 141.42 247.747C142.222 246.949 143.31 246.5 144.445 246.5H163.54C164.674 246.5 165.763 246.949 166.565 247.747C167.368 248.545 167.818 249.628 167.818 250.757Z" fill="#3F3D56"/>
<path d="M203.099 361.259V177.435C203.099 175.078 205.014 173.167 207.377 173.167H226.472C227.607 173.167 228.695 173.616 229.497 174.417C230.3 175.218 230.751 176.303 230.751 177.435V361.738L203.099 361.259Z" fill="#3F3D56"/>
<path d="M266.031 361.738V215.532C266.031 213.174 267.946 211.262 270.31 211.262H289.404C291.767 211.262 293.683 213.174 293.683 215.532V361.423L266.031 361.738Z" fill="#3F3D56"/>
<path d="M356.614 106.964V360.049C347.397 360.311 338.18 360.556 328.962 360.786V106.964C328.962 104.604 330.878 102.691 333.241 102.691H352.336C354.699 102.691 356.614 104.604 356.614 106.964Z" fill="#3F3D56"/>
<path d="M419.546 158.379V357.843C410.329 358.287 401.112 358.601 391.895 358.881V158.379C391.895 156.026 393.81 154.119 396.173 154.119H415.268C417.631 154.119 419.546 156.026 419.546 158.379Z" fill="#3F3D56"/>
<path d="M154.469 186.5L217.401 116.519L280.333 151.751L343.265 43.6429L406.197 95.2838" stroke="#3F3D56" stroke-width="7" stroke-linecap="round"/>
<path d="M154.469 199.833C161.842 199.833 167.819 193.864 167.819 186.5C167.819 179.136 161.842 173.167 154.469 173.167C147.097 173.167 141.12 179.136 141.12 186.5C141.12 193.864 147.097 199.833 154.469 199.833Z" fill="#5E81F4"/>
<path d="M217.401 129.357C224.774 129.357 230.751 123.388 230.751 116.024C230.751 108.66 224.774 102.691 217.401 102.691C210.029 102.691 204.052 108.66 204.052 116.024C204.052 123.388 210.029 129.357 217.401 129.357Z" fill="#5E81F4"/>
<path d="M280.334 164.595C287.706 164.595 293.683 158.626 293.683 151.262C293.683 143.898 287.706 137.929 280.334 137.929C272.961 137.929 266.984 143.898 266.984 151.262C266.984 158.626 272.961 164.595 280.334 164.595Z" fill="#5E81F4"/>
<path d="M343.265 56.0239C350.638 56.0239 356.614 50.0543 356.614 42.6905C356.614 35.3267 350.638 29.3572 343.265 29.3572C335.893 29.3572 329.916 35.3267 329.916 42.6905C329.916 50.0543 335.893 56.0239 343.265 56.0239Z" fill="#5E81F4"/>
<path d="M464.362 171.262C471.734 171.262 477.711 165.292 477.711 157.929C477.711 150.565 471.734 144.595 464.362 144.595C456.989 144.595 451.013 150.565 451.013 157.929C451.013 165.292 456.989 171.262 464.362 171.262Z" fill="#5E81F4"/>
<path opacity="0.1" d="M112.991 351.262C117.994 351.262 122.05 350.622 122.05 349.833C122.05 349.044 117.994 348.405 112.991 348.405C107.989 348.405 103.933 349.044 103.933 349.833C103.933 350.622 107.989 351.262 112.991 351.262Z" fill="#5E81F4"/>
<path d="M106.793 342.557C106.793 342.557 111.916 342.401 113.46 341.317C115.004 340.234 121.344 338.952 121.729 340.678C122.114 342.405 129.425 349.308 123.653 349.355C117.881 349.403 110.209 348.466 108.669 347.543C107.13 346.621 106.793 342.557 106.793 342.557Z" fill="#A8A8A8"/>
<path opacity="0.2" d="M123.75 348.767C117.976 348.813 110.306 347.899 108.761 346.995C107.587 346.304 107.121 343.832 106.962 342.691H106.793C106.793 342.691 107.116 346.675 108.66 347.579C110.205 348.484 117.86 349.402 123.649 349.356C125.319 349.356 125.896 348.771 125.862 347.922C125.631 348.437 124.996 348.757 123.75 348.767Z" fill="black"/>
<path opacity="0.1" d="M515.374 365.548C524.59 365.548 532.061 364.268 532.061 362.691C532.061 361.113 524.59 359.833 515.374 359.833C506.159 359.833 498.688 361.113 498.688 362.691C498.688 364.268 506.159 365.548 515.374 365.548Z" fill="#5E81F4"/>
<path d="M504.409 349.768C504.409 349.768 513.89 349.474 516.749 347.419C519.607 345.364 531.332 342.912 532.039 346.205C532.746 349.499 546.292 362.599 535.585 362.687C524.878 362.775 510.712 361.004 507.859 359.262C505.005 357.52 504.409 349.768 504.409 349.768Z" fill="#A8A8A8"/>
<path opacity="0.2" d="M535.782 360.622C525.074 360.706 510.907 359.007 508.053 357.336C505.882 356.055 505.015 351.455 504.724 349.357H504.409C504.409 349.357 505.01 356.768 507.859 358.449C510.708 360.129 524.885 361.833 535.588 361.734C538.679 361.734 539.745 360.645 539.687 359.068C539.256 360.007 538.078 360.603 535.782 360.622Z" fill="black"/>
<path fill-rule="evenodd" clip-rule="evenodd" d="M412.017 168.708C411.472 168.05 411.133 167.249 411.042 166.403C410.741 164.54 411.326 162.644 412.625 161.267C413.95 159.967 416.152 159.523 417.745 160.489C418.982 161.233 419.664 162.605 420.283 163.905C420.564 164.497 420.886 165.078 421.207 165.661C421.932 166.971 422.659 168.287 422.942 169.732C423.566 172.926 425.265 175.722 426.969 178.528C428.338 180.782 429.711 183.042 430.536 185.521C430.749 186.16 430.926 186.814 431.103 187.467C431.475 188.845 431.847 190.22 432.557 191.449C433.052 192.241 433.605 192.995 434.213 193.705C436.611 196.705 438.73 199.913 440.545 203.291C441.412 203.458 442.199 204.087 442.953 204.69C443.115 204.819 443.275 204.947 443.434 205.069C444.582 205.955 445.912 206.58 447.331 206.9C447.901 206.967 448.448 207.166 448.928 207.48C449.305 207.793 449.5 208.247 449.697 208.705C449.848 209.057 450.001 209.412 450.239 209.707C450.635 210.147 451.138 210.479 451.7 210.673C451.734 210.504 451.734 210.33 451.734 210.161C451.768 209.262 451.768 208.364 451.768 207.465C448.538 203.672 448.551 198.117 451.797 194.338C451.76 192.939 451.574 191.548 451.242 190.188C451.067 189.526 451.096 188.71 451.632 188.284C451.925 188.108 452.227 187.947 452.538 187.801C452.944 187.463 453.276 187.045 453.512 186.574C455 184.468 457.81 183.747 460.141 184.873C461.205 185.427 462.013 186.31 462.823 187.195C463.364 187.786 463.905 188.377 464.525 188.874C464.928 189.2 465.365 189.485 465.801 189.769C466.223 190.044 466.645 190.319 467.038 190.632C468.64 192.015 469.777 193.851 470.297 195.894C470.815 197.927 471.117 200.007 471.198 202.102C471.281 202.73 471.256 203.367 471.125 203.986C470.963 204.503 470.722 204.992 470.409 205.436C468.924 207.831 466.838 209.802 464.354 211.156C464.339 211.28 464.339 211.405 464.354 211.528C464.377 211.715 464.413 211.894 464.45 212.076L464.457 212.108C464.486 212.099 464.515 212.089 464.544 212.078C464.61 212.054 464.675 212.031 464.739 212.031C465.081 211.953 465.433 211.905 465.784 211.856C466.502 211.757 467.217 211.658 467.842 211.311C468.669 210.851 469.197 210.048 469.727 209.242C470.221 208.491 470.716 207.737 471.456 207.257C471.586 207.172 471.723 207.098 471.865 207.035C471.971 204.288 472.5 201.574 473.434 198.986C473.496 198.81 473.561 198.634 473.627 198.457C474.022 197.387 474.423 196.301 474.364 195.169C474.305 194.035 473.798 192.984 473.301 191.955C473.262 191.875 473.224 191.795 473.185 191.715C471.392 187.937 470.114 183.926 468.841 179.933L468.801 179.81C467.983 177.275 467.171 174.739 466.366 172.201C465.573 171.618 464.855 170.942 464.228 170.186C462.93 168.684 462.072 166.857 461.748 164.905C461.435 162.935 461.927 160.923 463.117 159.315C463.64 158.547 464.474 158.041 465.402 157.929C466.22 157.945 466.995 158.294 467.545 158.895C468.35 159.812 468.971 160.873 469.376 162.021C470.17 163.886 470.979 165.833 470.906 167.862C470.888 168.29 470.836 168.732 470.783 169.174C470.628 170.468 470.472 171.77 471.198 172.785C473.857 176.472 475.986 180.609 478.083 184.683C478.537 185.565 478.989 186.443 479.444 187.313C480.097 188.481 480.654 189.7 481.11 190.956C481.734 192.991 482.03 195.111 481.987 197.237C482.006 201.223 481.461 205.19 480.915 209.137C480.667 210.924 480.35 212.818 479.493 214.36C480.055 216.267 480.35 218.242 480.37 220.23C480.39 220.689 480.317 221.147 480.156 221.578C479.867 222.079 479.502 222.534 479.074 222.926C477.917 224.224 477.384 225.957 477.613 227.675C477.751 229.277 477.604 230.891 477.179 232.444C476.205 236.729 475.231 241.019 474.447 245.343C474.261 246.148 474.2 246.975 474.267 247.798C474.331 248.238 474.46 248.67 474.588 249.1C474.801 249.812 475.012 250.518 474.924 251.247C474.787 251.793 474.684 252.346 474.617 252.905C474.649 253.328 474.748 253.744 474.91 254.137C475.118 254.742 475.394 255.494 475.703 256.34C477.034 259.977 478.996 265.336 478.972 268.08C478.719 268.012 478.456 267.954 478.193 267.896C478.62 270.312 479.365 272.667 480.11 275.027C480.724 276.967 481.338 278.911 481.778 280.893C482.447 284.089 482.751 287.35 482.684 290.614C482.617 292.078 482.643 293.545 482.761 295.005C482.844 295.739 482.987 296.464 483.13 297.189C483.241 297.748 483.351 298.307 483.434 298.871C483.639 300.608 483.716 302.359 483.663 304.108C483.719 306.853 483.564 309.599 483.2 312.321C482.689 315.478 483.133 318.621 483.579 321.781C483.789 323.264 483.999 324.751 484.111 326.245C484.292 329.521 484.668 332.783 485.236 336.015C485.32 336.443 485.41 336.87 485.501 337.297C485.7 338.232 485.898 339.166 486.025 340.112C486.269 341.94 486.244 343.794 486.219 345.645C486.188 347.933 486.157 350.217 486.634 352.446C486.689 352.708 486.751 352.974 486.813 353.243C487.199 354.913 487.607 356.68 486.692 358.07C486.508 358.352 486.275 358.602 486.043 358.851C485.858 359.049 485.673 359.247 485.513 359.461C485.102 359.929 484.972 360.579 485.173 361.167C485.264 361.361 485.409 361.524 485.553 361.686C485.738 361.895 485.922 362.103 485.991 362.375C486.161 363.114 485.401 363.728 484.7 364.042C484.659 364.062 484.618 364.077 484.577 364.092C484.55 364.102 484.523 364.112 484.495 364.124C484.593 364.638 484.456 365.169 484.12 365.573C483.705 365.965 483.187 366.233 482.625 366.346L473.429 369.115C471.359 369.728 469.128 370.322 467.097 369.839C467.048 370.128 466.922 370.398 466.731 370.622C466.315 371.012 465.797 371.279 465.236 371.395L456.04 374.159C453.692 374.864 451.11 375.564 448.86 374.598C448.212 374.337 447.644 373.914 447.209 373.371C446.487 372.31 446.274 370.988 446.624 369.757C446.745 369.141 447.054 368.578 447.511 368.143C448.139 367.715 448.878 367.477 449.639 367.457C450.288 367.438 450.924 367.272 451.5 366.974C451.673 366.861 451.817 366.711 451.924 366.535C451.398 366.018 450.881 365.476 450.394 364.931C450.789 364.771 450.93 364.22 450.969 363.805C451.359 359.705 450.448 355.665 449.534 351.615C449.077 349.59 448.62 347.562 448.324 345.523C447.881 342.452 447.803 339.34 448.09 336.251C448.123 335.912 448.16 335.573 448.197 335.234C448.286 334.413 448.376 333.59 448.407 332.763C448.526 329.675 447.832 326.65 447.137 323.617C446.462 320.671 445.785 317.717 445.85 314.693C445.882 312.782 445.208 310.888 444.541 309.016C444.213 308.096 443.887 307.181 443.648 306.272C443.01 303.823 442.976 301.262 442.976 298.735L442.854 278.801C442.84 276.11 442.835 273.341 443.726 270.795C444.158 269.388 444.277 267.905 444.077 266.447C443.503 266.2 442.937 265.924 442.372 265.648C440.495 264.733 438.637 263.827 436.6 264.031C435.889 262.171 436.727 255.968 437.394 254.093C439.996 246.698 440.501 238.737 438.855 231.076C438.563 229.731 438.609 228.347 438.656 226.964C438.705 225.515 438.753 224.066 438.412 222.665C438.29 222.019 438.042 221.404 437.681 220.853C437.313 220.299 436.684 219.97 436.016 219.983C436.006 218.283 436.05 216.601 436.162 214.901C435.085 214.03 434.168 212.982 433.449 211.804C432.309 209.965 431.567 207.925 430.827 205.885C430.602 205.266 430.377 204.648 430.141 204.035C429.006 201.079 427.611 198.241 426.214 195.399C425.416 193.777 424.618 192.154 423.868 190.507C422.69 187.924 422.116 185.2 421.54 182.465C421.105 180.402 420.668 178.332 419.971 176.312C419.065 173.725 417.188 171.584 414.73 170.336C414.527 170.235 414.319 170.139 414.111 170.042C413.345 169.688 412.572 169.331 412.017 168.708ZM467.014 362.409C467.663 362.389 468.299 362.224 468.875 361.925C469.205 361.653 469.444 361.287 469.561 360.877C469.362 360.66 469.167 360.437 468.987 360.205C469.6 360.109 470.365 359.664 470.365 359.046C470.319 358.426 470.184 357.816 469.966 357.234C469.678 356.184 469.63 355.083 469.824 354.012C469.901 353.598 470.01 353.201 470.12 352.806C470.212 352.472 470.303 352.139 470.375 351.799C470.521 350.972 470.619 350.138 470.667 349.301C470.93 346.289 471.523 343.315 472.435 340.43C473.054 338.478 472.652 336.499 472.245 334.496C472.069 333.63 471.893 332.759 471.797 331.884C471.756 331.5 471.732 331.112 471.708 330.724C471.646 329.72 471.583 328.714 471.232 327.777C471.086 327.385 470.895 327.021 470.704 326.657C470.513 326.293 470.324 325.931 470.18 325.545C469.513 323.757 469.912 321.762 470.316 319.892C467.678 315.136 466.652 309.544 465.662 304.154C465.572 303.663 465.482 303.174 465.392 302.687L463.565 292.86C463.307 291.406 463.01 289.889 462.104 288.715C461.157 293.053 460.785 297.495 460.998 301.929C461.109 303.206 461.093 304.491 460.95 305.765C460.815 306.609 460.55 307.423 460.285 308.237C460.107 308.783 459.929 309.33 459.79 309.886C459.271 311.929 459.299 314.042 459.327 316.157C459.341 317.198 459.355 318.24 459.303 319.274C459.272 319.859 459.22 320.444 459.169 321.029C459.109 321.708 459.05 322.388 459.021 323.071C458.782 328.671 460.672 334.116 462.537 339.401C463.405 341.831 463.765 344.514 464.116 347.128C464.234 348.008 464.351 348.88 464.486 349.731L464.51 349.881C465.013 353.083 465.518 356.289 465.772 359.519C465.786 359.699 465.799 359.879 465.813 360.06C465.876 360.888 465.94 361.73 466.04 362.563C466.361 362.494 466.687 362.442 467.014 362.409Z" fill="url(#paint0_linear_9071_3524)"/>
<path d="M449.472 368.179C448.699 368.2 447.949 368.447 447.312 368.89C446.847 369.335 446.532 369.917 446.412 370.553C446.057 371.819 446.274 373.179 447.005 374.268C447.447 374.829 448.024 375.265 448.681 375.535C450.964 376.536 453.584 375.805 455.967 375.079L465.299 372.235C465.868 372.117 466.393 371.842 466.816 371.439C467.343 370.72 467.359 369.741 466.856 369.006C466.354 368.299 465.67 367.746 464.879 367.408C461.977 365.976 458.705 365.651 455.517 365.591C454.331 365.591 453.159 365.3 452.353 366.227C451.928 366.727 452.007 367.263 451.365 367.689C450.777 367.992 450.131 368.16 449.472 368.179Z" fill="#3F3D56"/>
<path d="M467.588 363.416C466.816 363.439 466.066 363.685 465.428 364.127C464.964 364.572 464.65 365.154 464.528 365.789C464.174 367.057 464.391 368.419 465.122 369.509C465.565 370.068 466.142 370.502 466.797 370.771C469.086 371.773 471.701 371.047 474.083 370.321L483.416 367.472C483.985 367.354 484.51 367.078 484.934 366.675C485.459 365.958 485.475 364.981 484.973 364.247C484.471 363.541 483.787 362.988 482.996 362.65C480.089 361.218 476.817 360.887 473.629 360.827C472.442 360.827 471.276 360.542 470.465 361.468C470.04 361.969 470.119 362.5 469.476 362.925C468.892 363.233 468.246 363.401 467.588 363.416Z" fill="#3F3D56"/>
<path d="M459.39 263.478C464.742 262.936 470.125 262.784 475.498 263.022C475.852 263.019 476.205 263.074 476.541 263.187C477.725 263.672 477.907 265.232 478.018 266.507C478.499 271.683 480.74 276.505 481.866 281.574C482.526 284.761 482.827 288.013 482.76 291.267C482.695 292.721 482.721 294.178 482.837 295.629C482.981 296.923 483.318 298.193 483.501 299.482C483.704 301.214 483.779 302.958 483.727 304.701C483.782 307.434 483.629 310.168 483.27 312.877C482.529 317.496 483.823 322.085 484.169 326.757C484.342 330.025 484.706 333.279 485.261 336.503C485.526 337.865 485.857 339.212 486.04 340.584C486.579 344.66 485.79 348.857 486.641 352.879C487.036 354.76 487.748 356.873 486.699 358.482C486.372 358.966 485.891 359.378 485.535 359.868C485.129 360.333 485 360.982 485.199 361.569C485.405 362.01 485.886 362.301 486.007 362.771C486.194 363.512 485.425 364.118 484.732 364.433C479.514 366.808 472.785 365.136 469.265 360.585C469.871 360.488 470.611 360.047 470.626 359.427C470.579 358.81 470.447 358.203 470.231 357.624C469.948 356.578 469.9 355.482 470.092 354.416C470.231 353.669 470.481 352.962 470.635 352.21C470.78 351.387 470.876 350.555 470.924 349.719C471.184 346.717 471.769 343.753 472.67 340.88C473.545 338.093 472.352 335.272 472.04 332.365C471.895 330.988 471.958 329.568 471.482 328.269C471.193 327.504 470.727 326.815 470.443 326.05C469.784 324.261 470.178 322.274 470.578 320.413C467.735 315.242 466.788 309.078 465.715 303.267L463.911 293.477C463.642 292.023 463.349 290.516 462.469 289.343C461.534 293.665 461.167 298.092 461.377 302.511C461.486 303.784 461.47 305.065 461.329 306.335C461.107 307.74 460.526 309.063 460.184 310.439C459.439 313.478 459.876 316.667 459.703 319.793C459.636 321.058 459.477 322.313 459.424 323.578C459.188 329.161 461.055 334.589 462.897 339.857C464.027 343.09 464.277 346.763 464.82 350.146C465.301 353.388 465.835 356.63 466.09 359.902C466.326 362.906 466.432 366.158 468.288 368.519C466.59 369.628 464.84 370.758 462.853 371.14C460.539 371.505 458.17 371.042 456.158 369.832C454.158 368.627 452.371 367.096 450.868 365.301C451.258 365.165 451.397 364.593 451.435 364.181C452.013 358.046 449.699 352.065 448.824 345.959C448.386 342.899 448.309 339.799 448.593 336.721C448.704 335.563 448.862 334.405 448.906 333.242C449.137 327.179 446.236 321.339 446.342 315.271C446.39 312.427 444.899 309.625 444.168 306.877C443.538 304.454 443.519 301.886 443.505 299.366L443.384 279.495C443.384 276.81 443.384 274.058 444.245 271.523C445.303 268.47 444.091 264.966 443.909 261.738C448.906 263.334 454.167 263.925 459.39 263.478Z" fill="#696791"/>
<path d="M442.104 206.843C440.09 202.699 437.631 198.791 434.77 195.188C434.172 194.484 433.627 193.736 433.141 192.951C432.111 191.152 431.804 189.04 431.153 187.073C429.332 181.556 424.791 177.125 423.685 171.42C423.282 169.347 421.97 167.563 421.069 165.634C420.461 164.347 419.79 162.987 418.573 162.259C417.007 161.294 414.842 161.738 413.539 163.03C412.268 164.393 411.698 166.273 411.996 168.117C412.086 168.957 412.419 169.752 412.954 170.403C413.649 171.189 414.688 171.546 415.622 172.018C418.036 173.25 419.883 175.374 420.777 177.945C422.372 182.598 422.578 187.526 424.609 192.02C426.64 196.514 429.026 200.825 430.779 205.42C431.776 208.029 432.571 210.725 434.032 213.136C435.493 215.547 437.773 217.567 440.528 217.929C440.509 216.181 440.773 214.441 441.308 212.779C441.907 210.879 442.971 208.641 442.104 206.843Z" fill="#A0616A"/>
<path d="M472.493 211.054C472.37 207.612 472.899 204.178 474.052 200.938C474.493 199.696 475.011 198.435 474.968 197.116C474.906 195.889 474.33 194.765 473.807 193.655C472.004 189.833 470.738 185.782 469.491 181.741L467.092 174.122C466.311 173.54 465.603 172.862 464.987 172.102C463.709 170.602 462.864 168.772 462.546 166.815C462.236 164.844 462.722 162.829 463.893 161.226C464.41 160.454 465.23 159.947 466.143 159.833C466.948 159.851 467.71 160.203 468.253 160.807C469.044 161.723 469.656 162.784 470.057 163.933C470.838 165.802 471.634 167.749 471.563 169.775C471.495 171.459 470.877 173.338 471.85 174.707C475.035 179.195 477.448 184.351 479.97 189.253C480.614 190.422 481.163 191.641 481.611 192.9C482.227 194.94 482.518 197.067 482.474 199.2C482.474 203.187 481.956 207.16 481.419 211.113C481.078 213.591 480.632 216.288 478.786 217.929C476.867 215.436 474.939 213.002 472.493 211.054Z" fill="#A0616A"/>
<path d="M460.071 212.214C465.6 212.214 470.083 207.737 470.083 202.214C470.083 196.691 465.6 192.214 460.071 192.214C454.542 192.214 450.059 196.691 450.059 202.214C450.059 207.737 454.542 212.214 460.071 212.214Z" fill="#A0616A"/>
<path d="M464.581 213.048C464.822 214.899 465.787 216.558 466.728 218.158C467.295 219.145 468.02 220.196 469.129 220.305C466.242 221.863 463.209 223.116 460.077 224.047C459.012 224.415 457.896 224.6 456.772 224.595C455.821 224.522 454.889 224.277 454.021 223.869C450.172 222.147 447.306 218.704 446.245 214.529C447.486 214.563 448.727 214.465 449.948 214.238C450.645 214.183 451.295 213.854 451.763 213.319C452.042 212.819 452.172 212.246 452.138 211.67C452.186 209.962 452.191 208.249 452.138 206.541C454.587 206.381 457.043 206.692 459.38 207.459C460.341 207.78 461.301 208.165 462.262 208.417C462.867 208.575 464.533 208.417 464.98 208.777C465.715 209.286 464.413 211.789 464.581 213.048Z" fill="#A0616A"/>
<path d="M460.341 219.033C460.565 216.311 462.493 214.039 465.125 213.396C466.155 213.163 467.271 213.192 468.19 212.677C469.769 211.789 470.245 209.623 471.761 208.628C473.277 207.632 475.428 208.186 476.747 209.443C478.066 210.701 478.735 212.493 479.274 214.246C480.078 216.616 480.515 219.097 480.568 221.602C480.588 222.06 480.516 222.518 480.357 222.947C480.071 223.448 479.711 223.902 479.288 224.292C478.145 225.586 477.618 227.318 477.844 229.036C477.981 230.635 477.836 232.246 477.416 233.794C476.454 238.077 475.491 242.355 474.716 246.676C474.534 247.472 474.474 248.291 474.538 249.104C474.687 250.274 475.327 251.382 475.188 252.552C475.052 253.097 474.95 253.65 474.885 254.208C474.916 254.63 475.014 255.044 475.173 255.436C476.266 258.636 479.216 265.968 479.187 269.357C474.062 268.032 466.506 267.735 461.212 267.711C459.756 267.696 458.301 267.761 456.852 267.905C453.372 268.284 449.811 269.309 446.437 268.362C443.304 267.483 440.532 264.963 437.293 265.278C436.591 263.424 437.418 257.233 438.078 255.358C440.648 247.978 441.148 240.025 439.522 232.377C438.93 229.628 439.743 226.71 439.084 223.981C438.963 223.335 438.718 222.72 438.362 222.17C437.997 221.615 437.376 221.287 436.716 221.301C436.656 216.911 437.059 212.528 437.919 208.224C438.237 206.695 438.881 204.889 440.436 204.626C441.812 204.389 442.967 205.564 444.074 206.423C445.209 207.309 446.524 207.933 447.924 208.249C448.488 208.317 449.029 208.516 449.503 208.831C450.162 209.385 450.258 210.38 450.798 211.055C451.76 212.264 453.911 212.162 454.595 213.556C454.744 213.971 454.865 214.396 454.956 214.828C455.279 215.656 455.83 216.374 456.544 216.897C457.616 217.914 458.92 218.647 460.341 219.033Z" fill="#F86D70"/>
<path d="M451.108 191.295C450.934 190.638 450.963 189.857 451.497 189.417C451.764 189.211 452.113 189.134 452.4 188.938C452.803 188.603 453.134 188.191 453.371 187.726C454.867 185.66 457.655 184.962 459.968 186.073C461.721 186.979 462.779 188.789 464.338 190.011C465.129 190.643 466.046 191.113 466.843 191.745C468.437 193.104 469.571 194.913 470.09 196.928C470.606 198.929 470.907 200.977 470.989 203.04C471.071 203.66 471.047 204.288 470.916 204.899C470.754 205.412 470.514 205.896 470.202 206.336C468.6 208.731 466.488 210.906 463.842 212.142C461.197 213.378 457.978 213.579 455.366 212.286C455.103 212.181 454.877 212.003 454.715 211.773C454.567 211.423 454.531 211.037 454.614 210.667C454.755 209.202 454.462 207.729 453.769 206.427C453.283 205.469 452.555 204.645 452.167 203.654C451.806 202.544 451.651 201.378 451.71 200.214C451.667 197.201 451.875 194.198 451.108 191.295Z" fill="#2D293D"/>
<defs>
<linearGradient id="paint0_linear_9071_3524" x1="487.233" y1="157.968" x2="410.979" y2="157.968" gradientUnits="userSpaceOnUse">
<stop stop-color="#808080" stop-opacity="0.25"/>
<stop offset="0.54" stop-color="#808080" stop-opacity="0.12"/>
<stop offset="1" stop-color="#808080" stop-opacity="0.1"/>
</linearGradient>
</defs>
</svg>
