<svg width="860" height="845" viewBox="0 0 860 845" fill="none" xmlns="http://www.w3.org/2000/svg">
<path opacity="0.2" d="M318.188 332.197C295.636 350.578 273.788 371.146 260.06 397.095C239.872 435.245 240.184 483.235 260.901 518.61C278.442 548.603 308.023 568.133 333.33 591.301C364.509 619.833 389.735 654.605 413.61 689.965C426.438 708.957 439.374 728.653 458.111 741.373C484.128 759.03 519.203 760.776 549.834 749.44C580.465 738.103 606.686 714.701 625.515 686.888C635.534 672.088 643.823 655.362 645.019 637.769C646.284 619.154 639.54 601.16 640.94 582.545C642.237 565.295 650.446 548.979 660.04 534.311C672.567 515.159 687.73 497.868 705.082 482.949C724.749 466.059 746.899 452.584 766.63 435.831C786.362 419.078 804.221 397.867 810.398 372.632C816.208 348.91 811.102 324.587 804.904 301.734C794.813 264.392 781.699 227.935 765.692 192.722C754.945 169.124 742.672 145.85 724.699 127.785C690.337 93.2396 635.625 81.8874 588.375 99.4898C549.228 114.075 517.616 145.73 490.394 178.864C465.569 209.079 442.923 247.513 410.741 269.939C380.034 291.314 347.646 308.198 318.188 332.197Z" fill="#1B51E5"/>
<path opacity="0.2" d="M141.832 433.827C135.338 475.642 131.734 519.137 142.15 560.542C157.459 621.423 204.516 672.986 261.36 691.054C309.529 706.396 360.531 698.711 410.455 699.119C471.951 699.608 533.083 712.635 593.326 727.613C625.69 735.653 658.854 744.348 691.5 739.859C736.826 733.619 776.458 701.367 798.547 659.301C820.637 617.235 826.21 566.422 819.495 518.037C815.922 492.289 808.603 466.145 792.768 445.967C776.014 424.617 751.202 411.734 734.595 390.252C719.203 370.347 712.197 344.724 708.292 319.532C703.194 286.642 702.759 253.196 706.999 220.183C711.826 182.786 722.66 146.663 727.689 109.352C732.718 72.0415 731.382 31.7341 713.496 -1.55024C696.684 -32.8427 667.482 -54.1613 638.532 -72.8267C591.265 -103.362 541.59 -130 489.998 -152.477C455.402 -167.52 419.471 -180.729 382.447 -182.759C311.656 -186.65 241.436 -145.666 207.474 -80.6527C179.339 -26.7869 175.969 38.1926 178.787 100.499C181.355 157.317 194.282 220.897 181.311 276.457C168.913 329.446 150.325 379.218 141.832 433.827Z" fill="#1B51E5"/>
<path d="M357.708 633C357.708 633 350.287 591.197 322.742 570.482C311.184 561.788 302.727 549.966 299.033 536.503C297.295 530.124 296.182 523.592 295.708 517" stroke="#535461" stroke-width="2"/>
<path d="M278.657 504.204C280.91 508.766 295.969 518 295.969 518C295.969 518 297.861 500.749 295.591 496.182C293.321 491.614 287.704 489.709 283.017 491.923C278.33 494.137 276.386 499.637 278.657 504.204Z" fill="#1B51E5"/>
<path d="M277.275 535.656C281.768 538.223 299.708 537.995 299.708 537.995C299.708 537.995 291.614 522.866 287.138 520.299C282.661 517.732 276.808 519.087 274.089 523.327C271.371 527.568 272.787 533.089 277.275 535.656Z" fill="#1B51E5"/>
<path d="M300.093 577C305.339 577.074 320.708 568.3 320.708 568.3C320.708 568.3 305.635 559.081 300.383 559.001C295.131 558.921 290.812 562.892 290.71 567.861C290.608 572.829 294.841 576.908 300.093 577Z" fill="#1B51E5"/>
<path d="M324.557 605.907C329.778 606.829 346.708 600.611 346.708 600.611C346.708 600.611 333.327 589.058 328.112 588.153C322.897 587.248 317.855 590.443 316.875 595.367C315.895 600.29 319.33 604.991 324.557 605.907Z" fill="#1B51E5"/>
<path d="M318.134 529.975C316.336 534.61 302.153 545 302.153 545C302.153 545 298.398 528.52 300.196 523.885C301.993 519.25 307.467 516.857 312.415 518.537C317.364 520.218 319.932 525.345 318.134 529.975Z" fill="#1B51E5"/>
<path d="M346.748 563.819C343.553 567.867 326.708 574 326.708 574C326.708 574 328.42 556.681 331.593 552.639C334.917 548.571 340.738 547.808 344.956 550.886C346.953 552.294 348.282 554.493 348.622 556.95C348.963 559.407 348.283 561.898 346.748 563.819Z" fill="#1B51E5"/>
<path d="M369.589 600.089C367.076 604.464 351.099 613 351.099 613C351.099 613 349.696 596.172 352.209 591.796C354.722 587.421 360.646 585.732 365.449 588.022C370.252 590.311 372.096 595.713 369.589 600.089Z" fill="#1B51E5"/>
<path opacity="0.25" d="M278.657 504.204C280.91 508.766 295.969 518 295.969 518C295.969 518 297.861 500.749 295.591 496.182C293.321 491.614 287.704 489.709 283.017 491.923C278.33 494.137 276.386 499.637 278.657 504.204Z" fill="black"/>
<path opacity="0.25" d="M277.275 535.656C281.768 538.223 299.708 537.995 299.708 537.995C299.708 537.995 291.614 522.866 287.138 520.299C282.661 517.732 276.808 519.087 274.089 523.327C271.371 527.568 272.787 533.089 277.275 535.656Z" fill="black"/>
<path opacity="0.25" d="M300.093 577C305.339 577.074 320.708 568.3 320.708 568.3C320.708 568.3 305.635 559.081 300.383 559.001C295.131 558.921 290.812 562.892 290.71 567.861C290.608 572.829 294.841 576.908 300.093 577Z" fill="black"/>
<path opacity="0.25" d="M324.557 605.907C329.778 606.829 346.708 600.611 346.708 600.611C346.708 600.611 333.327 589.058 328.112 588.153C322.897 587.248 317.855 590.443 316.875 595.367C315.895 600.29 319.33 604.991 324.557 605.907Z" fill="black"/>
<path opacity="0.25" d="M318.134 529.975C316.336 534.61 302.153 545 302.153 545C302.153 545 298.398 528.52 300.196 523.885C301.993 519.25 307.467 516.857 312.415 518.537C317.364 520.218 319.932 525.345 318.134 529.975Z" fill="black"/>
<path opacity="0.25" d="M346.748 563.819C343.553 567.867 326.708 574 326.708 574C326.708 574 328.42 556.681 331.593 552.639C334.917 548.571 340.738 547.808 344.956 550.886C346.953 552.294 348.282 554.493 348.622 556.95C348.963 559.407 348.283 561.898 346.748 563.819Z" fill="black"/>
<path opacity="0.25" d="M369.589 600.089C367.076 604.464 351.099 613 351.099 613C351.099 613 349.696 596.172 352.209 591.796C354.722 587.421 360.646 585.732 365.449 588.022C370.252 590.311 372.096 595.713 369.589 600.089Z" fill="black"/>
<path d="M356.832 632C356.832 632 368.312 590.842 351.758 561.339C344.813 548.962 342.132 534.899 344.619 521.145C345.813 514.606 347.65 508.194 350.104 502" stroke="#535461" stroke-width="2"/>
<path d="M340.714 484.189C340.896 489.087 350.912 503 350.912 503C350.912 503 359.888 488.479 359.706 483.575C359.524 478.671 355.127 474.836 349.883 475.005C344.639 475.174 340.527 479.285 340.714 484.189Z" fill="#1B51E5"/>
<path d="M325.393 512.209C328.368 516.298 344.708 523 344.708 523C344.708 523 343.807 505.965 340.832 501.87C337.711 497.755 331.999 496.779 327.726 499.63C325.702 500.923 324.3 503.014 323.857 505.402C323.414 507.789 323.971 510.256 325.393 512.209Z" fill="#1B51E5"/>
<path d="M328.21 559.089C332.961 561.162 350.708 559.049 350.708 559.049C350.708 559.049 340.905 544.899 336.154 542.827C331.402 540.754 325.778 542.713 323.583 547.205C321.389 551.696 323.464 557.016 328.21 559.089Z" fill="#1B51E5"/>
<path d="M337.929 594.434C342.36 597.253 360.708 598 360.708 598C360.708 598 353.383 582.417 348.957 579.604C344.534 576.78 338.636 577.775 335.431 581.886C333.963 583.843 333.398 586.313 333.872 588.697C334.347 591.08 335.818 593.161 337.929 594.434Z" fill="#1B51E5"/>
<path d="M365.029 523.25C361.341 526.837 343.708 531 343.708 531C343.708 531 347.448 514.352 351.13 510.766C354.909 507.177 360.836 507.068 364.747 510.515C366.579 512.115 367.652 514.401 367.706 516.821C367.76 519.241 366.789 521.572 365.029 523.25Z" fill="#1B51E5"/>
<path d="M376.67 564.338C371.976 566.793 353.708 565.803 353.708 565.803C353.708 565.803 362.66 550.57 367.353 548.132C372.046 545.695 377.94 547.318 380.51 551.794C383.08 556.27 381.386 561.883 376.67 564.338Z" fill="#1B51E5"/>
<path d="M382.054 606.005C377.866 609.089 359.708 611 359.708 611C359.708 611 365.826 595.031 370.015 591.948C374.238 588.871 380.161 589.502 383.613 593.398C385.204 595.236 385.94 597.643 385.644 600.037C385.348 602.431 384.047 604.595 382.054 606.005Z" fill="#1B51E5"/>
<path fill-rule="evenodd" clip-rule="evenodd" d="M826.991 386.668C827.719 388.328 828.989 391.225 828.742 391.903C828.603 392.282 829.024 393.175 829.512 394.21C830.233 395.74 831.1 397.58 830.516 398.52C829.737 399.898 829.047 401.323 828.45 402.789C828.45 402.789 824.408 410.472 822.347 411.928C820.287 413.383 810.836 425.592 810.836 425.592C810.836 425.592 800.698 437.212 800.698 440.799C800.698 440.799 800.125 439.848 799.181 438.421L800.692 464.032C800.692 464.032 797.172 467.017 796.399 467.361C792.792 469.836 786.69 465.911 785.746 465.138C785.248 464.725 781.87 464.834 778.876 465.023C779.54 478.883 776.73 481.542 776.73 481.542L776.392 493.574C776.392 493.574 776.827 511.943 775.533 514.842C774.24 517.741 774.24 529.446 774.24 529.446C774.24 529.446 775.098 534.992 774.154 536.19C773.209 537.387 773.902 541.839 774.589 544.131C775.276 546.423 774.669 552.152 774.669 552.152L774.497 584.438C774.497 584.438 773.558 592.804 772.351 594.007C771.645 594.724 771.382 595.768 771.664 596.734C771.664 596.734 770.633 601.513 770.891 602.372C771.148 603.231 771.669 605.191 769.689 606.131C767.708 607.07 768.223 610.061 768.223 610.061C768.014 610.012 767.802 609.974 767.588 609.946C767.645 610.296 767.714 610.657 767.794 611.001C767.892 611.641 768.127 612.252 768.481 612.794C769.345 613.734 769.86 617.916 769.86 617.916C769.86 617.916 772.952 624.064 772.608 625.433C772.356 626.453 772.047 628.287 771.904 629.152C771.835 629.444 771.835 629.622 771.835 629.622C771.835 629.622 770.118 633.38 760.581 634.744C751.044 636.108 751.044 631.581 751.044 631.581C751.044 631.581 751.079 631.094 751.142 630.367C751.17 630.071 751.201 629.735 751.234 629.374C751.424 627.3 751.688 624.419 751.903 623.726C752.218 622.614 751.645 617.744 751.645 617.744L751.542 612.656V611.642C750.655 611.82 750.123 611.94 750.123 611.94C748.673 608.966 747.409 605.904 746.339 602.773C745.875 601.492 745.987 600.072 746.645 598.879C747.303 597.686 748.443 596.835 749.774 596.545C751.582 596.27 748.486 593.107 748.486 593.107C748.486 593.107 748.829 592.678 747.97 589.607C747.138 586.628 748.082 579.142 748.375 576.824L748.4 576.623C748.657 574.572 749.945 564.666 749.945 564.666C749.945 564.666 749.258 552.107 749.774 551.597C750.289 551.087 752.018 546.131 751.153 544.509C750.289 542.888 748.915 532.214 748.915 531.612C748.915 531.01 747.799 517.174 747.799 517.174C747.799 517.174 746.78 507.577 747.037 505.525C747.295 503.474 746.35 495.871 746.35 495.871C746.35 489.529 742.658 482.693 742.658 482.693L742.567 482.94L734.552 503.795C734.552 503.795 733.293 510.115 732.148 513.701C731.435 516.15 730.867 518.639 730.448 521.156L730.374 521.608C730.363 521.67 730.351 521.728 730.339 521.784C730.315 521.902 730.293 522.005 730.293 522.095L730.242 522.433C730.242 522.433 730.843 526.965 729.899 528.415C728.954 529.865 727.924 534.219 727.924 535.416C727.924 536.614 728.004 541.226 728.004 541.226C728.004 541.226 728.382 550.365 727.431 551.39C726.481 552.416 726.996 553.27 726.996 553.27C726.996 553.27 728.507 560.145 727.821 561.939C727.134 563.732 727.649 567.914 727.649 567.914C727.649 567.914 726.281 581.155 726.103 581.837C725.926 582.519 724.976 587.825 726.012 588.249C727.048 588.673 729.017 591.234 729.017 591.234C729.017 591.234 729.452 602.412 727.906 603.266C726.361 604.119 727.214 608.48 727.214 608.48L726.555 608.6C726.618 608.915 726.687 609.253 726.744 609.591C726.988 610.596 727.09 611.629 727.048 612.662C726.94 613.426 727.158 614.199 727.649 614.794L728.032 618.283L728.164 619.498C728.164 619.498 720.951 624.19 717.339 623.508C713.727 622.826 710.029 624.706 710.029 624.706C707.538 627.408 704.406 629.436 700.922 630.601C695.077 632.549 686.92 631.793 682.277 630.258C680.079 629.53 679.907 628.579 680.966 627.433C682.082 626.208 684.567 624.74 687.488 623.014C687.641 622.923 687.795 622.832 687.95 622.741C693.881 619.24 700.235 612.318 700.235 612.318C700.235 612.318 700.343 610.611 701.38 609.843C702.007 609.298 702.582 608.696 703.097 608.044L703.595 607.471L703.023 607.385L703.881 604.578C703.83 604.675 703.263 605.586 702.851 602.091C702.427 598.419 706.034 600.212 706.034 600.212C706.034 600.212 708.867 600.905 704.316 596.459C699.765 592.013 701.969 587.487 702.255 587.487C702.542 587.487 703.114 580.915 703.114 580.915C703.114 580.915 703.881 576.984 703.286 573.908C702.69 570.831 702.175 561.268 702.175 561.268C702.175 561.268 702.599 554.015 701.826 551.362C701.118 548.931 702.14 544.717 702.514 543.173C702.548 543.031 702.577 542.912 702.599 542.819C702.856 541.707 701.826 531.543 701.826 531.543C701.826 531.543 702.69 526.771 702.175 523.264C701.66 519.758 702.69 506.86 702.69 506.86L704.288 492.044C704.288 492.044 705.404 487.432 705.232 485.552C705.06 483.673 706.52 477.095 706.52 477.095C706.434 475.695 706.669 474.294 707.207 472.999C707.553 472.147 707.786 471.253 707.9 470.34C705.421 468.501 703.944 465.224 703.944 465.224C703.754 464.899 703.58 464.564 703.423 464.221L704.797 458.417C704.797 458.417 704.883 450.384 705.742 448.849C706.6 447.313 707.115 442.873 707.115 442.873C707.115 442.873 708.695 433.087 708.97 430.978C708.669 430.924 708.361 430.924 708.06 430.978C708.06 430.978 708.14 430.577 708.277 429.907C708.032 429.889 707.786 429.904 707.545 429.953C707.545 429.953 711.243 411.4 713.218 407.229C715.193 403.058 714.849 391.599 714.849 391.599C714.849 391.599 710.979 392.797 710.808 393.822C710.636 394.848 705.656 401.763 705.656 401.763C705.656 401.763 704.517 405.952 699.359 408.685C694.201 411.418 688.534 408.169 687.675 407.063C686.903 406.06 671.876 399.466 668.865 398.154L668.338 397.925L668.373 397.747V397.655L667.8 397.415L668.373 397.592C668.453 397.226 668.613 396.567 668.854 395.707C668.88 395.677 668.882 395.659 668.884 395.631C668.885 395.61 668.887 395.585 668.899 395.547C668.912 395.505 668.921 395.474 668.93 395.439C668.941 395.396 668.955 395.347 668.98 395.266C668.992 395.225 669.005 395.183 669.018 395.141C669.053 395.029 669.089 394.913 669.123 394.796L669.174 394.624C669.193 394.564 669.214 394.504 669.234 394.443C669.268 394.342 669.302 394.239 669.334 394.132C669.363 394.109 669.363 394.057 669.363 394.057C669.621 393.266 669.936 392.401 670.308 391.507L668.098 388.643L667.835 388.448L657.559 378.839C655.73 377.133 654.696 374.739 654.708 372.237C654.72 369.734 655.777 367.35 657.622 365.661C658.597 364.763 659.031 365.934 659.177 366.328C659.196 366.378 659.21 366.416 659.219 366.435C665.665 367.226 676.639 377.539 676.639 377.539L677.99 379.04L678.493 379.613C678.605 379.152 678.557 378.667 678.356 378.238C678.047 377.779 680.199 379.785 681.218 380.747C681.217 380.736 681.217 380.724 681.218 380.713C681.23 380.737 681.243 380.76 681.258 380.782L681.733 381.229C683.279 383.962 690.068 385.497 690.068 385.497L692.988 383.704C693.245 380.375 697.974 376.444 697.974 376.444C697.974 376.444 699.37 374.903 700.12 371.574C700.87 368.245 703.732 368.669 703.732 368.669L704.076 363.805C704.076 363.805 706.623 362.43 706.366 359.703C706.108 356.975 709.113 351.681 709.113 351.681C709.113 351.681 710.464 351.171 710.745 345.786C711.025 340.4 713.607 340.056 713.607 340.056L720.911 339.632C721.512 337.581 737.151 335.106 737.151 335.106C737.151 335.106 739.899 334.074 741.359 331.857C742.818 329.64 744.37 330.408 744.37 330.408L744.599 330.631C744.59 330.555 744.582 330.49 744.573 330.42C744.563 330.347 744.553 330.269 744.541 330.167C744.533 330.091 744.52 330.017 744.508 329.945C744.487 329.825 744.467 329.708 744.467 329.594C737.573 326.166 733.208 319.131 733.196 311.426V311.133V310.612C732.642 310.872 732.068 311.085 731.478 311.248C731.335 311.288 731.187 311.322 731.043 311.351C730.468 311.473 729.879 311.52 729.292 311.489C729.231 311.484 729.171 311.475 729.112 311.467C729.026 311.455 728.941 311.443 728.857 311.443C728.603 311.407 728.352 311.352 728.107 311.277L727.987 311.248C728.072 310.973 728.17 310.709 728.267 310.446C729.113 308.127 730.433 306.009 732.142 304.229C732.54 303.88 732.865 303.456 733.098 302.98C733.254 302.56 733.28 302.103 733.173 301.668C732.979 300.981 732.713 300.316 732.377 299.686L732.308 299.525L732.223 299.33C732.211 299.301 732.2 299.273 732.189 299.244C732.149 299.143 732.109 299.044 732.074 298.941C732.071 298.918 732.071 298.895 732.074 298.872C732.067 298.851 732.059 298.828 732.051 298.804C732.012 298.689 731.965 298.55 731.965 298.517V298.397C731.932 298.255 731.907 298.111 731.891 297.967C731.879 297.814 731.879 297.661 731.891 297.508C731.891 297.49 731.889 297.473 731.888 297.457C731.886 297.423 731.883 297.388 731.891 297.331C731.902 297.245 731.919 297.147 731.936 297.073C731.95 297.013 731.968 296.949 731.983 296.893C731.987 296.88 731.99 296.867 731.994 296.855C732 296.832 732.01 296.809 732.019 296.786C732.035 296.749 732.051 296.711 732.051 296.672C732.378 295.82 732.925 295.071 733.637 294.5C734.081 294.131 734.56 293.812 735.039 293.492C735.652 293.083 736.265 292.674 736.802 292.163C737.888 291.13 738.609 289.748 739.328 288.37C740.121 286.849 740.913 285.333 742.189 284.296C744.301 282.577 747.209 282.606 749.837 282.973C750.206 283.024 750.578 283.081 750.951 283.137C753.225 283.482 755.535 283.833 757.719 283.139C758.721 282.817 759.647 282.288 760.574 281.757C761.398 281.285 762.224 280.812 763.106 280.486C767.021 279.025 771.784 280.967 773.805 284.852C774.487 286.172 774.866 287.617 775.245 289.062C775.537 290.175 775.829 291.289 776.26 292.346C776.584 293.142 776.983 293.899 777.381 294.656C777.786 295.423 778.19 296.19 778.516 296.999C779.262 298.913 779.554 300.974 779.369 303.02C779.34 303.381 779.289 303.736 779.231 304.092C779.225 304.136 779.214 304.18 779.203 304.224C779.186 304.294 779.168 304.365 779.168 304.435C779.117 304.693 779.06 304.951 778.997 305.203L778.911 305.524C778.813 305.874 778.693 306.246 778.573 306.561C778.453 306.876 778.321 307.191 778.178 307.495C777.863 308.177 777.507 308.843 777.151 309.508C776.391 310.932 775.633 312.35 775.281 313.912C775.16 314.509 775.07 315.111 775.012 315.717C775.006 315.764 774.997 315.812 774.989 315.859C774.969 315.972 774.949 316.087 774.949 316.204C774.949 316.227 774.951 316.243 774.953 316.26C774.957 316.293 774.961 316.328 774.949 316.416C774.932 316.548 774.904 316.737 774.892 316.806C774.887 316.837 774.883 316.857 774.878 316.883C774.872 316.914 774.865 316.951 774.852 317.023C774.846 317.058 774.841 317.096 774.835 317.136C774.819 317.248 774.802 317.366 774.772 317.413C774.732 317.476 774.732 317.545 774.732 317.608C774.686 317.808 774.629 317.997 774.566 318.181C774.267 319.12 773.611 319.904 772.74 320.364C772.715 320.373 772.69 320.386 772.665 320.399C772.616 320.424 772.566 320.45 772.517 320.45C772.331 320.507 772.138 320.538 771.944 320.541C771.931 320.568 771.918 320.595 771.905 320.622C771.838 320.763 771.769 320.906 771.692 321.045C770.829 322.647 769.755 324.125 768.498 325.44C768.7 326.208 768.96 326.958 769.277 327.686L769.311 327.749C769.333 327.785 769.366 327.839 769.408 327.908C769.892 328.701 771.592 331.485 772.545 332.212L776.232 335.031C776.232 335.031 779.93 336.75 781.218 336.75C782.506 336.75 789.467 338.543 790.331 339.483C790.742 339.812 791.258 339.983 791.785 339.964C792.392 339.926 792.996 339.851 793.594 339.741L793.937 339.85C794.344 339.793 794.624 339.741 794.624 339.741C794.624 339.741 797.452 340.704 799.948 341.276C802.444 341.849 803.646 345.958 803.131 347.579C802.711 349.22 803.168 350.962 804.338 352.186C805.369 353.211 805.884 356.54 805.884 356.54C807.146 356.951 808.197 357.842 808.809 359.021C809.405 360.316 809.445 362.688 809.445 364.017C809.41 364.607 809.41 364.997 809.41 364.997C809.422 364.997 814.568 365.088 815.083 369.357C815.598 373.625 820.321 375.591 820.321 375.591C820.321 375.591 823.847 379.091 823.847 380.713C823.847 381.872 825.208 383.687 825.983 384.722C826.293 385.135 826.509 385.424 826.509 385.497C826.509 385.569 826.709 386.026 826.991 386.668ZM798.488 408.312C798.551 407.017 803.989 401.122 806.565 400.864C806.565 400.864 806.977 397.392 805.861 397.306C804.745 397.22 803.8 394.487 803.8 394.487C803.8 394.487 798.402 388.167 796.685 382.81L796.593 382.942C796.593 382.942 796.771 389.857 796.25 391.393C795.952 392.287 796.611 401.483 797.217 409.028C797.24 409.329 797.264 409.628 797.289 409.923C797.307 410.152 797.326 410.379 797.343 410.604C797.876 409.894 798.448 408.988 798.488 408.312Z" fill="url(#paint0_linear_9071_1683)"/>
<path d="M668.708 398.903C668.708 398.903 671.904 382.088 682.19 382L689.708 397.514L684.696 400.983C684.696 400.983 673.808 401.329 668.708 398.903Z" fill="#65617D"/>
<path opacity="0.1" d="M689.708 397.511L684.696 400.982C684.696 400.982 677.032 401.229 671.553 399.874C670.576 399.642 669.623 399.316 668.708 398.901C668.708 398.901 668.708 398.807 668.767 398.631C668.767 398.631 668.767 398.59 668.767 398.566C669.238 396.454 669.889 394.386 670.712 392.386C671.033 391.629 671.389 390.849 671.775 390.069C673.282 387.137 675.397 384.311 678.294 382.897C679.365 382.369 680.532 382.064 681.723 382H682.027H682.179L682.342 382.346L684.883 387.589L689.708 397.511Z" fill="black"/>
<path d="M773.485 466.237C773.485 466.237 784.181 465.219 785.118 465.984C786.054 466.749 792.131 470.661 795.727 468.193C799.324 465.725 796.924 457.131 796.924 456.791C796.924 456.452 796.583 444.278 796.583 444.278L790.165 435.684L782.129 420.622L765.708 419L766.136 442.921L766.049 455.175L773.485 466.237Z" fill="#65617D"/>
<path opacity="0.1" d="M773.485 466.237C773.485 466.237 784.181 465.219 785.118 465.984C786.054 466.749 792.131 470.661 795.727 468.193C799.324 465.725 796.924 457.131 796.924 456.791C796.924 456.452 796.583 444.278 796.583 444.278L790.165 435.684L782.129 420.622L765.708 419L766.136 442.921L766.049 455.175L773.485 466.237Z" fill="black"/>
<path d="M679.708 382.535C679.708 382.535 678.866 392.835 672.467 393C672.467 393 670.651 391.904 668.209 390.078C662.585 385.861 653.664 377.753 656.129 370.209C659.665 359.407 676.845 379.339 676.845 379.339L678.16 380.823L679.708 382.535Z" fill="#FBBEBE"/>
<path opacity="0.1" d="M679.708 382.687C679.708 382.687 678.869 392.837 672.491 393C672.491 393 670.681 391.92 668.247 390.121L667.708 389.429C668.791 389.989 669.984 390.307 671.203 390.363C673.167 390.44 674.975 389.305 675.742 387.512C676.413 386.207 677.003 384.862 677.507 383.485C677.817 382.683 678.038 381.85 678.165 381L679.708 382.687Z" fill="black"/>
<path d="M677.273 401L675.865 399.163L671.123 392.965L668.708 389.804C669.769 390.368 670.94 390.687 672.136 390.74C673.711 390.779 675.475 390.176 676.588 387.889C677.245 386.579 677.823 385.23 678.319 383.849C679.098 381.595 679.087 380.468 678.809 380.057C678.531 379.646 680.556 381.567 681.53 382.502L681.563 382.536L682.02 382.97L682.187 383.308L684.574 388.137C684.574 388.137 684.574 388.204 684.574 388.339C684.808 389.889 685.615 399.62 677.273 401Z" fill="#E7EFFD"/>
<path d="M727.708 618.652C727.708 618.652 720.614 623.367 717.07 622.706C713.525 622.046 709.89 623.911 709.89 623.911C707.446 626.619 704.364 628.654 700.935 629.825C695.227 631.794 687.18 631.018 682.619 629.477C680.462 628.747 680.285 627.809 681.324 626.645C682.465 625.347 685.125 623.789 688.173 621.936C694 618.426 700.244 611.51 700.244 611.51C700.244 611.51 700.33 609.773 701.346 609.031C701.971 608.485 702.544 607.88 703.058 607.224C703.965 606.135 704.816 605 704.816 605L725.682 605.614C725.682 605.614 726.036 607.137 726.316 608.695C726.554 609.706 726.652 610.745 726.607 611.782C726.499 612.544 726.705 613.318 727.177 613.92L727.554 617.395L727.708 618.652Z" fill="#65617D"/>
<path d="M771.682 624.607C771.434 625.61 771.118 627.406 770.999 628.251L770.926 628.715C770.926 628.715 769.231 632.404 759.984 633.747C750.736 635.09 750.708 630.642 750.708 630.642C750.708 630.642 750.742 630.166 750.799 629.446C750.962 627.486 751.296 623.728 751.544 622.929C751.872 621.841 751.29 617.059 751.29 617.059L751.194 612.066L751.121 608.598L766.502 607C766.597 608.154 766.763 609.301 767 610.434C767.094 611.063 767.323 611.665 767.672 612.196C768.508 613.12 769.005 617.229 769.005 617.229C769.005 617.229 772.016 623.264 771.682 624.607Z" fill="#65617D"/>
<path opacity="0.1" d="M726.084 605.671C726.084 605.671 726.433 607.153 726.708 608.67C724.488 609.081 714.784 610.767 712.361 609.589C709.611 608.253 703.708 607.503 703.708 607.503L703.804 607.165C704.698 606.105 705.535 605 705.535 605L726.084 605.671Z" fill="black"/>
<path opacity="0.1" d="M766.708 610.389C762.784 609.735 754.195 611.318 750.782 612L750.708 608.577L766.196 607C766.296 608.139 766.466 609.271 766.708 610.389Z" fill="black"/>
<path d="M775.475 482.422L775.139 494.387C775.139 494.387 775.56 512.632 774.296 515.518C773.032 518.403 773.032 530.029 773.032 530.029C773.032 530.029 773.875 535.541 772.947 536.729C772.019 537.916 772.696 542.327 773.368 544.621C774.04 546.915 773.454 552.6 773.454 552.6L773.283 584.674C773.283 584.674 772.361 592.986 771.176 594.179C770.485 594.896 770.228 595.932 770.505 596.892C770.505 596.892 769.497 601.641 769.747 602.496C769.998 603.35 770.505 605.295 768.569 606.224C766.633 607.153 767.134 610.13 767.134 610.13C762.506 609.023 749.366 612 749.366 612C747.946 609.051 746.708 606.017 745.66 602.914C745.202 601.644 745.309 600.236 745.954 599.051C746.6 597.866 747.72 597.019 749.03 596.725C750.795 596.467 747.766 593.33 747.766 593.33C747.766 593.33 748.102 592.905 747.259 589.854C746.417 586.802 747.424 578.956 747.681 576.948C747.937 574.941 749.195 565.069 749.195 565.069C749.195 565.069 748.523 552.6 749.03 552.089C749.537 551.579 751.216 546.657 750.379 545.046C749.542 543.434 748.182 532.828 748.182 532.232C748.182 531.635 747.094 517.892 747.094 517.892C747.094 517.892 746.081 508.302 746.337 506.266C746.593 504.229 745.66 496.681 745.66 496.681C745.66 490.372 742.039 483.609 742.039 483.609L741.948 483.856L734.142 504.574C734.142 504.574 732.878 510.849 731.785 514.411C731.094 516.833 730.545 519.294 730.14 521.781L730.066 522.234C730.066 522.423 730.009 522.584 729.992 522.71L729.941 523.054C729.941 523.054 730.51 527.551 729.599 528.997C728.688 530.442 727.663 534.767 727.663 535.954C727.663 537.142 727.749 541.725 727.749 541.725C727.749 541.725 728.085 550.804 727.179 551.825C726.274 552.846 726.753 553.69 726.753 553.69C726.753 553.69 728.267 560.573 727.595 562.345C726.923 564.117 727.43 568.281 727.43 568.281C727.43 568.281 726.081 581.439 725.916 582.116C725.751 582.793 724.817 588.059 725.83 588.483C726.844 588.908 728.774 591.449 728.774 591.449C728.774 591.449 729.201 602.57 727.68 603.413C726.16 604.257 727.003 608.576 727.003 608.576C727.003 608.576 714.797 610.95 712.019 609.591C709.24 608.232 703.257 607.469 703.257 607.469L704.094 604.681C704.042 604.779 703.485 605.685 703.086 602.209C702.67 598.561 706.206 600.339 706.206 600.339C706.206 600.339 708.984 601.022 704.498 596.611C700.012 592.2 702.221 587.697 702.477 587.697C702.733 587.697 703.325 581.17 703.325 581.17C703.325 581.17 704.082 577.264 703.49 574.207C702.898 571.149 702.397 561.645 702.397 561.645C702.397 561.645 702.818 554.435 702.061 551.808C701.304 549.181 702.562 544.42 702.818 543.319C703.075 542.218 702.033 532.146 702.033 532.146C702.033 532.146 702.875 527.396 702.369 523.921C701.862 520.445 702.875 507.625 702.875 507.625L704.39 492.861C704.39 492.861 705.483 488.272 705.318 486.408C705.153 484.544 706.587 478.011 706.587 478.011C706.501 476.62 706.731 475.227 707.259 473.938C708.102 472.218 708.438 466.642 708.438 466.642L716.528 447.972L720.513 431.51L773.989 431C773.989 431 774.188 432.428 774.513 435.015C774.837 437.602 775.292 441.445 775.799 446.188C776.266 450.496 776.778 455.561 777.274 461.199C778.891 479.198 775.475 482.422 775.475 482.422Z" fill="#3F3D56"/>
<path d="M771.708 333.727L759.006 347C759.006 347 742.708 340.613 744.425 338.434C745.086 337.588 745.005 334.92 744.599 331.979C744.019 327.324 742.708 321.971 742.708 321.971C742.708 321.971 771.192 317.429 768.808 322.135C767.932 323.838 768.083 325.859 768.628 327.716C769.318 329.868 770.358 331.898 771.708 333.727Z" fill="#FBBEBE"/>
<path opacity="0.1" d="M768.566 322.13C767.698 323.826 767.284 324.007 767.824 325.855C764.133 329.738 759.435 334 753.593 334C750.467 334.005 747.382 333.294 744.583 331.926C744.008 327.291 742.708 321.96 742.708 321.96C742.708 321.96 770.946 317.439 768.566 322.13Z" fill="black"/>
<path d="M773.708 313.238C773.524 324.206 764.624 333 753.708 333C742.792 333 733.892 324.206 733.708 313.238C733.708 313.141 733.708 313.044 733.708 312.953C733.787 301.855 742.803 292.922 753.847 293.001C764.892 293.079 773.781 302.14 773.703 313.238H773.708Z" fill="#FBBEBE"/>
<path opacity="0.1" d="M776.708 445.693C774.026 445.693 765.086 445.787 755.093 445.935H754.973L751.674 445.989H751.571C739.724 446.17 728.045 443.966 723.365 444.383C713.406 445.271 726.945 435.609 726.945 435.609C734.37 437.328 742.007 438.066 749.642 437.802L752.52 437.66C761.569 437.172 770.67 436.36 775.425 435C775.741 437.512 776.196 441.158 776.708 445.693Z" fill="black"/>
<path d="M776.708 445.693C774.026 445.693 765.086 445.786 755.093 445.935H754.973L751.674 445.989H751.571C739.724 446.17 728.045 443.965 723.365 444.382C713.406 445.276 726.945 435.604 726.945 435.604C734.37 437.323 742.007 438.062 749.642 437.798L752.52 437.655C761.569 437.167 770.67 436.355 775.425 435C775.741 437.513 776.196 441.145 776.708 445.693Z" fill="#5F5D7E"/>
<path opacity="0.1" d="M748.288 339.036L732.719 346.301L720.708 439C720.708 439 727.812 435.793 731.879 437.819C735.945 439.845 748.465 437.99 748.465 437.99C748.465 437.99 757.617 437.482 758.961 438.498C760.305 439.514 776.211 434.252 776.211 434.252C776.211 434.252 779.071 427.837 776.886 426.833C774.701 425.828 777.584 415.87 777.584 415.87L776.211 349.001L773.5 340.389L766.225 336L758.789 341.907L755.237 342.415L748.288 339.036Z" fill="black"/>
<path d="M748.282 338.042L732.717 345.301L720.708 438C720.708 438 727.811 434.793 731.876 436.819C735.942 438.845 748.46 436.984 748.46 436.984C748.46 436.984 757.609 436.482 758.953 437.492C760.297 438.502 776.211 433.269 776.211 433.269C776.211 433.269 779.07 426.855 776.886 425.85C774.702 424.846 777.572 414.859 777.572 414.859L776.2 348L773.489 339.394L766.215 335L758.781 340.912L755.23 341.42L748.282 338.042Z" fill="#E7EFFD"/>
<path opacity="0.1" d="M747.817 342.396C747.817 342.396 752.301 347.751 752.221 348.86C752.141 349.968 751.964 352.6 751.964 352.6L748.578 359.494C748.578 359.494 746.719 368.078 746.719 369.864C746.719 371.651 743.756 387.1 743.756 387.1L740.193 410.903L735.708 442.1L740.284 450L745.695 445.404L752.891 389.812L754.412 378.85C754.412 378.85 756.019 359.132 756.019 357.093C756.019 355.053 755.093 349.698 755.093 349.698C755.093 349.698 756.191 344.597 760.761 343.379C765.331 342.161 760.424 343.12 760.424 343.12L757.798 341L755.51 341.931C755.51 341.931 749.173 340.018 747.817 342.396Z" fill="black"/>
<path d="M746.803 342.362C746.803 342.362 751.292 347.719 751.206 348.822C751.121 349.926 750.949 352.564 750.949 352.564L747.569 359.461C747.569 359.461 745.705 368.047 745.705 369.835C745.705 371.622 742.743 387.077 742.743 387.077L739.192 410.883L734.708 442.092L739.283 450L744.699 445.402L751.887 389.796L753.414 378.835C753.414 378.835 755.021 359.11 755.021 357.07C755.021 355.029 754.094 349.673 754.094 349.673C754.094 349.673 755.192 344.569 759.761 343.379C764.331 342.19 759.424 343.127 759.424 343.127L756.799 341L754.512 341.937C754.512 341.937 748.158 339.977 746.803 342.362Z" fill="#1B51E5"/>
<path opacity="0.1" d="M744.043 333C744.043 333 743.372 333.513 743.209 336.923C743.046 340.333 740.708 348 740.708 348C740.708 348 749.377 341.865 753.708 342.545L744.043 333Z" fill="black"/>
<path d="M744.043 332C744.043 332 743.372 332.507 743.209 335.919C743.046 339.33 740.708 347 740.708 347C740.708 347 749.377 340.863 753.708 341.549L744.043 332Z" fill="#E7EFFD"/>
<path opacity="0.1" d="M768.387 330L754.708 342.227C754.708 342.227 766.212 349.19 767.711 350.889C769.21 352.588 770.708 334.242 770.708 334.242L768.387 330Z" fill="black"/>
<path d="M768.371 329L754.708 341.229C754.708 341.229 766.203 348.19 767.712 349.889C769.221 351.588 770.708 333.247 770.708 333.247L768.371 329Z" fill="#E7EFFD"/>
<path opacity="0.1" d="M744.445 333.127C744.445 333.127 742.908 332.366 741.458 334.569C740.39 336.006 738.94 337.119 737.27 337.786C737.27 337.786 721.711 340.241 721.093 342.273L713.825 342.697C713.825 342.697 711.259 343.034 711.005 348.368C710.751 353.703 709.382 354.212 709.382 354.212C709.382 354.212 706.389 359.46 706.649 362.167C706.909 364.875 704.338 366.237 704.338 366.237L715.021 393.755C715.021 393.755 715.367 405.098 713.397 409.248C711.427 413.397 707.758 431.769 707.758 431.769C707.758 431.769 709.295 431.431 709.208 432.444C709.122 433.457 707.383 444.555 707.383 444.555C707.383 444.555 706.869 448.956 706.013 450.484C705.158 452.013 705.072 459.962 705.072 459.962L703.708 465.72C703.708 465.72 706.955 472.92 711.912 471.901C716.869 470.883 725.842 451.669 725.842 451.669L731.573 430.922L736.016 410.432L737.298 396.548L739.349 365.813L742.342 345.49C742.342 345.49 745.647 334.552 744.445 333.127Z" fill="black"/>
<path d="M744.45 332.127C744.45 332.127 742.91 331.366 741.461 333.564C740.397 335.002 738.948 336.116 737.278 336.781C737.278 336.781 721.745 339.236 721.122 341.268L713.863 341.691C713.863 341.691 711.307 342.035 711.048 347.369C710.788 352.703 709.426 353.207 709.426 353.207C709.426 353.207 706.437 358.461 706.697 361.168C706.957 363.875 704.389 365.232 704.389 365.232L715.064 392.75C715.064 392.75 715.404 404.093 713.442 408.243C711.48 412.392 707.805 430.77 707.805 430.77C707.805 430.77 709.34 430.427 709.259 431.445C709.178 432.464 707.378 443.55 707.378 443.55C707.378 443.55 706.864 447.957 706.01 449.48C705.157 451.002 705.076 458.963 705.076 458.963L703.708 464.721C703.708 464.721 706.951 471.915 711.902 470.902C716.852 469.889 725.83 450.664 725.83 450.664L731.549 429.923L735.986 409.433L737.267 395.543L739.315 364.808L742.304 344.49C742.304 344.49 745.645 333.564 744.45 332.127Z" fill="#65617D"/>
<path opacity="0.1" d="M689.708 397.607L684.819 400.983C684.819 400.983 677.342 401.222 671.996 399.905L669.278 398.696L668.708 398.457L669.278 398.634C672.099 399.472 674.304 399.455 676.031 398.873C682.95 396.541 682.186 385.108 681.918 382.525C681.918 382.262 681.872 382.097 681.861 382.034C681.86 382.023 681.86 382.011 681.861 382L681.901 382.068C681.996 382.224 682.103 382.373 682.22 382.513C682.317 382.622 682.42 382.736 682.528 382.844L684.973 387.731C684.973 387.731 684.973 387.799 684.973 387.936L689.708 397.607Z" fill="black"/>
<path d="M706.208 365L703.838 365.673L703.501 370.48C703.501 370.48 700.714 370.058 699.954 373.331C699.195 376.604 697.841 378.144 697.841 378.144C697.841 378.144 693.192 382.021 692.941 385.312L690.085 387.085C690.085 387.085 683.409 385.563 681.89 382.865C681.89 382.865 684.934 404.631 668.708 399.316C668.708 399.316 686.876 407.243 687.721 408.343C688.566 409.444 694.14 412.643 699.212 409.946C704.283 407.248 705.38 403.103 705.38 403.103C705.38 403.103 710.28 396.26 710.446 395.256C710.611 394.253 714.444 393.061 714.444 393.061L721.708 375.515L706.208 365Z" fill="#65617D"/>
<path opacity="0.1" d="M766.426 340.22L768.899 329C768.899 329 770.006 332.654 771.118 333.504L774.785 336.313C774.785 336.313 778.451 338.008 779.731 338.008C781.01 338.008 787.916 339.795 788.769 340.731C789.622 341.668 793.035 340.984 793.035 340.984C793.035 340.984 795.848 341.921 798.321 342.512C800.794 343.104 801.987 347.189 801.474 348.832C801.051 350.466 801.502 352.203 802.668 353.428C803.694 354.45 804.207 357.765 804.207 357.765C805.456 358.176 806.492 359.062 807.089 360.23C807.942 362.097 807.665 366.176 807.665 366.176L794.983 384.026C794.983 384.026 795.151 390.92 794.643 392.442C794.136 393.965 796.43 419.978 796.43 419.978L799.076 464.68C799.076 464.68 795.577 467.656 794.811 467.995C794.044 468.334 793.277 452.19 793.277 451.593C793.277 450.995 773.58 422.184 773.58 422.184C773.58 422.184 770.934 417.938 770.934 417.014C770.934 416.089 768.461 407.494 768.461 407.494L764.708 390.92L766.426 340.22Z" fill="black"/>
<path d="M808.704 365.948C808.704 366.519 808.704 366.918 808.704 366.918L796.009 384.607C796.009 384.607 796.182 391.454 795.674 392.96C795.374 393.845 796.026 402.929 796.632 410.392C797.059 415.773 797.463 420.309 797.463 420.309L798.589 439.139L800.106 464.702C800.106 464.702 796.609 467.658 795.842 467.995C795.074 468.331 794.307 452.297 794.307 451.704C794.307 451.111 774.583 422.501 774.583 422.501C774.583 422.501 771.935 418.272 771.935 417.365C771.935 416.458 769.459 407.91 769.459 407.91L765.708 391.448L767.411 341.138L768.807 330C768.807 330 770.942 333.635 772.05 334.474L775.72 337.258C775.72 337.258 779.39 338.97 780.671 338.97C781.952 338.97 788.871 340.739 789.725 341.669C790.579 342.599 793.989 341.92 793.989 341.92C793.989 341.92 796.805 342.85 799.281 343.438C801.757 344.025 802.957 348.082 802.443 349.714C802.017 351.338 802.469 353.064 803.638 354.279C804.659 355.289 805.173 358.582 805.173 358.582C806.423 358.993 807.459 359.875 808.058 361.035C808.67 362.262 808.727 364.607 808.704 365.948Z" fill="#65617D"/>
<path opacity="0.1" d="M704.708 591C705.129 591 723.044 591.629 722.703 594.31C722.363 596.99 704.708 591 704.708 591Z" fill="black"/>
<path opacity="0.1" d="M708.708 596C708.708 596 720.228 597.908 717.202 599.653C714.175 601.398 708.708 596 708.708 596Z" fill="black"/>
<path opacity="0.1" d="M753.708 589C753.708 589 773.347 590.843 770.409 593.185C767.47 595.526 760.504 595.907 760.198 595.999C759.891 596.091 753.708 589 753.708 589Z" fill="black"/>
<path opacity="0.1" d="M750.708 598C750.708 598 761.374 599.668 761.701 601.592C762.029 603.517 750.708 598 750.708 598Z" fill="black"/>
<path opacity="0.1" d="M756.708 547C756.708 547 767.095 549.366 767.708 551L756.708 547Z" fill="black"/>
<path opacity="0.1" d="M718.344 555C718.344 555 712.538 556.436 718.161 559.319C723.784 562.202 718.344 555 718.344 555Z" fill="black"/>
<path opacity="0.1" d="M741.708 473C742.274 473 751.417 470.033 754.597 471.327C756.872 472.17 759.278 472.62 761.708 472.66L741.708 473Z" fill="black"/>
<path opacity="0.1" d="M742.708 482.617L742.617 483.452L734.737 503.964C734.737 503.964 733.465 510.176 732.364 513.703C731.669 516.101 731.116 518.538 730.708 521L737.705 478L742.708 482.617Z" fill="black"/>
<path d="M754.708 445.941L751.618 446H751.521L749.708 437.16L752.405 437L754.708 445.941Z" fill="#3F3D56"/>
<path d="M794.708 436.012L792.602 437.701L785.587 443.404C785.587 443.404 766.585 453.403 761.351 443.905C756.739 435.539 778.281 429.565 783.469 428.265C784.171 428.09 784.571 428 784.571 428L794.708 436.012Z" fill="#FBBEBE"/>
<path opacity="0.1" d="M712.708 352C712.708 352 716.698 353.874 717.611 356.436C718.524 358.998 712.708 352 712.708 352Z" fill="black"/>
<path opacity="0.1" d="M701.708 378C701.708 378 695.917 384.937 698.271 387.618C700.626 390.299 701.708 378 701.708 378Z" fill="black"/>
<path opacity="0.1" d="M798.708 356C798.708 356 793.866 356.519 793.708 361L798.708 356Z" fill="black"/>
<path opacity="0.1" d="M751.708 426C752.216 425.502 763.997 408.598 766.708 410.094L751.708 426Z" fill="black"/>
<path opacity="0.1" d="M773.708 313.429C773.713 316.77 772.899 320.06 771.34 323.003L771.192 322.975C769.926 322.704 769.267 321.206 768.296 320.273C767.074 319.092 765.247 318.832 763.752 319.627C762.254 320.54 761.393 322.233 761.526 324C760.884 321.269 761.089 318.372 760.464 315.635C759.839 312.899 757.959 310.133 755.381 310.087C754.245 310.087 752.978 310.496 752.172 309.655C751.689 309.148 751.604 308.348 751.229 307.725C749.389 304.707 743.783 306.233 741.495 307.783C739.206 309.333 736.554 311.816 733.708 313.141C733.787 301.938 742.803 292.921 753.847 293.001C764.892 293.08 773.781 302.226 773.703 313.429H773.708Z" fill="black"/>
<path d="M750.613 306.899C750.982 307.509 751.08 308.302 751.569 308.803C752.382 309.642 753.701 309.208 754.825 309.231C757.441 309.277 759.348 312.013 759.982 314.722C760.616 317.43 760.409 320.298 761.06 323C760.923 321.249 761.8 319.573 763.324 318.673C764.84 317.886 766.695 318.143 767.934 319.311C768.919 320.235 769.588 321.717 770.873 321.985C772.158 322.253 773.396 321.033 773.863 319.705C774.33 318.376 774.295 316.894 774.601 315.503C775.177 312.874 776.906 310.713 777.874 308.211C779.015 305.167 778.985 301.814 777.787 298.792C777.148 297.207 776.197 295.781 775.546 294.202C774.566 291.796 774.313 289.071 773.114 286.79C771.109 282.953 766.384 281.038 762.494 282.48C760.645 283.164 759.037 284.498 757.153 285.097C754.635 285.901 751.938 285.297 749.334 284.937C746.729 284.578 743.842 284.544 741.745 286.237C739.331 288.193 738.674 291.865 736.403 294.008C735.453 294.909 734.271 295.485 733.269 296.289C732.266 297.093 731.396 298.358 731.54 299.71C731.69 301.454 733.419 303.039 732.779 304.659C732.549 305.128 732.228 305.548 731.834 305.896C729.936 307.865 728.524 310.241 727.708 312.84C732.266 314.254 737.204 309.277 740.777 306.922C743.064 305.423 748.746 303.906 750.613 306.899Z" fill="#7C5C5C"/>
<path opacity="0.1" d="M794.708 436.259L792.524 438C790.6 434.866 782.708 428.598 782.708 428.598L783.052 428.273C783.78 428.093 784.194 428 784.194 428L794.708 436.259Z" fill="black"/>
<path d="M796.708 432.951C796.708 432.951 795.954 434.901 795.183 436.578C794.412 438.256 793.562 439.792 793.522 438.545C793.437 436.1 783.708 427.883 783.708 427.883L785.029 426.548L786.554 425L796.708 432.951Z" fill="#E7EFFD"/>
<path opacity="0.1" d="M797.553 420.004L798.708 439C795.984 434.884 788.511 424.339 783.708 424.678L795.345 411.664C795.829 411.139 796.276 410.584 796.683 410C797.121 415.428 797.553 420.004 797.553 420.004Z" fill="black"/>
<path opacity="0.1" d="M796.708 432.558C796.708 432.558 795.933 434.408 795.141 436C792.135 432.036 788.005 427.355 784.708 426.469L786.275 425L796.708 432.558Z" fill="black"/>
<path d="M805.699 364L808.746 366.386C808.746 366.386 813.816 366.472 814.325 370.736C814.834 375 819.47 376.96 819.47 376.96C819.47 376.96 822.934 380.452 822.934 382.071C822.934 383.69 825.558 386.589 825.558 386.848C825.558 387.107 828.096 392.305 827.753 393.238C827.41 394.172 830.462 398.269 829.531 399.802C828.767 401.179 828.089 402.603 827.501 404.066C827.501 404.066 823.528 411.742 821.499 413.188C819.47 414.634 810.163 426.828 810.163 426.828C810.163 426.828 800.188 438.422 800.188 442C800.188 442 790.47 425.635 784.708 426.061L795.958 413.015C795.958 413.015 797.902 410.889 797.987 409.609C798.073 408.33 803.401 402.447 805.939 402.193C805.939 402.193 806.356 398.695 805.259 398.609C804.161 398.523 803.229 395.797 803.229 395.797C803.229 395.797 795.798 386.934 795.701 381.305C795.604 375.675 805.699 364 805.699 364Z" fill="#65617D"/>
<path opacity="0.1" d="M809.708 372C809.708 372 802.354 377.136 803.929 378.786C805.504 380.436 809.708 372 809.708 372Z" fill="black"/>
<path opacity="0.1" d="M809.708 394C809.708 394 823.311 389.5 824.708 394H809.708Z" fill="black"/>
<path opacity="0.1" d="M727.708 619.135C727.708 619.135 720.614 623.665 717.07 623.031C713.525 622.397 709.89 624.189 709.89 624.189C707.446 626.791 704.364 628.746 700.935 629.871C695.227 631.763 687.18 631.017 682.619 629.537C680.462 628.836 680.285 627.934 681.324 626.815C686.284 627.778 697.362 629.698 700.347 628.301C704.228 626.487 709.804 622.536 709.804 622.536C709.804 622.536 717.07 621.551 718.08 621.551C718.799 621.551 724.409 619.291 727.577 618L727.708 619.135Z" fill="black"/>
<path opacity="0.1" d="M771.708 628L771.632 628.485C771.632 628.485 769.878 632.335 760.308 633.736C750.737 635.138 750.708 630.496 750.708 630.496C750.708 630.496 750.743 629.999 750.802 629.248C753.842 630.413 760.472 631.714 771.708 628Z" fill="black"/>
<path opacity="0.1" d="M716.708 371C716.708 371 716.708 390.013 715.146 391.89C713.583 393.767 716.708 371 716.708 371Z" fill="black"/>
<path opacity="0.1" d="M792.708 377L795.559 384C795.559 384 796.695 377.128 792.708 377Z" fill="black"/>
<g opacity="0.1">
<path d="M733.365 303.287C733.989 301.68 732.348 300.109 732.134 298.387C731.917 298.873 731.823 299.405 731.862 299.936C731.972 301.23 732.926 302.437 733.18 303.639C733.251 303.527 733.313 303.409 733.365 303.287Z" fill="black"/>
<path d="M761.734 321.695C761.121 319.002 761.3 316.148 760.676 313.45C760.052 310.752 758.128 307.932 755.511 307.886C754.355 307.886 753.061 308.302 752.246 307.458C751.75 306.95 751.669 306.141 751.282 305.523C749.41 302.489 743.713 304.026 741.378 305.58C737.912 307.892 733.082 312.762 728.598 311.664C728.384 312.179 728.188 312.704 728.02 313.242C732.59 314.675 737.542 309.631 741.124 307.244C743.435 305.696 749.155 304.159 751.027 307.192C751.397 307.811 751.495 308.614 751.986 309.122C752.801 309.972 754.124 309.532 755.251 309.556C757.874 309.602 759.786 312.375 760.422 315.12C761.058 317.864 760.85 320.77 761.502 323.509C761.46 322.895 761.539 322.279 761.734 321.695Z" fill="black"/>
<path d="M774.583 318.494C774.121 319.846 772.902 321.094 771.585 320.805C770.267 320.516 769.626 319.031 768.644 318.089C767.394 316.919 765.543 316.662 764.021 317.448C762.57 318.313 761.701 319.896 761.751 321.585C762.097 320.541 762.815 319.661 763.767 319.112C765.287 318.315 767.147 318.575 768.389 319.759C769.377 320.695 770.048 322.197 771.336 322.469C772.625 322.74 773.867 321.504 774.335 320.158C774.578 319.358 774.735 318.535 774.803 317.702C774.747 317.97 774.673 318.235 774.583 318.494Z" fill="black"/>
<path d="M778.605 306.846C777.646 309.382 775.901 311.566 775.323 314.236C775.207 314.773 775.138 315.322 775.074 315.876C775.652 313.219 777.386 311.04 778.35 308.51C778.776 307.371 779.043 306.179 779.142 304.968C779.01 305.607 778.831 306.234 778.605 306.846Z" fill="black"/>
</g>
<path d="M655.708 368.206C655.822 368.206 655.915 368.114 655.915 368C655.915 367.886 655.822 367.794 655.708 367.794C655.595 367.794 655.502 367.886 655.502 368C655.502 368.114 655.595 368.206 655.708 368.206Z" fill="#E6E8EC"/>
<path opacity="0.1" d="M729.208 634C756.546 634 778.708 631.761 778.708 629C778.708 626.239 756.546 624 729.208 624C701.87 624 679.708 626.239 679.708 629C679.708 631.761 701.87 634 729.208 634Z" fill="#1B51E5"/>
<path d="M546.749 298.252L396.708 395.479L494.624 571.868C495.549 573.536 497.13 574.741 498.985 575.192L587.704 596.808C590.836 597.565 594.073 596.034 595.472 593.134L639.479 501.817L687.708 437.421L573.257 302.178C566.668 294.395 555.316 292.714 546.749 298.252Z" fill="#DCDFED"/>
<path opacity="0.1" d="M689.708 438.419L689.284 438.992L661.033 476.714L660.522 477.396L641.48 502.821L603.843 580.93L602.787 583.113L597.474 594.132C596.074 597.037 592.83 598.568 589.694 597.805L500.977 576.179C499.122 575.73 497.541 574.524 496.617 572.856L488.085 557.516L486.553 554.754L424.974 443.783L424.446 442.837L398.708 396.48L401.818 394.463L425.393 379.192L425.938 378.836L475.583 346.667L478.716 344.638L548.741 299.261C557.307 293.712 568.668 295.392 575.259 303.18L627.469 364.895L629.764 367.645L667.659 412.421L667.866 412.668L686.92 435.176L689.318 438.012L689.708 438.419Z" fill="black"/>
<path opacity="0.1" d="M665.708 411.921L661.091 443.96L659.699 453.628L658.903 474.225L658.84 475.832L654.699 583.447C654.618 585.468 653.644 587.349 652.039 588.583C650.434 589.817 648.364 590.276 646.387 589.837L601.741 579.882L601.26 579.774L486.758 554.252L484.656 553.783L421.708 539.743L423.152 442.987L423.198 439.755L423.633 410.468L424.114 378.144L473.681 346.025L476.808 344C522.783 348.708 583.926 357.765 625.347 364.224L627.638 366.97L665.445 411.675L665.708 411.921Z" fill="black"/>
<path d="M671.708 373.773L666.268 411.51L661.28 446.068L659.887 455.708L659.09 476.292L654.883 585.451C654.802 587.471 653.827 589.351 652.221 590.584C650.615 591.817 648.543 592.276 646.564 591.837L601.402 581.78L486.809 556.273L421.708 541.772L423.199 441.843L423.634 412.574L424.145 378.336L424.666 343.12C435.432 342.611 453.147 343.76 474.295 345.881C521.647 350.621 586.198 360.21 628.403 366.814C654.246 370.857 671.708 373.773 671.708 373.773Z" fill="#1B51E5"/>
<path opacity="0.1" d="M685.327 434.609L661.129 446.457L537.63 506.927L423.818 413.016L400.811 394L397.708 396.012L423.389 442.25L421.901 542.141L486.91 556.635L495.405 571.936C496.327 573.6 497.905 574.802 499.756 575.251L588.277 596.81C591.4 597.561 594.626 596.036 596.022 593.146L601.323 582.155L646.422 592.209C648.398 592.647 650.467 592.188 652.07 590.956C653.674 589.723 654.648 587.843 654.728 585.824L658.93 476.709L687.628 438.415L687.708 437.449L685.327 434.609Z" fill="black"/>
<path d="M396.942 396L386.72 570.645C386.525 573.984 388.785 576.971 392.057 577.698L663.526 637.842C665.452 638.263 667.466 637.833 669.051 636.664C670.636 635.495 671.638 633.699 671.799 631.739L687.708 437.864L537.074 511.576L396.942 396Z" fill="#DCDFED"/>
<path opacity="0.1" d="M389.271 574.479L530.081 487.501C534.386 484.887 539.945 485.758 543.246 489.564L669.277 636.729C669.735 637.256 669.958 636.878 669.277 636.729L389.271 574.479C388.573 574.898 388.47 574.302 389.271 574.479Z" fill="black"/>
<path d="M389.441 573.824L529.175 489.575C533.735 486.826 539.616 487.75 543.11 491.764L668.34 635.508C668.766 635.998 668.828 636.706 668.496 637.263C668.164 637.821 667.512 638.104 666.877 637.965L389.894 576.579C389.291 576.449 388.828 575.964 388.728 575.355C388.628 574.747 388.911 574.14 389.441 573.824Z" fill="#E3E5F1"/>
<defs>
<linearGradient id="paint0_linear_9071_1683" x1="830.729" y1="634.985" x2="830.729" y2="279.999" gradientUnits="userSpaceOnUse">
<stop stop-color="#808080" stop-opacity="0.25"/>
<stop offset="0.54" stop-color="#808080" stop-opacity="0.12"/>
<stop offset="1" stop-color="#808080" stop-opacity="0.1"/>
</linearGradient>
</defs>
</svg>
