<svg width="969" height="900" viewBox="0 0 969 900" fill="none" xmlns="http://www.w3.org/2000/svg">
<path opacity="0.2" d="M434.316 373.197C411.764 391.578 389.915 412.146 376.188 438.095C356 476.245 356.311 524.235 377.028 559.61C394.569 589.603 424.15 609.133 449.457 632.301C480.636 660.833 505.862 695.605 529.737 730.965C542.566 749.957 555.501 769.653 574.238 782.373C600.255 800.03 635.33 801.776 665.961 790.44C696.592 779.103 722.813 755.701 741.642 727.888C751.661 713.088 759.95 696.362 761.146 678.769C762.411 660.154 755.667 642.16 757.068 623.545C758.364 606.295 766.573 589.979 776.167 575.311C788.694 556.159 803.857 538.868 821.209 523.949C840.877 507.059 863.026 493.584 882.757 476.831C902.489 460.078 920.349 438.867 926.526 413.632C932.335 389.91 927.229 365.587 921.032 342.734C910.94 305.392 897.826 268.935 881.819 233.722C871.072 210.124 858.799 186.85 840.826 168.785C806.464 134.24 751.752 122.887 704.502 140.49C665.356 155.075 633.744 186.73 606.521 219.864C581.696 250.079 559.05 288.513 526.868 310.939C496.161 332.314 463.773 349.198 434.316 373.197Z" fill="#1B51E5"/>
<path opacity="0.2" d="M249.369 555.17C251.967 595.716 257.678 637.178 276.337 673.521C303.767 726.961 359.555 764.524 417.64 768.574C466.868 772.035 513.956 753.337 561.717 742.445C620.546 729.017 681.666 727.388 742.347 727.782C774.945 727.988 808.444 728.626 838.676 717.059C880.647 700.993 911.706 661.903 923.949 617.602C936.192 573.301 930.821 524.555 914.228 480.853C905.398 457.597 892.907 434.816 873.539 419.535C853.047 403.365 826.642 396.927 806.262 380.601C787.375 365.474 775.292 343.11 766.263 320.449C754.473 290.862 747.02 259.704 744.122 227.893C740.863 191.854 743.607 155.649 740.558 119.644C737.509 83.6398 727.752 46.2718 703.668 19.2045C681.028 -6.24395 648.656 -19.5735 617.082 -30.4805C565.519 -48.3448 512.475 -62.0228 458.478 -71.3789C422.275 -77.6259 385.183 -81.8568 349.399 -75.3941C280.978 -63.0453 222.545 -8.88843 203.794 59.5389C188.261 116.233 198.716 177.72 214.518 235.313C228.926 287.832 254.65 344.332 253.955 399.185C253.266 451.506 245.988 502.218 249.369 555.17Z" fill="#1B51E5"/>
<path d="M863.28 367C863.28 367 826.619 403.827 847.315 458.474C868.011 513.12 811.835 604 811.835 604C811.835 604 812.427 603.911 813.556 603.715C888.855 590.362 926.268 503.854 884.397 439.591C868.851 415.701 856.049 387.671 863.28 367Z" fill="#1B51E5"/>
<path d="M863.337 367C863.337 367 842.618 412.143 863.337 448.97C884.057 485.797 866.889 589.15 811.835 604" stroke="#535461" stroke-width="2"/>
<path d="M928.835 515.46C928.835 515.46 887.023 508.774 883.211 546.392C879.399 584.009 802.835 589.218 802.835 589.218C802.835 589.218 803.332 589.562 804.272 590.179C867.508 631.848 927.961 616.721 918.854 561.389C915.444 540.821 915.715 520.158 928.835 515.46Z" fill="#1B51E5"/>
<path opacity="0.2" d="M928.835 515.46C928.835 515.46 887.023 508.774 883.211 546.392C879.399 584.009 802.835 589.218 802.835 589.218C802.835 589.218 803.332 589.562 804.272 590.179C867.508 631.848 927.961 616.721 918.854 561.389C915.444 540.821 915.715 520.158 928.835 515.46Z" fill="#F5F5F5"/>
<path d="M928.835 516C928.835 516 896.384 523.152 899.049 552.77C901.714 582.388 850.839 617.878 802.835 589.725" stroke="#535461" stroke-width="2"/>
<g opacity="0.5">
<path fill-rule="evenodd" clip-rule="evenodd" d="M538.487 347.586C541.348 356.465 542.806 365.739 542.807 375.07C542.807 375.07 549.302 392.871 549.249 406.441C549.278 410.237 548.828 413.749 547.613 416.5L546.428 433.729C546.428 433.729 546.132 433.563 545.592 433.302C546.304 439.837 545.788 451.809 532.994 454.061C532.707 453.985 532.439 453.852 532.206 453.669C531.323 451.887 530.532 450.06 529.835 448.197L529.687 448.244L529.835 448.981L528.887 449.278C533.504 459.307 532.461 480.149 531.418 482.217C531.009 483.102 530.659 485.592 530.416 488.449C529.963 493.999 530.162 499.582 531.009 505.085C531.601 508.888 531.779 513.54 529.824 515.477C526.268 518.994 526.665 545.974 526.665 545.974C526.42 546.581 526.146 547.176 525.841 547.756L527.062 547.928C527.062 547.928 527.062 558.486 525.089 565.913C523.957 570.202 525.563 575.752 527.133 579.709C529.306 585.032 529.784 590.899 528.502 596.505C527.347 601.341 524.929 606.166 519.951 607.752C508.887 611.275 506.517 592.898 506.517 592.898C506.517 592.898 506.914 578.812 506.517 576.857C506.392 576.257 505.824 574.575 505.089 572.543C502.419 565.131 501.407 557.22 502.126 549.372L502.582 544.429L504.727 544.738C504.738 544.545 504.75 544.349 504.763 544.15C504.783 543.82 504.804 543.482 504.822 543.134C504.85 542.658 504.875 542.169 504.899 541.666C504.923 541.159 504.947 540.64 504.97 540.11C504.994 539.579 505.016 539.036 505.035 538.482C505.055 538.204 505.065 537.925 505.065 537.644C505.16 535.113 505.237 532.41 505.296 529.736C505.304 529.331 505.315 528.931 505.326 528.532C505.347 527.756 505.367 526.986 505.367 526.201C505.409 525.333 505.409 524.478 505.409 523.64V522.808C505.45 521.436 505.45 520.117 505.45 518.929V518.216V516.873V516.243V515.055V514.027V513.148C505.432 511.68 505.391 511.027 505.332 511.567C505.21 512.654 504.935 517.221 504.934 517.221C504.933 517.221 505.034 515.539 505.332 510.379C505.966 499.334 496.052 473.008 492.206 463.264C490.979 463.9 489.791 464.611 488.65 465.391C487.352 480.743 489.13 510.195 489.723 518.863V518.899C489.739 519.13 489.758 519.348 489.775 519.549C489.808 519.927 489.835 520.249 489.835 520.509V520.58L489.865 521.008V521.044V521.168V521.234C489.865 521.234 495.003 553.299 495.003 560.726C495.003 566.448 497.818 574.718 499.109 578.217C500.988 579.031 502.511 579.881 502.511 579.881L502.114 609.208C502.114 609.208 506.458 623.675 490.659 627.192C474.861 630.709 481.575 612.725 481.575 612.725L482.76 599.82L477.231 579.881L478.784 579.566C475.501 569.056 466.707 540.115 467.352 533.746C468.069 526.623 464.526 518.845 463.892 517.526L463.797 517.324C467.187 510.29 456.887 473.358 452.182 457.412C446.327 454.601 442.072 452.421 442.072 452.421C442.072 452.421 442.191 452.225 442.398 451.827L442.072 451.661C444.597 446.913 446.628 441.918 448.135 436.754L447.797 436.409L448.052 435.69C447.246 434.912 446.807 434.454 446.807 434.454C446.807 434.454 435.352 436.391 438.114 430.937C440.875 425.483 440.087 417.272 440.087 417.272V387.298L434.558 389.122C424.158 390.839 422.292 379.176 422.351 370.264C422.336 366.76 422.585 363.261 423.098 359.795C423.098 359.795 431.003 299.193 444.828 301.148C457.782 302.978 469.172 295.373 470.564 294.405C470.734 293.882 470.886 293.367 471.021 292.86C470.228 291.982 469.515 291.033 468.893 290.026C468.461 290.008 468.022 289.966 467.607 289.919V289.568L467.21 289.527C467.295 286.786 466.279 284.125 464.389 282.142C463.626 281.411 462.749 280.809 461.794 280.359C460.892 279.939 459.935 279.651 458.979 279.364C457.905 279.04 456.832 278.718 455.838 278.208C455.173 277.86 454.571 277.4 454.061 276.848C452.875 275.773 452.105 274.287 452.514 272.802C452.58 272.575 452.672 272.352 452.763 272.13C452.935 271.714 453.107 271.299 453.107 270.853C453.107 270.154 452.716 269.555 452.325 268.955C452.184 268.74 452.044 268.524 451.921 268.304C450.57 265.833 451.785 262.761 453.409 260.485C453.785 259.958 454.188 259.438 454.591 258.917C455.927 257.193 457.274 255.455 457.729 253.356C457.831 252.897 457.887 252.429 457.943 251.961C458.024 251.288 458.105 250.616 458.321 249.975C459.507 246.452 464.058 245.4 467.803 245.596C468.49 245.632 469.187 245.689 469.887 245.745C473.004 245.997 476.185 246.255 478.837 244.741C479.468 244.302 480.146 243.936 480.858 243.648C481.678 243.453 482.532 243.453 483.352 243.648C488.093 244.485 492.437 246.844 496.389 249.589C497.975 250.653 499.455 251.867 500.81 253.213C501.705 254.065 502.5 255.015 503.181 256.047C504.781 258.519 505.533 261.686 504.549 264.46C503.984 265.992 502.99 267.329 501.687 268.31C504.848 272.456 506.209 277.704 505.46 282.868C504.712 288.032 501.918 292.675 497.711 295.747C498.367 296.826 499.113 297.847 499.939 298.801V298.635C499.939 298.635 511.992 304.695 516.336 303.911C520.579 303.144 531.595 310.215 531.376 324.385V325.478L538.487 347.586ZM526.612 409.477C526.612 409.477 527.827 416.541 528.704 424.045L530.084 415.846L520.686 380.673V388.361L526.612 409.477Z" fill="url(#paint0_linear_9071_1421)"/>
</g>
<path d="M501.481 539L501.048 543.804C500.365 551.437 501.333 559.129 503.884 566.346C504.58 568.326 505.124 569.957 505.241 570.542C505.615 572.444 505.241 586.123 505.241 586.123C505.241 586.123 507.498 603.986 518.029 600.565C522.766 599.028 525.046 594.331 526.169 589.633C527.386 584.185 526.929 578.491 524.859 573.313C523.362 569.466 521.83 564.06 522.912 559.906C524.795 552.685 524.795 542.427 524.795 542.427L501.481 539Z" fill="#5A5773"/>
<path d="M489.835 456.295C489.835 456.295 504.658 492.334 503.896 505.606C503.134 518.877 503.707 508.449 503.896 506.744C504.233 503.706 503.896 539.775 502.755 543.904C502.755 543.904 518.341 555.282 524.422 540.111C524.422 540.111 524.044 513.94 527.46 510.525C529.34 508.649 529.156 504.131 528.601 500.445C527.781 495.112 527.582 489.702 528.01 484.324C528.24 481.552 528.559 479.11 528.973 478.278C530.114 476.002 531.255 450.208 524.41 443L489.835 456.295Z" fill="#605D82"/>
<path opacity="0.1" d="M505.627 543.905C506.766 539.734 507.102 503.682 506.766 506.738C506.577 508.443 506.005 518.879 506.766 505.6C507.527 492.32 492.729 456.28 492.729 456.28L525.835 443.549C525.682 443.354 525.523 443.171 525.363 443L490.835 456.28C490.835 456.28 505.633 492.326 504.872 505.6C504.111 518.873 504.683 508.443 504.872 506.738C505.208 503.7 504.872 539.775 503.733 543.905C503.733 543.905 509.946 548.448 516.053 547.964C510.619 547.557 505.627 543.905 505.627 543.905Z" fill="black"/>
<path d="M476.835 573.099L482.27 592.681L481.105 605.349C481.105 605.349 474.505 623.008 490.036 619.552C505.568 616.095 501.298 601.892 501.298 601.892L501.685 573.099C501.685 573.099 495.471 569.642 492.753 570.03C490.036 570.418 476.835 573.099 476.835 573.099Z" fill="#5A5773"/>
<path d="M450.835 447C450.835 447 468.356 503.807 464.168 512.575C464.168 512.575 468.356 520.964 467.598 528.582C466.839 536.2 479.787 577 479.787 577L498.835 573.567C498.835 573.567 494.263 562.131 494.263 554.887C494.263 547.642 489.311 516.352 489.311 516.352C489.311 516.352 485.124 459.159 490.075 453.059L450.835 447Z" fill="#605D82"/>
<g opacity="0.1">
<path d="M489.438 457.176C486.253 470.077 489.772 517.551 489.772 517.551C489.772 517.551 494.768 548.699 494.768 555.947C494.768 561.458 497.451 569.397 498.724 572.846L499.764 572.663C499.764 572.663 495.15 561.269 495.15 554.05C495.15 546.832 490.155 515.655 490.155 515.655C490.155 515.655 486.94 472.268 489.438 457.176Z" fill="black"/>
<path d="M464.795 511.845L464.89 512.04C464.92 511.845 464.95 511.638 464.968 511.449C464.917 511.584 464.859 511.716 464.795 511.845Z" fill="black"/>
<path d="M490.059 454.412C490.234 453.756 490.527 453.138 490.926 452.586L451.343 446.508C451.343 446.508 451.576 447.246 451.977 448.564L490.059 454.412Z" fill="black"/>
</g>
<path d="M541.934 425.997C541.934 425.997 547.565 446.991 530.678 450C530.404 449.929 530.147 449.802 529.925 449.627C529.925 449.627 520.168 430.499 527.672 423L541.934 425.997Z" fill="#A1616A"/>
<path d="M472.826 284C472.826 284 473.976 299.936 461.334 307.533C448.691 315.129 488.144 336 488.144 336L508.835 303.354C508.835 303.354 500.03 304.481 494.668 289.312L472.826 284Z" fill="#A1616A"/>
<path opacity="0.1" d="M464.503 310C464.503 310 484.034 350.251 501.647 312.279L528.835 445.935C528.835 445.935 486.708 458.848 486.332 464.924C485.957 471 443.835 449.36 443.835 449.36C443.835 449.36 453.023 432.65 450.731 422.399C448.438 412.149 464.503 310 464.503 310Z" fill="black"/>
<path d="M464.503 308C464.503 308 484.034 348.25 501.647 310.279L528.835 443.936C528.835 443.936 486.708 456.849 486.332 462.924C485.957 469 443.835 447.355 443.835 447.355C443.835 447.355 453.023 430.645 450.731 420.395C448.438 410.145 464.503 308 464.503 308Z" fill="#E1E7EF"/>
<path d="M483.892 584C483.892 584 478.993 573 490.296 573C501.599 573 499.718 582.862 499.718 582.862L483.892 584Z" fill="#5A5773"/>
<path d="M509.744 556C509.744 556 505.143 544.382 516.646 544.009C528.149 543.637 522.398 554.497 522.398 554.497L509.744 556Z" fill="#5A5773"/>
<path opacity="0.1" d="M498.835 300C498.835 300 510.582 305.93 514.823 305.147C519.064 304.365 530.23 311.629 529.463 326.123L536.424 347.745C539.209 356.414 540.623 365.458 540.617 374.556C540.617 374.556 550.633 402.013 545.242 414.217L544.086 431C544.086 431 535.226 426.042 525.977 427.566L528.307 413.861L517.884 374.953L500.549 333.382L498.835 300Z" fill="black"/>
<path d="M498.835 299C498.835 299 510.582 304.93 514.823 304.147C519.064 303.365 530.23 310.629 529.463 325.123L536.424 346.745C539.209 355.414 540.623 364.458 540.617 373.556C540.617 373.556 550.633 401.013 545.242 413.217L544.086 430C544.086 430 535.226 425.042 525.977 426.566L528.289 412.838L517.884 373.941L500.567 332.37L498.835 299Z" fill="#67647E"/>
<path opacity="0.1" d="M518.189 345.399V388.216L523.939 408.678C523.939 408.678 527.77 431.032 526.62 437.855C525.47 444.677 507.076 446.192 502.095 440.506C497.113 434.82 499.795 386.301 499.795 386.301L498.835 315.274L499.604 313L518.189 345.399Z" fill="black"/>
<path d="M519.189 344.203V387.104L524.939 407.608C524.939 407.608 528.77 430.006 527.62 436.842C526.47 443.679 508.076 445.196 503.095 439.499C498.113 433.802 500.795 385.186 500.795 385.186L499.835 314L519.189 344.203Z" fill="#67647E"/>
<path opacity="0.1" d="M442.835 379.185L454.993 417.166L449.292 433.385C449.292 433.385 476.264 462.007 493.36 448.269C493.36 448.269 495.262 389.873 491.458 376.134C487.654 362.396 469.424 316.195 469.424 316.195L465.649 304L445.517 315.448L442.835 379.185Z" fill="black"/>
<path d="M441.139 378.211V415.594C441.139 415.594 441.897 423.611 439.248 428.951C436.6 434.292 447.557 432.387 447.557 432.387C447.557 432.387 474.369 461.006 491.363 447.269C491.363 447.269 493.254 388.88 489.472 375.144C485.69 361.407 467.569 315.212 467.569 315.212L463.794 303L443.782 314.446L441.139 378.211Z" fill="#67647E"/>
<path opacity="0.1" d="M471.263 295C471.263 295 459.696 303.591 446.419 301.68C433.142 299.768 425.556 358.958 425.556 358.958C425.556 358.958 420.625 389.506 436.557 386.834L471.835 374.995C471.835 374.995 464.25 366.974 465.388 356.666L448.312 363.536L449.079 330.702L471.263 295Z" fill="black"/>
<path opacity="0.1" d="M426.556 358.267C426.556 358.267 421.625 388.479 437.557 385.836L472.835 374.127C472.835 374.127 465.25 366.2 466.388 356L449.324 362.8L426.556 358.267Z" fill="black"/>
<path d="M464.835 360.036C464.835 360.036 477.026 344.604 486.003 352.013C494.98 359.422 468.055 373 468.055 373L464.835 360.036Z" fill="#A1616A"/>
<path d="M471.263 295C471.263 295 459.696 303.591 446.419 301.68C433.142 299.768 425.556 358.958 425.556 358.958C425.556 358.958 420.625 389.506 436.557 386.834L471.835 374.995C471.835 374.995 464.25 366.974 465.388 356.666L448.312 363.542L449.079 330.702L468.426 314.671L471.263 295Z" fill="#67647E"/>
<path opacity="0.1" d="M494.821 290.119L473.026 285C473.026 285 474.161 286.229 472.835 291.035C476.343 294.886 480.654 300 486.409 300C490.527 300.007 494.537 298.736 497.835 296.377C496.605 294.398 495.594 292.3 494.821 290.119Z" fill="black"/>
<path d="M486.835 299C497.329 299 505.835 290.493 505.835 280C505.835 269.507 497.329 261 486.835 261C476.342 261 467.835 269.507 467.835 280C467.835 290.493 476.342 299 486.835 299Z" fill="#A1616A"/>
<path opacity="0.1" d="M492.736 272.995C497.122 272.242 501.944 270.281 503.413 266.05C504.354 263.343 503.637 260.261 502.102 257.85C500.568 255.438 498.31 253.584 495.981 251.925C492.201 249.247 488.032 246.948 483.481 246.142C482.696 245.953 481.879 245.953 481.094 246.142C480.412 246.423 479.763 246.781 479.16 247.208C476.049 249.016 472.18 248.233 468.576 248.044C464.972 247.854 460.65 248.879 459.515 252.31C459.163 253.371 459.186 254.514 458.927 255.604C458.339 258.271 456.346 260.344 454.811 262.566C453.277 264.788 452.095 267.792 453.389 270.186C453.83 270.998 454.565 271.744 454.565 272.669C454.451 273.326 454.253 273.965 453.977 274.571C453.442 276.538 455 278.523 456.799 279.459C458.598 280.395 460.668 280.686 462.502 281.557C466.009 283.3 468.184 286.944 468.07 290.883C469.74 291.078 471.686 291.179 472.815 289.923C473.321 289.36 473.568 288.607 474.027 288.009C474.614 287.227 475.532 286.765 476.284 286.137C480.241 282.86 477.431 278.333 479.671 274.802C480.847 272.983 482.717 273.54 484.61 273.569C487.331 273.634 490.051 273.441 492.736 272.995Z" fill="black"/>
<path d="M492.736 271.98C497.122 271.228 501.944 269.268 503.413 265.04C504.354 262.333 503.637 259.254 502.102 256.844C500.568 254.433 498.31 252.58 495.981 250.922C492.201 248.245 488.032 245.947 483.481 245.142C482.696 244.953 481.879 244.953 481.094 245.142C480.412 245.423 479.763 245.781 479.16 246.208C476.049 248.014 472.18 247.232 468.576 247.043C464.972 246.853 460.65 247.878 459.515 251.307C459.163 252.367 459.186 253.51 458.927 254.599C458.339 257.264 456.346 259.337 454.811 261.558C453.277 263.778 452.095 266.781 453.389 269.173C453.83 269.985 454.565 270.731 454.565 271.655C454.451 272.311 454.253 272.95 453.977 273.556C453.442 275.522 455 277.506 456.799 278.441C458.598 279.377 460.668 279.667 462.502 280.538C466.023 282.279 468.208 285.934 468.088 289.883C469.758 290.078 471.704 290.179 472.833 288.923C473.339 288.361 473.586 287.609 474.044 287.011C474.632 286.229 475.549 285.767 476.302 285.139C480.259 281.864 477.449 277.34 479.689 273.81C480.865 271.992 482.734 272.549 484.628 272.579C487.343 272.634 490.058 272.434 492.736 271.98Z" fill="#4A4347"/>
<path opacity="0.1" d="M514.835 336C514.835 336 519.348 357.784 517.299 366.192C516.047 371.083 516.233 376.198 517.835 381" fill="black"/>
<path opacity="0.1" d="M448.454 346C448.454 346 446.377 360.046 449.835 363L448.454 346Z" fill="black"/>
<path d="M553.835 524C554.388 524 554.835 523.552 554.835 523C554.835 522.448 554.388 522 553.835 522C553.283 522 552.835 522.448 552.835 523C552.835 523.552 553.283 524 553.835 524Z" fill="black"/>
<g opacity="0.5">
<path d="M828.242 420.275V419.784L666.43 295.545C666.221 295.39 665.934 295.39 665.725 295.545L503.907 419.784V612.36H504.215V612.668H828.557V420.092L828.242 420.275Z" fill="url(#paint1_linear_9071_1421)"/>
</g>
<path d="M822.835 608H509.835V422.151L666.335 302L822.835 422.151V608Z" fill="white"/>
<path d="M811.835 597H521.835V423.906L666.835 312L811.835 423.906V597Z" fill="#E0E0E0"/>
<path d="M538.397 355.963L715.432 309.487L774.46 534.965L597.425 581.441L538.397 355.963Z" fill="#1B51E5"/>
<rect x="574.835" y="343" width="183" height="234" fill="#F5F5F5"/>
<path opacity="0.05" d="M510.835 422L666.835 515L510.835 608V422Z" fill="black"/>
<path d="M509.835 422L665.835 515L509.835 608V422Z" fill="white"/>
<path opacity="0.05" d="M820.835 422L664.835 515L820.835 608V422Z" fill="black"/>
<path d="M821.835 422L665.835 515L821.835 608V422Z" fill="white"/>
<path opacity="0.05" d="M509.835 605L666.335 483L822.835 605H509.835Z" fill="black"/>
<path d="M509.835 608L666.335 486L822.835 608H509.835Z" fill="white"/>
<path d="M542.012 622C542.012 622 533.942 595.376 543.528 575.77C547.601 567.574 548.829 558.315 547.027 549.383C546.139 545.15 544.853 541.005 543.187 537" stroke="#535461" stroke-width="2"/>
<path d="M548.835 524.712C548.835 527.866 542.835 537 542.835 537C542.835 537 536.835 527.86 536.835 524.712C536.835 521.558 539.522 519 542.835 519C546.149 519 548.835 521.558 548.835 524.712Z" fill="#1B51E5"/>
<path d="M559.006 542.699C557.187 545.376 546.835 550 546.835 550C546.835 550 547.023 539.098 548.842 536.422C550.725 533.907 554.349 533.249 557.068 534.929C559.788 536.609 560.641 540.032 559.006 542.699Z" fill="#1B51E5"/>
<path d="M558.456 573.211C555.624 574.666 544.835 573.663 544.835 573.663C544.835 573.663 550.459 564.203 553.286 562.747C555.128 561.694 557.388 561.758 559.17 562.914C560.952 564.07 561.97 566.132 561.821 568.283C561.672 570.434 560.38 572.329 558.456 573.217V573.211Z" fill="#1B51E5"/>
<path d="M552.653 596.25C550.013 598.145 538.835 599 538.835 599C538.835 599 542.95 588.867 545.59 586.972C548.228 585.262 551.783 585.864 553.67 588.342C555.556 590.819 555.108 594.299 552.653 596.25Z" fill="#1B51E5"/>
<path d="M534.451 550.554C536.842 552.735 547.835 555 547.835 555C547.835 555 545.139 544.604 542.772 542.424C540.38 540.416 536.75 540.547 534.525 542.722C532.301 544.897 532.268 548.347 534.451 550.56V550.554Z" fill="#1B51E5"/>
<path d="M527.854 578.196C530.761 579.679 541.835 578.656 541.835 578.656C541.835 578.656 536.062 569.015 533.161 567.532C530.283 566.213 526.891 567.428 525.468 570.288C524.046 573.148 525.098 576.638 527.854 578.202V578.196Z" fill="#1B51E5"/>
<path d="M525.407 606.112C527.972 608.102 538.835 609 538.835 609C538.835 609 534.837 598.36 532.271 596.37C530.621 594.954 528.363 594.606 526.395 595.465C524.427 596.324 523.069 598.251 522.863 600.478C522.656 602.705 523.634 604.871 525.407 606.112Z" fill="#1B51E5"/>
<rect opacity="0.5" x="585.835" y="355" width="74" height="5" fill="#1B51E5"/>
<rect opacity="0.5" x="586.835" y="379" width="159" height="5" fill="#1B51E5"/>
<rect opacity="0.5" x="586.835" y="394" width="159" height="5" fill="#1B51E5"/>
<rect opacity="0.4" x="586.835" y="409" width="159" height="5" fill="#1B51E5"/>
<rect opacity="0.4" x="586.835" y="425" width="159" height="5" fill="#1B51E5"/>
<rect opacity="0.3" x="586.835" y="440" width="90" height="5" fill="#1B51E5"/>
<rect opacity="0.3" x="585.835" y="456" width="124" height="5" fill="#1B51E5"/>
<defs>
<linearGradient id="paint0_linear_9071_1421" x1="422.357" y1="627.568" x2="549.184" y2="627.568" gradientUnits="userSpaceOnUse">
<stop stop-color="#808080" stop-opacity="0.25"/>
<stop offset="0.54" stop-color="#808080" stop-opacity="0.12"/>
<stop offset="1" stop-color="#808080" stop-opacity="0.1"/>
</linearGradient>
<linearGradient id="paint1_linear_9071_1421" x1="828.57" y1="612.686" x2="828.57" y2="295.426" gradientUnits="userSpaceOnUse">
<stop stop-color="#808080" stop-opacity="0.25"/>
<stop offset="0.54" stop-color="#808080" stop-opacity="0.12"/>
<stop offset="1" stop-color="#808080" stop-opacity="0.1"/>
</linearGradient>
</defs>
</svg>
