<svg width="908" height="859" viewBox="0 0 908 859" fill="none" xmlns="http://www.w3.org/2000/svg">
<path opacity="0.2" d="M381.202 141.349C338.721 154.332 295.439 170.436 258.212 197.191C203.474 236.525 166.903 297.966 165.676 352.789C164.607 399.26 186.717 437.969 200.656 479.337C217.84 530.288 222.741 586.439 225.492 642.712C226.976 672.94 228.053 704.115 241.789 729.081C260.865 763.74 303.572 782.291 350.774 782.065C397.977 781.839 448.932 764.149 494.002 737.387C517.985 723.146 541.277 705.639 556.329 683.725C572.255 660.537 577.645 634.416 593.741 611.291C608.655 589.862 631.532 572.842 654.879 558.571C685.362 539.939 717.723 524.91 751.007 513.928C788.717 501.507 826.915 494.602 864.599 482.385C902.284 470.169 941.052 451.388 968.245 422.031C993.812 394.435 1006.13 360.992 1015.95 328.92C1032.04 276.529 1043.65 223.86 1050.66 171.436C1055.34 136.295 1057.85 100.857 1049.19 69.4193C1032.64 9.30694 972.672 -30.6515 899.771 -30.1552C839.372 -29.7415 775.289 -4.02013 715.579 25.6332C661.129 52.6737 603.085 91.2265 545.393 104.895C490.364 117.908 436.682 124.403 381.202 141.349Z" fill="#1B51E5"/>
<path opacity="0.2" d="M359.573 355.197C337.021 373.578 315.172 394.146 301.445 420.095C281.257 458.245 281.568 506.235 302.285 541.61C319.827 571.603 349.407 591.133 374.714 614.301C405.893 642.833 431.119 677.605 454.994 712.965C467.823 731.957 480.759 751.653 499.496 764.373C525.512 782.03 560.587 783.776 591.219 772.44C621.85 761.103 648.07 737.701 666.899 709.888C676.919 695.088 685.207 678.362 686.403 660.769C687.668 642.154 680.924 624.16 682.325 605.545C683.621 588.295 691.83 571.979 701.425 557.311C713.951 538.159 729.114 520.868 746.466 505.949C766.134 489.059 788.283 475.584 808.015 458.831C827.746 442.078 845.606 420.867 851.783 395.632C857.593 371.91 852.487 347.587 846.289 324.734C836.198 287.392 823.084 250.935 807.076 215.722C796.329 192.124 784.057 168.85 766.083 150.785C731.722 116.24 677.01 104.887 629.76 122.49C590.613 137.075 559.001 168.73 531.778 201.864C506.953 232.079 484.307 270.513 452.125 292.939C421.419 314.314 389.03 331.198 359.573 355.197Z" fill="#1B51E5"/>
<path d="M693.013 396.412C693.013 396.412 755.681 343.901 769.617 317.425C783.553 290.949 801.292 268.134 801.292 268.134" stroke="#535461" stroke-width="2"/>
<path d="M793.052 327.322L765.944 321.21C765.944 321.21 772.341 349.801 793.052 327.322Z" fill="#1B51E5"/>
<path d="M751.629 298.134L767.228 321.495C767.228 321.495 736.732 323.698 751.629 298.134Z" fill="#1B51E5"/>
<path d="M803.718 305.363L778.943 301.02C778.943 301.02 794.504 324.691 803.718 305.363Z" fill="#1B51E5"/>
<path d="M767.054 284.484L779.259 300.467C779.259 300.467 757.654 302.515 767.054 284.484Z" fill="#1B51E5"/>
<path d="M791.756 281.301C791.756 281.301 812.852 282.306 815.334 284.323C817.816 286.339 812.188 298.159 804.165 296.23C796.143 294.3 791.756 281.301 791.756 281.301Z" fill="#1B51E5"/>
<path d="M783.323 262.445C783.323 262.445 791.942 278.149 791.619 281.14C791.297 284.13 778.484 287.487 775.896 276.176C773.309 264.864 783.323 262.445 783.323 262.445Z" fill="#1B51E5"/>
<path d="M810.125 274.439C811.1 271.349 809.387 268.054 806.297 267.078C803.208 266.103 799.913 267.816 798.937 270.906C797.961 273.995 799.675 277.291 802.764 278.266C805.854 279.242 809.149 277.528 810.125 274.439Z" fill="#FFD037"/>
<path d="M800.941 268.402C801.917 265.312 800.203 262.017 797.114 261.041C794.024 260.066 790.729 261.779 789.753 264.869C788.778 267.958 790.491 271.254 793.581 272.229C796.67 273.205 799.966 271.491 800.941 268.402Z" fill="#FFD037"/>
<path d="M497.545 602.254C497.545 602.254 507.603 572.335 443.843 536.267C443.843 536.267 379.102 517.386 385.723 452.546C385.723 452.546 311.092 507.222 361.592 576.871C412.093 646.519 455.681 631.317 455.681 631.317L497.545 602.254Z" fill="#1B51E5"/>
<path d="M478.105 615.768C478.105 615.768 446.995 582.145 417.175 569.146C411.218 566.465 405.744 562.819 400.974 558.356C381.963 540.982 373.673 514.767 378.575 489.483L385.741 452.546" stroke="#535461" stroke-width="2"/>
<rect x="400.508" y="226.6" width="354.05" height="411.084" fill="url(#paint0_linear_9071_1500)"/>
<rect x="404.635" y="231.384" width="345.804" height="401.504" fill="#F7F7FD"/>
<rect x="425.52" y="276.641" width="87.4188" height="6.96174" fill="#E2E2EC"/>
<rect x="425.52" y="293.661" width="149.305" height="6.96174" fill="#E2E2EC"/>
<rect x="671.836" y="269.99" width="62.0414" height="53.5346" fill="white"/>
<path fill-rule="evenodd" clip-rule="evenodd" d="M671.501 269.679H734.17V323.834H671.501V269.679ZM733.549 323.214V270.3H672.122V323.214H733.549Z" fill="#E2E2EC"/>
<rect x="609.174" y="269.99" width="62.0414" height="53.5346" fill="white"/>
<path fill-rule="evenodd" clip-rule="evenodd" d="M608.833 269.679H671.501V323.834H608.833V269.679ZM670.881 323.214V270.3H609.453V323.214H670.881Z" fill="#E2E2EC"/>
<rect x="671.836" y="324.145" width="62.0414" height="53.5346" fill="white"/>
<path fill-rule="evenodd" clip-rule="evenodd" d="M671.501 323.835H734.17V377.99H671.501V323.835ZM733.549 377.369V324.455H672.122V377.369H733.549Z" fill="#E2E2EC"/>
<rect x="609.174" y="324.145" width="62.0414" height="53.5346" fill="white"/>
<path fill-rule="evenodd" clip-rule="evenodd" d="M608.833 323.835H671.501V377.99H608.833V323.835ZM670.881 377.369V324.455H609.453V377.369H670.881Z" fill="#E2E2EC"/>
<rect x="546.513" y="324.145" width="62.0414" height="53.5346" fill="white"/>
<path fill-rule="evenodd" clip-rule="evenodd" d="M546.196 323.835H608.864V377.99H546.196V323.835ZM608.244 377.369V324.455H546.817V377.369H608.244Z" fill="#E2E2EC"/>
<rect x="483.851" y="324.145" width="62.0414" height="53.5346" fill="white"/>
<path fill-rule="evenodd" clip-rule="evenodd" d="M483.534 323.835H546.202V377.99H483.534V323.835ZM545.582 377.369V324.455H484.155V377.369H545.582Z" fill="#E2E2EC"/>
<rect x="421.189" y="324.145" width="62.0414" height="53.5346" fill="white"/>
<path fill-rule="evenodd" clip-rule="evenodd" d="M420.873 323.835H483.541V377.99H420.873V323.835ZM482.92 377.369V324.455H421.493V377.369H482.92Z" fill="#E2E2EC"/>
<rect x="671.836" y="378.294" width="62.0414" height="53.5346" fill="white"/>
<path fill-rule="evenodd" clip-rule="evenodd" d="M671.501 377.99H734.17V432.145H671.501V377.99ZM733.549 431.524V378.61H672.122V431.524H733.549Z" fill="#E2E2EC"/>
<rect x="609.174" y="378.294" width="62.0414" height="53.5346" fill="white"/>
<path fill-rule="evenodd" clip-rule="evenodd" d="M608.833 377.99H671.501V432.145H608.833V377.99ZM670.881 431.524V378.61H609.453V431.524H670.881Z" fill="#E2E2EC"/>
<rect x="546.513" y="378.294" width="62.0414" height="53.5346" fill="white"/>
<path fill-rule="evenodd" clip-rule="evenodd" d="M546.196 377.99H608.864V432.145H546.196V377.99ZM608.244 431.524V378.61H546.817V431.524H608.244Z" fill="#E2E2EC"/>
<rect x="483.851" y="378.294" width="62.0414" height="53.5346" fill="white"/>
<path fill-rule="evenodd" clip-rule="evenodd" d="M483.534 377.99H546.202V432.145H483.534V377.99ZM545.582 431.524V378.61H484.155V431.524H545.582Z" fill="#E2E2EC"/>
<rect x="421.189" y="378.294" width="62.0414" height="53.5346" fill="white"/>
<path fill-rule="evenodd" clip-rule="evenodd" d="M420.873 377.99H483.541V432.145H420.873V377.99ZM482.92 431.524V378.61H421.493V431.524H482.92Z" fill="#E2E2EC"/>
<rect x="671.836" y="432.449" width="62.0414" height="53.5346" fill="white"/>
<path fill-rule="evenodd" clip-rule="evenodd" d="M671.501 432.139H734.17V486.294H671.501V432.139ZM733.549 485.673V432.759H672.122V485.673H733.549Z" fill="#E2E2EC"/>
<rect x="609.174" y="432.449" width="62.0414" height="53.5346" fill="white"/>
<path fill-rule="evenodd" clip-rule="evenodd" d="M608.833 432.139H671.501V486.294H608.833V432.139ZM670.881 485.673V432.759H609.453V485.673H670.881Z" fill="#E2E2EC"/>
<rect x="546.513" y="432.449" width="62.0414" height="53.5346" fill="white"/>
<path fill-rule="evenodd" clip-rule="evenodd" d="M546.196 432.139H608.864V486.294H546.196V432.139ZM608.244 485.673V432.759H546.817V485.673H608.244Z" fill="#E2E2EC"/>
<rect x="483.851" y="432.449" width="62.0414" height="53.5346" fill="white"/>
<path fill-rule="evenodd" clip-rule="evenodd" d="M483.534 432.139H546.202V486.294H483.534V432.139ZM545.582 485.673V432.759H484.155V485.673H545.582Z" fill="#E2E2EC"/>
<rect x="421.189" y="432.449" width="62.0414" height="53.5346" fill="white"/>
<path fill-rule="evenodd" clip-rule="evenodd" d="M420.873 432.139H483.541V486.294H420.873V432.139ZM482.92 485.673V432.759H421.493V485.673H482.92Z" fill="#E2E2EC"/>
<rect x="671.836" y="486.598" width="62.0414" height="53.5346" fill="white"/>
<path fill-rule="evenodd" clip-rule="evenodd" d="M671.501 486.294H734.17V540.443H671.501V486.294ZM733.549 539.822V486.914H672.122V539.822H733.549Z" fill="#E2E2EC"/>
<rect x="609.174" y="486.598" width="62.0414" height="53.5346" fill="white"/>
<path fill-rule="evenodd" clip-rule="evenodd" d="M608.833 486.294H671.501V540.443H608.833V486.294ZM670.881 539.822V486.914H609.453V539.822H670.881Z" fill="#E2E2EC"/>
<rect x="546.513" y="486.598" width="62.0414" height="53.5346" fill="white"/>
<path fill-rule="evenodd" clip-rule="evenodd" d="M546.196 486.294H608.864V540.443H546.196V486.294ZM608.244 539.822V486.914H546.817V539.822H608.244Z" fill="#E2E2EC"/>
<rect x="483.851" y="486.598" width="62.0414" height="53.5346" fill="white"/>
<path fill-rule="evenodd" clip-rule="evenodd" d="M483.534 486.294H546.202V540.443H483.534V486.294ZM545.582 539.822V486.914H484.155V539.822H545.582Z" fill="#E2E2EC"/>
<rect x="421.189" y="486.598" width="62.0414" height="53.5346" fill="white"/>
<path fill-rule="evenodd" clip-rule="evenodd" d="M420.873 486.294H483.541V540.443H420.873V486.294ZM482.92 539.822V486.914H421.493V539.822H482.92Z" fill="#E2E2EC"/>
<rect x="671.836" y="540.753" width="62.0414" height="53.5346" fill="white"/>
<path fill-rule="evenodd" clip-rule="evenodd" d="M671.501 540.443H734.17V594.598H671.501V540.443ZM733.549 593.977V541.063H672.122V593.977H733.549Z" fill="#E2E2EC"/>
<rect x="609.174" y="540.753" width="62.0414" height="53.5346" fill="white"/>
<path fill-rule="evenodd" clip-rule="evenodd" d="M608.833 540.443H671.501V594.598H608.833V540.443ZM670.881 593.977V541.063H609.453V593.977H670.881Z" fill="#E2E2EC"/>
<rect x="546.513" y="540.753" width="62.0414" height="53.5346" fill="white"/>
<path fill-rule="evenodd" clip-rule="evenodd" d="M546.196 540.443H608.864V594.598H546.196V540.443ZM608.244 593.977V541.063H546.817V593.977H608.244Z" fill="#E2E2EC"/>
<rect x="483.851" y="540.753" width="62.0414" height="53.5346" fill="white"/>
<path fill-rule="evenodd" clip-rule="evenodd" d="M483.534 540.443H546.202V594.598H483.534V540.443ZM545.582 593.977V541.063H484.155V593.977H545.582Z" fill="#E2E2EC"/>
<rect x="421.189" y="540.753" width="62.0414" height="53.5346" fill="white"/>
<path fill-rule="evenodd" clip-rule="evenodd" d="M420.873 540.443H483.541V594.598H420.873V540.443ZM482.92 593.977V541.063H421.493V593.977H482.92Z" fill="#E2E2EC"/>
<path d="M551.501 643.367C553.276 642.021 554.945 640.432 555.46 638.496C556.009 636.369 554.791 634.184 552.693 633.533C550.155 632.738 547.443 634.153 545.383 635.624C543.323 637.094 540.972 638.726 538.279 638.422C541.065 636.405 542.393 633.135 541.623 630.163C541.491 629.523 541.167 628.938 540.693 628.488C539.284 627.247 536.728 627.787 535.04 628.755C529.673 631.857 528.178 637.783 528.147 643.138C527.607 641.208 528.06 639.198 528.047 637.212C528.035 635.227 527.371 633.036 525.323 631.969C524.013 631.401 522.594 631.128 521.166 631.169C518.753 631.094 516.066 631.293 514.422 632.732C512.374 634.519 512.908 637.522 514.689 639.489C516.469 641.456 519.181 642.691 521.669 644.05C523.568 645.086 525.491 646.296 526.633 647.934C526.782 648.151 526.907 648.384 527.005 648.629H542.126C545.457 647.27 548.606 645.502 551.501 643.367Z" fill="#1B51E5"/>
<path d="M429.373 335.822C431.326 335.822 432.91 334.239 432.91 332.285C432.91 330.332 431.326 328.749 429.373 328.749C427.42 328.749 425.836 330.332 425.836 332.285C425.836 334.239 427.42 335.822 429.373 335.822Z" fill="#FC6681"/>
<path d="M438.209 335.822C440.162 335.822 441.745 334.239 441.745 332.285C441.745 330.332 440.162 328.749 438.209 328.749C436.255 328.749 434.672 330.332 434.672 332.285C434.672 334.239 436.255 335.822 438.209 335.822Z" fill="#FFD037"/>
<path d="M554.262 388.252C556.216 388.252 557.799 386.669 557.799 384.716C557.799 382.762 556.216 381.179 554.262 381.179C552.309 381.179 550.726 382.762 550.726 384.716C550.726 386.669 552.309 388.252 554.262 388.252Z" fill="#1B51E5"/>
<path d="M563.104 388.252C565.057 388.252 566.641 386.669 566.641 384.716C566.641 382.762 565.057 381.179 563.104 381.179C561.151 381.179 559.567 382.762 559.567 384.716C559.567 386.669 561.151 388.252 563.104 388.252Z" fill="#1B51E5"/>
<path d="M743.365 489.576C745.318 489.576 746.902 487.993 746.902 486.039C746.902 484.086 745.318 482.503 743.365 482.503C741.412 482.503 739.828 484.086 739.828 486.039C739.828 487.993 741.412 489.576 743.365 489.576Z" fill="#1B51E5"/>
<path d="M745.133 485.456C747.086 485.456 748.67 483.873 748.67 481.919C748.67 479.966 747.086 478.383 745.133 478.383C743.18 478.383 741.596 479.966 741.596 481.919C741.596 483.873 743.18 485.456 745.133 485.456Z" fill="#1B51E5"/>
<path d="M746.901 481.919C748.855 481.919 750.438 480.336 750.438 478.383C750.438 476.429 748.855 474.846 746.901 474.846C744.948 474.846 743.365 476.429 743.365 478.383C743.365 480.336 744.948 481.919 746.901 481.919Z" fill="#1B51E5"/>
<path d="M680.92 335.822C682.873 335.822 684.457 334.239 684.457 332.285C684.457 330.332 682.873 328.749 680.92 328.749C678.967 328.749 677.383 330.332 677.383 332.285C677.383 334.239 678.967 335.822 680.92 335.822Z" fill="#1B51E5"/>
<path d="M689.755 335.822C691.709 335.822 693.292 334.239 693.292 332.285C693.292 330.332 691.709 328.749 689.755 328.749C687.802 328.749 686.219 330.332 686.219 332.285C686.219 334.239 687.802 335.822 689.755 335.822Z" fill="#1B51E5"/>
<path d="M698.597 335.822C700.551 335.822 702.134 334.239 702.134 332.285C702.134 330.332 700.551 328.749 698.597 328.749C696.644 328.749 695.061 330.332 695.061 332.285C695.061 334.239 696.644 335.822 698.597 335.822Z" fill="#1B51E5"/>
<path d="M707.433 335.822C709.386 335.822 710.97 334.239 710.97 332.285C710.97 330.332 709.386 328.749 707.433 328.749C705.48 328.749 703.896 330.332 703.896 332.285C703.896 334.239 705.48 335.822 707.433 335.822Z" fill="#1B51E5"/>
<path d="M680.92 445.392C682.873 445.392 684.457 443.808 684.457 441.855C684.457 439.902 682.873 438.318 680.92 438.318C678.967 438.318 677.383 439.902 677.383 441.855C677.383 443.808 678.967 445.392 680.92 445.392Z" fill="#1B51E5"/>
<path d="M689.755 445.392C691.709 445.392 693.292 443.808 693.292 441.855C693.292 439.902 691.709 438.318 689.755 438.318C687.802 438.318 686.219 439.902 686.219 441.855C686.219 443.808 687.802 445.392 689.755 445.392Z" fill="#1B51E5"/>
<path d="M698.597 445.392C700.551 445.392 702.134 443.808 702.134 441.855C702.134 439.902 700.551 438.318 698.597 438.318C696.644 438.318 695.061 439.902 695.061 441.855C695.061 443.808 696.644 445.392 698.597 445.392Z" fill="#1B51E5"/>
<path d="M707.433 445.392C709.386 445.392 710.97 443.808 710.97 441.855C710.97 439.902 709.386 438.318 707.433 438.318C705.48 438.318 703.896 439.902 703.896 441.855C703.896 443.808 705.48 445.392 707.433 445.392Z" fill="#1B51E5"/>
<path d="M491.817 388.252C493.771 388.252 495.354 386.669 495.354 384.716C495.354 382.762 493.771 381.179 491.817 381.179C489.864 381.179 488.281 382.762 488.281 384.716C488.281 386.669 489.864 388.252 491.817 388.252Z" fill="#FFD037"/>
<path d="M429.373 441.861C431.326 441.861 432.91 440.278 432.91 438.325C432.91 436.371 431.326 434.788 429.373 434.788C427.42 434.788 425.836 436.371 425.836 438.325C425.836 440.278 427.42 441.861 429.373 441.861Z" fill="#FC6681"/>
<path fill-rule="evenodd" clip-rule="evenodd" d="M757.903 493.77C750.24 498.691 744.19 497.202 740.312 494.912C739.135 494.234 738.359 493.029 738.23 491.677C738.101 490.325 738.634 488.994 739.661 488.105C741.864 486.046 743.778 483.698 745.351 481.125C748.676 475.894 754.254 473.065 758.07 471.663V469.963L757.835 469.919L757.94 468.337H757.835L758.108 464.161V464.124L759.466 443.257C759.466 443.257 764.362 429.384 755.663 416.577C746.964 403.77 755.117 391.491 763.27 386.689C763.27 386.689 767.08 366.405 763.816 361.603C768.235 359.035 772.792 356.71 777.466 354.641C777.537 354.389 777.603 354.132 777.665 353.872C777.731 352.427 777.816 350.969 777.899 349.531C777.924 349.085 777.95 348.641 777.975 348.201C777.867 347.219 777.688 346.247 777.442 345.291C777.342 344.893 777.224 344.49 777.094 344.081C769.116 340.985 763.844 333.323 763.803 324.765C763.799 322.332 764.227 319.918 765.069 317.636C764.656 316.923 764.34 316.157 764.132 315.359C763.605 313.193 764.182 310.891 765.423 308.701C767.582 303.936 773.018 299.493 776.964 297.88C782.616 295.584 791.123 296.112 797.005 296.825C800.306 297.222 804.079 298.333 805.27 301.386C805.532 302.051 805.643 302.758 805.753 303.466C805.829 303.947 805.904 304.428 806.027 304.898C806.833 307.959 809.412 309.946 812.021 311.957C813.389 313.011 814.765 314.072 815.899 315.297C818.809 318.443 820.093 322.699 821.036 326.85C823.742 338.747 824.386 351.02 822.941 363.135C822.612 365.921 822.172 368.695 821.7 371.468C823.679 374.261 825.473 379.206 824.654 387.793L831.175 418.749L833.892 436.898C833.892 436.898 835.524 444.374 829.003 450.778C824.84 454.86 819.795 461.766 816.693 466.234C818.059 470.182 818.743 474.335 818.716 478.513C818.647 480.418 818.542 482.254 818.412 484.004C818.135 487.718 817.436 491.388 816.327 494.943C815.564 502.395 814.056 511.926 811.109 518.006L810.004 550.563C810.004 550.563 811.636 580.451 814.893 586.321C818.151 592.19 807.826 641.828 807.826 641.828V648.759L809.57 653.89L810.004 653.561C818.157 663.719 810.004 667.442 810.004 667.442C810.004 667.442 807.789 667.547 804.24 667.684C804.867 670.605 803.438 673.581 800.765 674.918C800.765 674.918 754.571 677.053 746.418 674.918C738.265 672.784 740.443 665.313 744.786 665.847C746.443 666.052 748.9 665.611 751.295 664.991C748.757 662.019 750.786 657.979 754.025 658.376C758.368 658.91 768.147 655.032 768.147 655.032L768.19 655.094C768.504 654.975 768.825 654.878 769.152 654.802C772.786 653.978 776.375 652.967 779.905 651.775C782.002 647.276 786.836 635.195 783.367 625.82C781.797 621.582 781.288 615.948 781.288 610.482C781.207 593.984 778.796 577.58 774.128 561.756L767.613 539.357C767.613 539.357 758.374 512.112 757.828 504.666L757.903 493.77ZM805.933 439.458C805.933 439.461 805.934 439.464 805.934 439.466L805.928 439.46C805.929 439.46 805.931 439.459 805.933 439.458ZM805.933 439.458C808.874 438.502 813.28 436.249 812.176 431.549C811.99 430.767 811.835 429.911 811.704 429.011C810.422 429.007 809.142 428.993 807.863 428.968C806.275 432.223 805.608 435.851 805.933 439.458Z" fill="url(#paint1_linear_9071_1500)"/>
<path d="M807.007 646.327L809.098 652.6L802.273 659.425L779.787 664.656L763.574 663.086L764.622 657.334C765.254 654.813 767.242 652.856 769.772 652.265C776.436 650.701 789.144 647.127 791.812 642.17L807.007 646.327Z" fill="#DB8B8B"/>
<path opacity="0.1" d="M807.007 646.327L809.098 652.6L802.273 659.425L779.787 664.656L763.574 663.086L764.622 657.334C765.254 654.813 767.242 652.856 769.772 652.265C776.436 650.701 789.144 647.127 791.812 642.17L807.007 646.327Z" fill="black"/>
<path d="M768.829 661.491L771.969 657.309L768.829 652.463C768.829 652.463 759.416 656.261 755.234 655.739C751.052 655.218 748.961 662.565 756.804 664.631C764.647 666.697 809.098 664.631 809.098 664.631C809.098 664.631 816.941 660.97 809.098 651.036L802.273 656.267C802.273 656.267 790.769 662.54 785.017 661.497L768.829 661.491Z" fill="#2E3037"/>
<path d="M754.707 670.37L770.92 671.94L793.406 666.709L800.231 659.884L799.679 658.221L798.897 655.888L798.116 653.617L782.951 649.435C782.176 650.7 781.113 651.763 779.849 652.538C774.922 655.907 766.074 658.339 760.881 659.555C760.67 659.607 760.463 659.671 760.26 659.748C758.025 660.499 756.327 662.337 755.756 664.625L754.707 670.37Z" fill="#DB8B8B"/>
<path opacity="0.1" d="M754.707 670.37L770.92 671.94L793.406 666.709L800.231 659.884L799.679 658.221L793.437 663.024C793.437 663.024 781.934 669.297 776.182 668.254H759.938L763.077 664.072L760.26 659.729C758.025 660.48 756.327 662.318 755.756 664.606L754.707 670.37Z" fill="black"/>
<path d="M759.938 668.813L763.077 664.631L759.938 659.785C759.938 659.785 750.525 663.582 746.343 663.061C742.161 662.54 740.07 669.886 747.913 671.952C755.756 674.019 800.207 671.952 800.207 671.952C800.207 671.952 808.05 668.292 800.207 658.358L793.381 663.588C793.381 663.588 781.878 669.861 776.126 668.819L759.938 668.813Z" fill="#2E3037"/>
<path d="M773.011 365.506C773.011 365.506 798.116 368.118 794.455 357.663C793.431 354.698 793.165 351.524 793.679 348.43C794.33 344.594 795.848 340.957 798.116 337.795L774.581 341.456C775.991 343.814 777.065 346.358 777.77 349.013C780.575 360.101 773.011 365.506 773.011 365.506Z" fill="#DB8B8B"/>
<path d="M815.892 484.736C815.892 484.736 815.371 507.222 810.14 518.205L809.092 550.103C809.092 550.103 810.661 579.39 813.801 585.142C816.941 590.894 806.976 639.526 806.976 639.526V647.897C806.976 647.897 790.223 654.17 785.532 646.848L790.242 584.614L788.151 498.331L815.892 484.736Z" fill="#474463"/>
<path opacity="0.1" d="M815.892 484.736C815.892 484.736 815.371 507.222 810.14 518.205L809.092 550.103C809.092 550.103 810.661 579.39 813.801 585.142C816.941 590.894 806.976 639.526 806.976 639.526V647.897C806.976 647.897 790.223 654.17 785.532 646.848L790.242 584.614L788.151 498.331L815.892 484.736Z" fill="black"/>
<path d="M826.354 412.569L829.493 420.939L832.105 438.722C832.822 443.748 831.068 448.81 827.396 452.316C821.123 458.589 812.753 471.663 812.753 471.663L802.825 441.88C802.825 441.88 812.753 440.31 811.195 433.51C809.638 426.709 810.141 414.114 810.141 414.114L826.354 412.569Z" fill="#FC6681"/>
<path opacity="0.05" d="M826.354 412.569L829.493 420.939L832.105 438.722C832.822 443.748 831.068 448.81 827.396 452.316C821.123 458.589 812.753 471.663 812.753 471.663L802.825 441.88C802.825 441.88 812.753 440.31 811.195 433.51C809.638 426.709 810.141 414.114 810.141 414.114L826.354 412.569Z" fill="black"/>
<path opacity="0.1" d="M779.874 652.544C786.581 663.092 797.023 657.117 798.873 655.926L798.116 653.617L782.951 649.435C782.184 650.699 781.13 651.764 779.874 652.544H779.874Z" fill="black"/>
<path d="M758.896 505.131C759.417 512.453 768.308 539.121 768.308 539.121L774.581 561.067C779.076 576.585 781.396 592.651 781.475 608.807C781.475 614.161 781.965 619.684 783.479 623.835C787.661 635.338 779.297 651.03 779.297 651.03C786.618 664.103 799.152 655.212 799.152 655.212V646.848C799.152 646.848 809.08 601.349 806.474 592.463C803.868 583.578 802.813 559.516 802.813 559.516V516.083C811.19 507.736 816.284 496.653 817.164 484.86C817.288 483.148 817.388 481.349 817.456 479.481C817.878 467.692 809.812 453.849 806.66 448.922C805.903 447.731 805.419 447.061 805.419 447.061L759.243 465.377L759.137 465.421V467.208V471.16L758.896 505.131Z" fill="#474463"/>
<path opacity="0.1" d="M774.581 341.45C775.991 343.808 777.065 346.352 777.77 349.007C782.935 350.967 788.672 350.756 793.679 348.424C794.331 344.59 795.849 340.955 798.116 337.795L774.581 341.45Z" fill="black"/>
<path d="M785.042 349.286C796.306 349.286 805.437 340.155 805.437 328.891C805.437 317.628 796.306 308.496 785.042 308.496C773.778 308.496 764.647 317.628 764.647 328.891C764.647 340.155 773.778 349.286 785.042 349.286Z" fill="#DB8B8B"/>
<path opacity="0.1" d="M758.896 471.142L759.119 471.185C781.046 475.696 808.577 452.838 808.577 452.838C807.839 451.594 807.202 450.293 806.672 448.947C805.915 447.756 805.431 447.086 805.431 447.086L759.255 465.402L759.137 467.233L758.896 471.142Z" fill="black"/>
<path d="M764.647 364.978C764.647 364.978 793.933 347.195 803.346 354.517L816.419 371.27C816.419 371.27 824.79 373.882 823.245 390.616L829.493 420.939L810.668 425.648C810.668 425.648 799.685 436.11 808.577 451.274C808.577 451.274 780.86 474.281 758.895 469.578L760.465 445.001C760.465 445.001 765.174 431.406 756.804 418.854C748.434 406.302 756.283 394.277 764.126 389.568C764.126 389.562 767.78 369.688 764.647 364.978Z" fill="#FC6681"/>
<path d="M763.077 471.663C763.077 471.663 752.095 473.754 746.864 482.124C745.355 484.635 743.514 486.931 741.392 488.949C740.423 489.827 739.925 491.11 740.047 492.412C740.17 493.713 740.897 494.881 742.012 495.564C746.163 498.046 752.932 499.591 761.483 492.567C776.151 480.554 763.077 471.663 763.077 471.663Z" fill="#DB8B8B"/>
<path opacity="0.1" d="M779.29 374.918C779.29 374.918 789.752 373.87 792.364 401.065C794.976 428.261 799.189 434.534 799.189 434.534C799.189 434.534 801.801 448.656 795.528 457.02C789.255 465.384 777.224 483.167 777.224 483.167C777.224 483.167 764.151 486.827 761.539 473.754L777.752 443.425C777.752 443.425 780.364 432.964 774.091 425.642C767.818 418.321 763.077 369.688 779.29 374.918Z" fill="black"/>
<path d="M778.223 373.348C778.223 373.348 788.684 372.3 791.296 399.495C793.909 426.691 798.122 432.964 798.122 432.964C798.122 432.964 800.734 447.086 794.461 455.45C788.188 463.814 776.157 481.597 776.157 481.597C776.157 481.597 763.083 485.257 760.471 472.184L776.684 441.855C776.684 441.855 779.296 431.394 773.023 424.072C766.75 416.751 762.029 368.118 778.223 373.348Z" fill="#FC6681"/>
<path opacity="0.1" d="M769.611 392.956C769.611 392.956 768.568 409.15 773.259 418.06C777.95 426.97 777.969 438.455 773.259 444.74" fill="black"/>
<path opacity="0.1" d="M766.999 373.088C766.999 373.088 771.181 368.906 783.212 368.378C795.243 367.851 800.467 364.196 800.467 364.196" fill="black"/>
<path opacity="0.1" d="M796.086 302.54C799.263 302.931 802.912 304.023 804.041 307.007C804.463 308.105 804.475 309.315 804.767 310.451C805.952 315.018 811.096 317.146 814.266 320.639C817.065 323.741 818.299 327.892 819.23 331.957C821.841 343.611 822.47 355.622 821.091 367.485C820.074 376.172 817.989 384.697 817.406 393.408C816.823 402.12 817.89 411.284 822.649 418.606C824.696 421.752 827.402 424.519 828.854 427.981C825.857 430.414 821.718 430.761 817.853 430.891C813.356 431.044 808.858 431.044 804.357 430.891C801.999 430.811 799.536 430.656 797.501 429.464C795.994 428.501 794.756 427.171 793.902 425.599C791.327 421.255 790.682 415.981 790.8 410.918C790.918 405.855 791.712 400.817 791.805 395.748C791.855 392.987 791.637 390.052 790.049 387.793C788.901 386.161 787.158 385.063 785.669 383.741C780.084 378.778 778.148 370.823 777.962 363.346C777.776 355.87 779.011 348.381 778.378 340.929C778.13 338.012 777.038 334.507 774.171 333.942C773.265 333.762 772.31 333.942 771.441 333.595C769.139 332.707 769.362 329.462 768.705 327.086C767.966 324.418 765.689 322.358 765.05 319.64C763.542 313.311 771.596 305.76 776.876 303.557C782.243 301.311 790.428 301.845 796.086 302.54Z" fill="black"/>
<path d="M796.608 301.497C799.785 301.888 803.433 302.98 804.562 305.965C804.984 307.063 804.997 308.273 805.288 309.409C806.473 313.975 811.617 316.103 814.788 319.597C817.586 322.699 818.821 326.85 819.752 330.914C822.363 342.568 822.992 354.579 821.613 366.443C820.595 375.129 818.511 383.655 817.927 392.366C817.344 401.078 818.411 410.242 823.17 417.564C825.218 420.709 827.923 423.477 829.375 426.939C826.378 429.371 822.24 429.719 818.374 429.849C813.878 430.002 809.379 430.002 804.879 429.849C802.521 429.768 800.058 429.613 798.022 428.422C796.516 427.458 795.277 426.128 794.424 424.556C791.849 420.213 791.203 414.939 791.321 409.876C791.439 404.813 792.233 399.775 792.327 394.705C792.376 391.944 792.159 389.009 790.571 386.751C789.423 385.119 787.679 384.021 786.19 382.699C780.606 377.735 778.67 369.781 778.484 362.304C778.298 354.827 779.532 347.338 778.899 339.886C778.651 336.97 777.559 333.464 774.693 332.9C773.787 332.72 772.831 332.9 771.962 332.552C769.661 331.665 769.884 328.42 769.226 326.043C768.488 323.375 766.211 321.315 765.572 318.598C764.064 312.269 772.118 304.718 777.398 302.515C782.765 300.263 790.949 300.796 796.608 301.497Z" fill="#472727"/>
<defs>
<linearGradient id="paint0_linear_9071_1500" x1="754.558" y1="637.677" x2="754.558" y2="226.6" gradientUnits="userSpaceOnUse">
<stop stop-color="#808080" stop-opacity="0.25"/>
<stop offset="0.54" stop-color="#808080" stop-opacity="0.12"/>
<stop offset="1" stop-color="#808080" stop-opacity="0.1"/>
</linearGradient>
<linearGradient id="paint1_linear_9071_1500" x1="834.092" y1="675.874" x2="834.092" y2="296.211" gradientUnits="userSpaceOnUse">
<stop stop-color="#808080" stop-opacity="0.25"/>
<stop offset="0.54" stop-color="#808080" stop-opacity="0.12"/>
<stop offset="1" stop-color="#808080" stop-opacity="0.1"/>
</linearGradient>
</defs>
</svg>
